<?xml version="1.0" encoding="UTF-8"?>
<svg id="Laag_1" data-name="Laag 1" xmlns="http://www.w3.org/2000/svg" viewBox="0 0 224.449 531.631">
  <path d="M200.978,249.41c-3.144-9.011-4.202-19.862-6.647-29.138-2.689-10.201-3.343-23.032-5.58-33.395-1.053-4.877-2.513-11.366-4.154-18.521,7.854,10.893,7.684,10.794,8.039,10.794.379,0,.612-.434.383-.751l-8.968-12.418c-5.435-23.615-12.514-53.148-13.589-56.561-2.866-9.094-12.463-12.798-21.745-16.378-6.32-2.44-13.649-5.934-24.125-8.345-.002-.033-.003-.066-.005-.099-.081-1.427-.169-2.95-.41-4.469,6.527,1.732,13.249,2.88,19.742,4.412,7.59,1.791,13.137,3.931,17.221,6.03.019.085.057.169.138.244,3.451,3.184,4.077,4.067,5.892,7.453,3.319,6.184,3.131,6.06,3.536,6.06.353,0,.587-.38.417-.697-3.944-7.349-4.584-8.923-6.952-11.354,6.445,3.967,7.989,7.376,8.818,7.376.396,0,.622-.467.362-.778-6.496-7.745-15.352-11.528-24.882-14.122-.013-.159-.103-.313-.287-.39-1.684-.699-3.432-1.606-5.283-2.566-7.439-3.857-8.836-4.094-13.796-4.765-.496-.668-1.999-2.032-4.753-5.893-.864-1.222-1.643-2.37-2.583-3.36-2.752-2.9-6.829-4.476-8.518-7.832-.003-.601-.005-1.192-.008-1.775,2.451,2.728,4.97,3.16,8.118,2.438,2.871-.832-1.306-8.231-3.461-9.276-2.031-.984-3.068-.581-4.685.492-.006-1.352-.012-2.618-.017-3.789,2.418.451,4.688.651,5.802.651,2.164,0,3.195-.815,4.795-2.46,1.228-1.262,2.91-2.99,3.179-5.175.04-.328.047-.657.05-.983,1.997-1.373,3.884-3.486,5.138-6.768,2.402-6.287.635-20.708-2.065-24.083-2.58-3.225-10.396-8.291-16.091-4.613-.127-1.175-1.067-1.964-1.97-1.379-.963-.624-1.971.312-1.986,1.614-5.72-4.123-13.806,1.088-16.438,4.379-2.699,3.374-4.468,17.795-2.065,24.083,1.31,3.428,3.311,5.583,5.407,6.949.106,2.526,1.184,3.896,3.209,5.977,1.62,1.666,2.636,2.46,4.794,2.46,1.115,0,3.41-.207,5.802-.652-.005,1.171-.011,2.438-.017,3.789-1.617-1.073-2.655-1.477-4.685-.492-2.068,1.003-6.405,8.427-3.434,9.283,3.152.721,5.666.25,8.09-2.446-.003.581-.005,1.171-.008,1.77-1.019,2.029-2.89,3.4-4.876,4.84-6.2,4.498-4.529,5.193-11.001,12.254-1.267.172-2.481.343-3.503.539-5.22,1.003-10.722,4.781-15.554,6.788-.194.081-.281.247-.286.415-9.563,2.628-18.458,6.436-24.883,14.097-.406.485.331,1.078.725.608,2.497-2.976,5.387-5.349,8.548-7.302-2.469,2.512-3.069,4.039-7.046,11.45-.294.549.54.996.834.447,4.838-9.016,4.506-9.107,9.01-13.263.1-.092.141-.198.15-.301,10.968-5.641,24.597-7.148,36.958-10.424-.246,1.532-.335,3.069-.417,4.508-.002.039-.004.078-.006.117-6.208,1.423-12.283,3.401-18.156,5.937-10.602,4.578-24.206,7.642-27.712,18.769-1.075,3.412-8.154,32.946-13.589,56.561l-8.969,12.418c-.228.317.005.751.383.751.355,0,.188.094,8.04-10.794-1.641,7.155-3.101,13.644-4.154,18.521-1.001,4.636-1.695,9.837-2.367,14.866-2.64,19.767-2.497,13.236-5.76,30.493-1.1,5.821-2.239,11.839-4.1,17.174-4.638,13.291-7.875,27.113-9.624,41.08-.078.622.861.739.939.117,1.09-8.709,2.763-17.361,4.995-25.862.251,5.087,2.528,9.589,2.655,9.835.285.553,1.128.123.841-.433-.039-.076-3.9-7.685-2.087-14.03.039-.137.017-.253-.035-.349.981-3.378,2.05-6.729,3.208-10.047,1.885-5.402,3.03-11.455,4.137-17.31,3.253-17.21,3.119-10.705,5.768-30.544.669-5.011,1.361-10.193,2.354-14.792,1.159-5.367,2.81-12.685,4.653-20.694.038-.053.073-.102.112-.155.124-.172.111-.346.035-.485,5.415-23.514,12.4-52.656,13.466-56.037,2.778-8.817,12.463-12.415,21.644-15.958-4.503,3.021-10.813,8.102-14.034,14.544-2.789,5.577-3.975,12.28-4.923,19.368-.247.027-.477.222-.422.544.004.024.077.461.19,1.214-.769,5.987-1.448,12.204-2.836,18.221-3.195,13.845-7.947,31.253-12.198,51.446-4.57,21.71-9.226,38.525-12.149,43.885-3.179,5.829-4.805,13.841-4.821,13.921-.122.614.805.799.928.185.016-.079,1.614-7.953,4.724-13.653,2.964-5.435,7.656-22.35,12.244-44.143,4.244-20.16,9.01-37.629,12.195-51.429,1.126-4.879,1.787-9.884,2.405-14.783.637,5.238,1.397,13.811.728,21.174-.574,6.318-2.849,13.455-5.049,20.357-6.551,20.553-2.615,11.891-9.79,43.925-.136.611.788.817.924.206,7.209-32.39,3.341-23.68,9.768-43.843,2.215-6.95,4.506-14.138,5.09-20.559.865-9.52-.63-21.022-1.206-24.915.982-7.624,2.115-14.834,5.047-20.697,5.129-10.257,18.397-17.025,18.739-17.197,5.734-2.475,11.662-4.41,17.719-5.815-.137,2.441-.253,4.89-.38,7.335-3.394,1.661-5.918,3.326-6.125,3.464-.389.259-.204.867.263.867.222,0,2.581-1.589,5.806-3.234-.198,3.87-.382,7.744-.552,11.623-4.13,2.469-7.443,5.145-8.122,5.752-.361.322-.134.893.323.833.227-.022,3.51-2.772,7.749-5.404-.163,3.785-.318,7.571-.455,11.362-4.892,3.294-9.054,7.081-10.222,8.217-.36.35-.064.918.382.798.227-.047,4.531-4.138,9.799-7.801-.132,3.724-.261,7.449-.368,11.177-5.68,4.128-10.75,9.112-12.419,10.833-.363.375.006.944.442.764.224-.073,5.639-5.668,11.947-10.381-.103,3.669-.197,7.339-.275,11.01-6.495,4.966-12.539,11.255-14.719,13.615-.368.398.076.969.501.729.219-.101,6.829-7.35,14.187-13.119-.075,3.617-.125,7.235-.176,10.852-7.333,5.8-14.418,13.494-17.119,16.545-.373.422.145.995.561.695.212-.131,8.115-9.189,16.537-16.006-.048,3.578-.077,7.153-.102,10.729-8.185,6.617-16.374,15.799-19.603,19.59-.379.445.215,1.02.621.66.203-.163,9.484-11.167,18.973-19.014-.022,3.54-.032,7.077-.031,10.614-9.048,7.411-18.404,18.171-22.169,22.748-.386.469.285,1.046.68.625.193-.195,10.935-13.291,21.49-22.14.004,3.51.012,7.019.038,10.524-9.916,8.177-20.501,20.594-24.815,25.998-.392.493.355,1.071.74.591.182-.229,12.47-15.538,24.087-25.352.03,3.611.059,7.223.112,10.827-4.551,3.714-9.562,8.442-14.021,14.08-.091.048-.16.135-.201.252-4.139,5.28-7.782,11.345-10.088,18.128-8.941,26.298-7.989,42.971-7.978,43.136.04.625.985.565.944-.061-.01-.164-.951-16.648,7.93-42.771,2.042-6.007,5.154-11.442,8.727-16.263-1.451,7.025-3.034,15.393-3.166,23.727-1.646,5.031-2.815,10.219-3.448,15.485-1.892,15.747.655,32.695-5.809,47.093-.257.572.608.957.863.388,6.578-14.65,3.987-31.575,5.886-47.368.506-4.215,1.361-8.378,2.531-12.451.119,3.74.565,7.439,1.508,10.969.943,3.531,1.855,5.818,6.33,16.327-.292.576-.576,1.159-.843,1.763-4.658,10.561-3.254,22.509-3.149,34.114-.622,1.299-1.876,4.287-5.26,10.735-.291.555.549.991.838.44,1.542-2.937,3.01-5.941,4.426-8.954-.051,6.415-.648,12.69-3.052,18.529-.238.579.637.939.875.361,2.707-6.575,3.168-13.678,3.117-20.881.067-.147.141-.293.208-.44.105-.232.006-.501-.218-.615-.152-11.323-1.358-22.843,3.081-32.907,0-.002.001-.003.002-.005-.04,6.42.216,12.893.63,19.399-.178.117-.287.334-.162.589.08.164.153.329.231.493.574,8.672,1.412,17.4,2.181,26.135-.013.019-.03.03-.041.052-7.452,14.715-10.57,31.278-9.1,47.601-4.263,3.876-7.219,9.659-9.022,17.687-4.532,20.173-.276,41.317,1.677,61.664.967,10.069,2.613,40.834,1.725,49.975-.611,6.276-2.08,11.578-6.286,28.758-.149.609.771.833.919.225,4.062-16.591,5.676-22.387,6.309-28.892.888-9.135-.738-39.879-1.725-50.156-1.548-16.138-4.558-32.876-3.425-49.152,8.423,26.517,11.684,55.102,9.403,82.812-.051.624.892.703.943.078,2.344-28.482-1.125-57.89-10.031-85.044-.026-.081-.068-.142-.116-.191.316-3.313.796-6.607,1.529-9.869,2.502-11.136,6.526-14.943,8.234-16.646.338,3.23.836,6.45,1.536,9.64.448,2.038.976,4.096,1.488,6.086,3.337,12.983,3.477,16.401,1.261,29.656-2.013,12.036-2.027,17.87-1.353,33.221,1.197,27.201-.505,52.652-8.347,81.921-.161.605.752.849.914.245,7.936-29.622,9.565-55.191,8.378-82.207-.654-14.878-.72-20.699,1.341-33.024,2.242-13.408,2.089-16.948-1.278-30.048-.509-1.982-1.036-4.031-1.479-6.053-4.174-19.014-1.779-39.018,6.704-56.516,1.439,16.596,2.545,33.204,1.031,49.488-.779,8.385-.563,10.452,1.304,17.701,3.037,11.788,2.506,20.431,1.169,32.957-3.151,6.298-6.164,11.305-5.073,16.339.132.612,1.057.412.925-.2-.882-4.07,1.226-8.293,3.859-13.471-.013.114-.024.222-.037.338-1.363,12.419-1.733,16.762-1.369,35.977.415,21.826-.304,41.091-5.442,65.933-.127.613.8.805.927.191,5.15-24.9,5.877-44.229,5.461-66.143-.363-19.161.004-23.477,1.363-35.855.107-.974.21-1.92.309-2.848.048-.107.052-.205.031-.295,1.334-12.528,1.86-21.245-1.208-33.158-1.846-7.164-2.044-9.131-1.278-17.377,2.301-24.661-1.415-50.116-3.198-75.114,6.538,14.805,8.584,31.068,8.584,47.642-.026.036-.053.072-.068.116-.898,2.648-1.747,5.357-2.524,8.051-.173.601.736.864.909.262.709-2.459,1.257-4.185,1.66-5.417-.149,10.371-1.032,20.836-2.062,31.116-.062.624.879.718.942.094,2.044-20.41,3.521-41.551-.197-61.288,3.512,5.264,3.843,7.188,4.294,11.301l1.291,11.828c.067.623,1.009.52.941-.103l-1.291-11.828c-.505-4.62-.886-6.669-5.607-13.422-.026-.037-.058-.058-.088-.085-1.518-7.211-3.764-14.22-6.967-20.923-.442-6.743-.72-13.449-.682-20.094,1.231,2.888,2.696,6.318,4.447,10.433.245.576,1.116.205.871-.371-2.144-5.037-3.86-9.046-5.251-12.306,3.28-6.243,8.464-11.502,17.121-21.56,2.172-2.523,4.418-5.129,6.714-7.742l.082,4.581c-.191-.116-.451-.116-.623.124-6.927,9.709-15.549,21.792-15.959,35.74-.07,2.4.06,4.423.544,8.819-.073.138-.084.309.038.478.006.009.012.019.019.028.333,2.986.819,7.022,1.5,12.881.072.622,1.012.512.94-.11-.554-4.762-.973-8.301-1.287-11.035,2.749,4.445,4.419,9.617,4.635,14.481.028.626.973.584.946-.042-.249-5.606-2.369-11.598-5.814-16.5-.532-4.794-.643-6.602-.573-8.973.399-13.573,8.821-25.459,15.651-35.032l.393,21.82c.006.319.319.505.482.464.261-.004.469-.22.464-.482l-.246-13.646c6.073,7.325,5.262,9.113,4.404,18.196-.059.624.883.712.942.088.904-9.577,1.758-11.407-5.299-19.707-.023-.027-.049-.039-.074-.059l-.101-5.601c6.679,9.383,14.502,20.886,14.886,33.957.071,2.405-.068,4.463-.568,8.964-3.449,4.904-5.571,10.9-5.82,16.509-.028.626.918.668.946.042.216-4.867,1.888-10.042,4.641-14.489-.318,2.76-.741,6.304-1.292,11.043-.073.622.867.732.94.11.683-5.871,1.166-9.908,1.497-12.877.008-.011.014-.022.022-.033.123-.171.111-.344.035-.483.495-4.499.616-6.434.546-8.814-.408-13.884-8.951-25.918-15.862-35.604l-.076-4.196c4.427,5.053,8.686,10.096,13.191,15.211,4.612,5.237,7.852,9.274,10.079,13.445-1.386,3.251-3.1,7.257-5.248,12.306-.245.577.626.945.871.371,1.762-4.14,3.231-7.58,4.469-10.481.041,6.651-.236,13.357-.681,20.089-3.216,6.719-5.469,13.745-6.991,20.975-.03.027-.062.048-.089.085-5.996,8.581-5.087,8.658-6.897,25.25-.068.623.874.726.941.103,1.682-15.411,1.005-16.38,5.589-23.152-3.723,19.744-2.245,40.892-.201,61.31.063.624,1.005.529.942-.094-1.03-10.289-1.914-20.763-2.062-31.143,1.815,5.61,1.54,5.787,2.115,5.787.315,0,.542-.302.455-.605-.776-2.692-1.625-5.4-2.523-8.051-.016-.048-.043-.081-.068-.117,0-16.593,2.05-32.873,8.606-47.692-1.773,24.65-5.464,49.611-3.368,73.536.324,3.706.804,7.573.436,11.323-.384,3.912-1.696,7.771-2.53,11.648-2.057,9.563-1.285,19.401-.243,29.189-.022.093-.02.195.032.306.52,4.859,1.099,9.705,1.427,14.498,1.692,24.738-3.296,46.827,5.705,90.342.127.613,1.053.422.927-.191-8.89-42.978-4.015-65.769-5.688-90.215-.273-3.989-.72-8.014-1.161-12.048,2.503,4.88,4.762,9.328,3.861,13.488-.133.612.793.812.925.2,1.082-4.993-1.863-9.922-5.072-16.338-1.042-9.769-1.823-19.565.213-29.031.837-3.889,2.152-7.739,2.546-11.754.377-3.838-.103-7.71-.435-11.498-1.373-15.678-.261-31.748,1.172-47.878,8.488,17.501,10.886,37.51,6.711,56.53-1.513,6.89-3.903,13.766-4.218,20.894-.329,7.441,1.614,14.782,2.511,22.104,1.38,11.272.299,22.881-.022,34.17-.713,25.027,2.211,49.979,8.69,74.163.162.605,1.076.36.914-.245-6.456-24.096-9.369-48.957-8.658-73.891.321-11.294,1.408-22.943.015-34.312-.894-7.302-2.828-14.639-2.504-21.948.31-7.002,2.688-13.859,4.197-20.733.704-3.207,1.204-6.443,1.542-9.689,3.838,3.736,6.544,9.195,8.229,16.695.732,3.259,1.222,6.551,1.537,9.862-.052.05-.096.113-.124.198-8.906,27.155-12.375,56.562-10.031,85.044.051.625.995.547.943-.078-2.281-27.719.982-56.314,9.412-82.839.848,12.131-.612,24.5-2.036,36.563-1.775,15.022-2.454,21.318-3.291,48.969-.488,16.182.163,16.904,6.478,42.696.149.608,1.068.384.92-.225-6.277-25.636-6.938-26.316-6.451-42.442.835-27.66,1.524-33.985,3.285-48.886,1.915-16.216,3.896-32.983.282-49.069-1.803-8.028-4.759-13.811-9.022-17.687,1.47-16.323-1.648-32.886-9.1-47.601-.012-.024-.03-.036-.044-.057.788-8.747,1.646-17.508,2.23-26.23.063-.131.121-.264.185-.395.115-.234.03-.437-.123-.56.419-6.474.677-12.924.638-19.331,2.922,6.605,3.543,14.091,3.159,27.444-.051,1.783-.102,3.578-.127,5.376-.203.104-.34.335-.215.61.066.145.139.29.205.435-.051,7.148.41,14.305,3.119,20.886.239.579,1.114.219.875-.361-2.395-5.816-2.993-12.143-3.048-18.522,1.415,3.011,2.883,6.013,4.423,8.947.121.231.408.321.639.199.797-.419-.129-.58-5.06-11.338.017-2.073.075-4.147.134-6.204.425-14.763-.39-22.497-4.125-29.707,4.343-10.189,5.363-12.716,6.328-16.329.943-3.53,1.389-7.229,1.508-10.969,1.169,4.072,2.024,8.236,2.531,12.451,1.895,15.764-.688,32.727,5.886,47.368.256.57,1.119.182.863-.388-6.465-14.397-3.917-31.345-5.809-47.093-.633-5.266-1.801-10.454-3.448-15.485-.131-8.335-1.715-16.704-3.166-23.729,3.573,4.822,6.685,10.258,8.727,16.266,8.875,26.103,7.94,42.607,7.93,42.771-.041.625.904.686.944.061.011-.165.963-16.838-7.978-43.136-2.306-6.783-5.948-12.848-10.087-18.127-.042-.119-.112-.207-.203-.255-4.458-5.637-9.469-10.365-14.019-14.079.053-3.605.082-7.218.112-10.83,9.68,8.155,20.026,20.264,24.087,25.354.386.481,1.133-.099.74-.591-.757-.949-13.099-16.332-24.815-26.004.026-3.519.034-7.041.038-10.565,8.851,7.368,17.998,17.849,21.491,22.187.396.421,1.068-.159.68-.625-.688-.827-11.516-14.004-22.169-22.74,0-3.575-.01-7.151-.031-10.729,8.021,6.559,16.028,15.506,18.974,19.121.406.361,1.005-.22.621-.66-.619-.709-10.014-11.807-19.603-19.566-.025-3.633-.055-7.266-.104-10.9,7.195,5.736,14.117,13.228,16.54,16.153.416.301.942-.281.561-.695-.549-.597-8.59-9.755-17.118-16.508-.052-3.691-.104-7.382-.181-11.072,6.375,4.904,12.267,11.035,14.191,13.302.426.241.88-.342.501-.729-.479-.491-7.246-7.832-14.717-13.556-.08-3.757-.176-7.512-.282-11.267,5.57,4.073,10.499,8.933,11.951,10.579.436.18.819-.404.442-.764-.41-.392-5.989-6.073-12.417-10.759-.109-3.814-.24-7.626-.376-11.436,4.779,3.248,8.798,6.928,9.805,7.986.446.12.76-.468.382-.798-.342-.299-4.818-4.477-10.219-8.13-.14-3.863-.297-7.721-.464-11.577,4.001,2.436,7.167,5.023,7.754,5.532.457.06.703-.535.323-.833-.274-.214-3.729-3.051-8.119-5.689-.171-3.897-.356-7.789-.555-11.678,3.234,1.642,5.606,3.226,5.805,3.226.467,0,.651-.609.263-.867-.208-.138-2.731-1.803-6.125-3.464-.127-2.455-.243-4.914-.381-7.364,7.095,1.649,12.675,3.797,17.698,5.831.004.002.005.005.009.007.135.067,13.583,6.865,18.752,17.203,2.934,5.867,4.061,13.046,5.046,20.701-.577,3.896-2.071,15.395-1.206,24.912,1.069,11.752,7.783,25.85,9.549,37.15,1.75,11.199,5.273,27.092,5.308,27.252.136.611,1.06.406.924-.206-.035-.159-3.552-16.024-5.297-27.192-1.776-11.37-8.487-25.49-9.541-37.089-.669-7.36.09-15.932.727-21.171,1.494,11.79,1.901,13.096,6.366,31.081,2.588,10.426,5.522,22.243,8.234,35.128,4.588,21.793,9.28,38.708,12.244,44.143,3.11,5.7,4.708,13.574,4.724,13.653.124.614,1.051.429.928-.185-.016-.08-1.642-8.093-4.821-13.921-2.924-5.36-7.579-22.175-12.149-43.885-2.716-12.901-5.652-24.727-8.242-35.16-4.563-18.384-4.861-19.168-6.473-31.982-.106-.846-.213-1.682-.32-2.518.113-.756.187-1.196.191-1.22.055-.323-.177-.518-.425-.544-.953-7.122-2.132-13.79-4.921-19.368-3.223-6.446-9.54-11.53-14.043-14.55.157.061.315.125.471.185,9.073,3.501,18.454,7.12,21.182,15.779,1.066,3.382,8.051,32.523,13.466,56.037-.076.139-.089.313.036.486.039.053.074.102.112.155,1.843,8.009,3.494,15.327,4.653,20.694,2.235,10.347,2.873,23.128,5.59,33.437,2.451,9.296,3.481,20.073,6.669,29.208,1.158,3.318,2.227,6.669,3.208,10.047-.052.096-.073.212-.034.349,1.811,6.338-2.048,13.954-2.087,14.03-.286.556.556.986.841.433.127-.246,2.404-4.748,2.655-9.835,2.232,8.501,3.905,17.153,4.995,25.862.078.622,1.017.504.939-.117-1.748-13.967-4.986-27.788-9.624-41.08ZM142.461,82.637c.185.096,1.171.61,2.264,1.159-6.888-1.66-14.005-2.902-20.745-4.72-.141-.663-.326-1.318-.553-1.962,1.411.281,3.045.516,5.014.783,5.29.715,6.433.805,14.02,4.74ZM122.323,76.871c.252.621.452,1.261.611,1.914-3.334-.936-6.565-2.032-9.621-3.403-.007-1.718-.014-3.412-.022-5.074.456.098.951.253,1.467.451,2.042,3.801,3.972,5.239,7.564,6.114ZM116.2,71.393c2.284,1.137,4.622,2.875,5.579,4.359-2.561-.744-4.088-1.909-5.579-4.359ZM113.288,69.334c-.002-.554-.005-1.103-.007-1.649.011.026.023.052.035.078.287.651.563,1.24.836,1.8-.308-.096-.595-.171-.863-.229ZM113.318,76.423c3.184,1.403,6.484,2.504,9.844,3.432.281,1.557.385,3.141.47,4.628-3.131-.688-6.547-1.272-10.287-1.708-.009-2.139-.018-4.26-.027-6.352ZM121.079,68.431c1.6,1.685,2.95,4.289,6.591,8.405-1.843-.254-3.38-.488-4.666-.773-.053-.117-.096-.237-.153-.352-1.149-2.328-4.623-4.545-7.425-5.692-.399-.773-.807-1.646-1.244-2.637-.288-.653-.591-1.328-.911-2.015-.005-1.237-.011-2.449-.016-3.631,2.059,2.706,5.473,4.218,7.824,6.696ZM113.251,52.94c1.858-1.276,2.472-1.607,4.231-.754,1.908.926,4.892,7.115,3.636,7.509-2.937.672-5.307.382-7.886-3.021-.006-1.294-.011-2.535-.017-3.719.012-.007.024-.007.036-.015ZM102.624,76.607c3.499-1.056,5.232-3.196,6.619-5.871.497-.188.972-.334,1.412-.429-.007,1.662-.014,3.355-.022,5.074-3.034,1.359-6.266,2.45-9.617,3.387.158-.647.357-1.282.607-1.898.345-.084.687-.168,1-.263ZM102.171,75.748c.969-1.498,3.344-3.255,5.648-4.39-1.203,1.99-2.751,3.523-5.468,4.343-.056.017-.122.03-.179.047ZM109.828,69.545c.281-.601.556-1.223.837-1.86-.002.549-.005,1.1-.007,1.657-.266.051-.544.121-.83.204ZM110.628,76.422c-.009,2.094-.018,4.217-.026,6.358-3.462.405-6.895.972-10.288,1.716.086-1.502.191-3.104.478-4.677,3.415-.939,6.72-2.031,9.837-3.397ZM121.654,42.29c1.331-.266,2.871-.749,4.396-1.613-.006.087-.011.175-.022.261-.213,1.728-1.448,3.12-2.918,4.631-.747.768-1.593,1.638-2.637,1.978-1.434.467-5.089-.058-7.285-.474-.014-2.936-.024-5.18-.03-6.517,1.783,1.323,5.669,2.299,8.496,1.734ZM111.857,20.978c-.003.15-.006.3-.009.45-.004-.204-.008-.408-.012-.611.007.056.014.11.021.161ZM111.848,33.349c.074,2.962.213,5.212.418,6.078l-.293.091-.527-.164c.196-.912.33-3.117.402-6.005ZM105.817,47.711c-2.262.139-3.008-.112-4.982-2.142-1.47-1.511-2.705-2.903-2.918-4.631-.004-.032-.006-.073-.01-.111,1.439.774,2.88,1.212,4.134,1.463,2.965.593,7.099-.507,8.747-1.927-.006,1.307-.017,3.625-.031,6.707-.97.199-2.503.487-4.941.641ZM102.855,59.703c-1.291-.385,1.665-6.573,3.609-7.516,1.759-.854,2.373-.524,4.231.754.012.008.024.008.035.015-.005,1.184-.011,2.425-.017,3.719-2.579,3.402-4.948,3.692-7.859,3.028ZM106.38,65.548c1.556-1.128,3.151-2.286,4.312-3.805-.005,1.178-.01,2.384-.016,3.616-.775,1.664-1.406,3.228-2.103,4.624-3.023,1.217-6.471,3.69-7.477,5.728-.056.114-.099.232-.151.347-1.417.314-3.05.556-4.671.779,5.722-6.428,4.287-7.068,10.106-11.289ZM79.14,83.833c3.424-1.774,8.762-4.638,12.359-5.328,2.505-.481,6.088-.807,9.021-1.393-.225.639-.41,1.289-.55,1.946-6.732,1.81-13.892,3.08-20.829,4.775ZM100.262,85.472c3.408-.756,6.858-1.327,10.336-1.738-.008,1.947-.016,3.905-.024,5.86-3.436.043-7.376,1.446-10.682,2.982.123-2.368.236-4.74.369-7.104ZM99.836,93.653c3.256-1.579,7.197-3.066,10.734-3.111,0,.267-.002.533-.003.8-2.551.814-5.225,2.95-6.322,5.102-.284.559.561.984.844.43.936-1.837,3.259-3.728,5.474-4.531-.012,3.005-.023,5.977-.034,8.904-3.49.085-7.614,1.87-11.245,3.943.17-3.85.355-7.695.553-11.537ZM99.234,106.345c3.611-2.147,7.766-4.06,11.291-4.151-.001.391-.003.793-.004,1.182-2.538.826-5.186,2.949-6.276,5.087-.282.556.56.985.844.43.929-1.824,3.227-3.703,5.429-4.516-.011,2.939-.021,5.794-.029,8.526-3.534.141-7.802,2.229-11.712,4.756.138-3.775.294-7.545.458-11.314ZM98.735,118.852c3.906-2.613,8.218-4.848,11.75-5-.002.521-.003,1.047-.005,1.558-2.525.836-5.151,2.946-6.235,5.073-.284.559.561.984.844.43.923-1.813,3.199-3.681,5.388-4.502-.009,2.928-.016,5.659-.022,8.15-3.567.21-7.946,2.539-12.092,5.441.108-3.719.239-7.435.372-11.15ZM98.333,131.197c4.148-2.992,8.576-5.467,12.12-5.686-.001.657-.003,1.313-.004,1.931-2.515.843-5.124,2.944-6.203,5.062-.282.556.56.985.844.43.919-1.804,3.178-3.664,5.358-4.491-.003,2.016-.005,3.797-.005,5.278,0,.775-.003,1.614-.009,2.498-3.586.272-8.043,2.773-12.377,5.973.08-3.666.174-7.33.278-10.994ZM98.025,143.397c4.339-3.292,8.848-5.941,12.401-6.228-.006.741-.012,1.504-.021,2.307-2.502.853-5.086,2.942-6.159,5.047-.284.559.561.984.844.43.912-1.79,3.141-3.636,5.305-4.473-.027,2.269-.065,4.766-.11,7.415-3.57.375-8.016,2.968-12.44,6.354.052-3.617.105-7.235.181-10.852ZM97.824,155.465c4.423-3.471,8.912-6.211,12.444-6.62-.015.89-.031,1.792-.048,2.715-2.443.891-4.928,2.93-5.974,4.983-.284.559.561.984.844.43.885-1.736,3.011-3.532,5.112-4.402-.042,2.262-.088,4.616-.135,7.023-3.53.505-7.908,3.121-12.349,6.601.026-3.576.058-7.152.107-10.729ZM97.707,167.412c4.436-3.561,8.846-6.315,12.34-6.86-.021,1.027-.041,2.063-.062,3.108-2.366.934-4.726,2.916-5.74,4.903-.282.556.56.985.844.43.851-1.671,2.853-3.387,4.875-4.291-.044,2.174-.088,4.38-.132,6.597-3.473.629-7.753,3.245-12.16,6.746,0-3.543.012-7.086.036-10.632ZM97.673,179.263c4.398-3.582,8.7-6.321,12.139-6.995-.023,1.171-.047,2.34-.069,3.513-2.282.969-4.519,2.882-5.498,4.802-.284.559.561.984.844.43.818-1.605,2.696-3.248,4.634-4.177-.04,2.067-.078,4.125-.116,6.171-3.402.736-7.566,3.317-11.901,6.786-.024-3.507-.031-7.017-.033-10.529ZM109.589,183.986c-.024,1.312-.047,2.627-.069,3.919-2.204.997-4.328,2.84-5.275,4.697-.282.556.56.985.844.43.787-1.543,2.555-3.127,4.414-4.073-.027,1.644-.052,3.266-.076,4.858-2.212,1.304-6.561,4.034-11.602,8.055-.052-3.615-.079-7.237-.107-10.859,4.323-3.549,8.499-6.243,11.871-7.027ZM109.517,221.66c-7.179,4.065-13.207,10.248-17.086,17.528,1.258-4.494,2.82-8.935,4.75-13.312,3.407-7.732,7.393-13.518,12.108-17.563-.014,5.857.048,10.557.229,13.346ZM83.53,217.388c4.24-5.382,8.998-9.93,13.374-13.553.017,1.102.023,2.207.042,3.308.006.315.318.506.481.465.261-.004.47-.22.465-.481-.024-1.35-.032-2.706-.052-4.057,4.875-3.942,9.173-6.705,11.571-8.144-.03,2.122-.055,4.186-.075,6.172-13.312,9.634-23.545,23.35-29.245,38.739.45-8.013,2.078-15.921,3.439-22.45ZM86.996,271.137c-3.519-8.264-4.607-11.008-5.515-14.409-1.17-4.378-1.565-9.034-1.501-13.712,5.313-16.144,15.65-30.63,29.344-40.73-.015,1.662-.026,3.267-.033,4.798-5.096,4.158-9.365,10.213-12.978,18.41-6.463,14.663-8.876,29.98-9.318,45.643ZM92.24,265.256c-1.703,2.134-3.109,4.096-4.297,6.124.265-9.768,1.298-19.391,3.599-28.79.161-.003.321-.08.407-.276,3.602-8.149,9.931-15.139,17.65-19.617.003.036.006.077.01.112.019.187.038.361.057.54.09,2.435.492,4.309.909,5.628.331,1.281.661,1.94.945,2.26.01.017.017.028.024.041l.022,1.208c-.085.016-.167.046-.236.109-9.804,9.006-15.142,21.442-19.071,32.419-.032.089-.032.169-.02.244ZM111.382,243.058c-2.412,2.739-4.764,5.472-7.038,8.114-4.311,5.009-7.688,8.764-10.399,12.001,8.186-21.92,15.633-27.402,17.645-29.445l.165,9.169c-.127-.009-.26.034-.372.161ZM126.634,259.278c-4.705-5.341-9.18-10.66-13.928-16.056l-.169-9.39c8.679,8.232,13.614,18.88,17.494,29.397-1.042-1.251-2.171-2.56-3.397-3.952ZM131.699,265.281c.019-.081.023-.169-.013-.268-3.928-10.977-9.266-23.413-19.071-32.419-.033-.03-.067-.043-.101-.062l-.025-1.372c.27-.344.575-.996.881-2.183.417-1.319.82-3.194.91-5.63.019-.179.038-.352.057-.539.004-.035.007-.076.01-.112,7.719,4.478,14.047,11.469,17.65,19.617.088.198.25.276.413.277,2.314,9.434,3.352,19.088,3.617,28.872-1.19-2.01-2.62-4.024-4.328-6.182ZM114.658,208.314c4.715,4.044,8.7,9.83,12.108,17.562,1.931,4.382,3.496,8.826,4.756,13.323-3.879-7.285-9.909-13.473-17.092-17.54.181-2.789.243-7.489.229-13.346ZM142.465,256.728c-.889,3.33-1.849,5.778-5.474,14.3-.458-15.576-2.892-30.859-9.36-45.534-3.612-8.197-7.881-14.252-12.978-18.41-.006-1.531-.017-3.136-.033-4.798,13.695,10.099,24.031,24.586,29.345,40.73.064,4.678-.331,9.334-1.501,13.712ZM140.416,217.385c1.361,6.529,2.99,14.438,3.44,22.452-5.7-15.389-15.933-29.105-29.245-38.739-.02-1.987-.045-4.05-.075-6.173,2.397,1.438,6.695,4.2,11.571,8.142-.02,1.352-.028,2.708-.052,4.059-.005.261.203.476.465.481.155.039.476-.146.482-.465.019-1.102.025-2.208.042-3.31,4.375,3.622,9.133,8.17,13.373,13.552ZM126.121,201.872c-5.041-4.02-9.39-6.75-11.602-8.055-.023-1.592-.048-3.214-.076-4.858,1.859.946,3.627,2.53,4.414,4.073.283.554,1.127.129.844-.43-.947-1.857-3.071-3.7-5.275-4.697-.022-1.294-.046-2.612-.069-3.926,3.346.786,7.517,3.471,11.871,7.037-.028,3.621-.055,7.242-.107,10.856ZM126.241,189.79c-4.302-3.446-8.469-6.033-11.9-6.769-.037-2.051-.076-4.114-.116-6.185,1.938.929,3.816,2.573,4.634,4.177.284.556,1.126.126.844-.43-.979-1.92-3.215-3.832-5.498-4.802-.023-1.176-.046-2.348-.07-3.521,3.418.67,7.713,3.377,12.14,6.956-.002,3.527-.008,7.052-.033,10.575ZM126.275,178.052c-4.377-3.481-8.666-6.111-12.16-6.744-.044-2.219-.089-4.429-.132-6.605,2.022.904,4.024,2.62,4.875,4.291.284.555,1.126.126.844-.43-1.013-1.987-3.374-3.969-5.74-4.903-.021-1.046-.042-2.082-.062-3.11,3.477.536,7.876,3.229,12.339,6.769.024,3.58.036,7.157.036,10.733ZM126.23,166.22c-4.417-3.464-8.808-6.111-12.349-6.623-.048-2.408-.093-4.763-.135-7.026,2.101.87,4.228,2.667,5.112,4.402.284.555,1.126.126.844-.43-1.047-2.053-3.531-4.092-5.974-4.983-.017-.922-.033-1.823-.048-2.712,3.522.398,7.997,3.05,12.442,6.481.05,3.632.083,7.261.109,10.891ZM126.103,154.287c-4.407-3.379-8.872-6.01-12.441-6.394-.045-2.648-.083-5.145-.11-7.413,2.163.838,4.393,2.684,5.305,4.473.284.555,1.125.126.844-.43-1.073-2.105-3.658-4.194-6.16-5.047-.009-.804-.015-1.569-.021-2.312,3.549.278,8.043,2.83,12.397,6.066.078,3.685.132,7.371.186,11.056ZM125.893,142.248c-4.327-3.204-8.805-5.746-12.379-6.025-.005-.886-.009-1.726-.009-2.503,0-1.481-.002-3.262-.006-5.278,2.18.827,4.439,2.688,5.358,4.491.283.554,1.127.129.844-.43-1.08-2.117-3.688-4.219-6.203-5.062-.001-.619-.003-1.275-.004-1.934,3.544.211,7.958,2.58,12.115,5.508.107,3.743.203,7.487.284,11.232ZM125.585,130.073c-4.147-2.915-8.548-5.291-12.093-5.508-.006-2.492-.013-5.224-.022-8.153,2.189.821,4.465,2.69,5.389,4.502.284.555,1.126.126.844-.43-1.084-2.126-3.71-4.237-6.235-5.073-.002-.511-.003-1.038-.005-1.56,3.532.147,7.833,2.28,11.744,4.831.137,3.796.269,7.592.38,11.391ZM125.173,117.744c-3.919-2.547-8.207-4.686-11.715-4.838-.009-2.732-.019-5.589-.03-8.529,2.202.813,4.5,2.692,5.429,4.516.284.555,1.126.126.844-.43-1.09-2.138-3.739-4.261-6.276-5.087-.001-.389-.003-.791-.004-1.182,3.517.089,7.668,1.934,11.287,4.038.167,3.835.326,7.671.466,11.511ZM124.665,105.248c-3.64-2.092-7.78-3.914-11.248-4-.011-2.928-.022-5.899-.034-8.905,2.215.803,4.539,2.694,5.475,4.531.284.555,1.126.126.844-.43-1.097-2.151-3.771-4.287-6.322-5.102,0-.267-.002-.533-.003-.8,3.503.046,7.46,1.538,10.734,3.12.198,3.858.384,7.719.554,11.585ZM113.372,89.594c-.008-1.957-.016-3.917-.024-5.866,3.784.443,7.213,1.029,10.335,1.72.134,2.372.247,4.752.37,7.128-3.305-1.536-7.246-2.94-10.682-2.982Z"/>
  <path d="M110.932,256.222c-7.036,8.277-6.2,10.163-5.299,19.707.059.624,1.001.536.942-.088-.89-9.429-1.705-11.027,5.078-19.006.405-.477-.314-1.089-.721-.613Z"/>
</svg>