<?xml version="1.0" encoding="UTF-8"?>
<svg xmlns="http://www.w3.org/2000/svg" width="300" height="200" viewBox="0 0 300 200" fill="none">
  <g clip-path="url(#clip0_2433_318)">
    <path d="M32.3066 87.4766L44.6304 112.756C44.7342 108.985 45.3886 104.888 47.1033 101.023L40.5015 87.4811H32.3066V87.4766Z" fill="currentColor"></path>
    <path d="M51.5747 58.249C28.6148 58.249 10.0005 76.9434 10.0005 100.002C10.0005 123.061 28.6148 141.755 51.5747 141.755C74.5346 141.755 93.149 123.061 93.149 100.002C93.149 76.9434 74.5346 58.249 51.5747 58.249ZM48.5242 131.046L25.0724 82.9437H43.3167L49.6569 95.9504L49.6659 95.9368L51.6334 100.002L58.6008 114.296L48.5242 131.046ZM60.8571 112.025L58.497 107.185L71.5248 85.5314C65.5231 86.7641 58.5421 91.2372 54.3996 98.7783L52.0485 93.9609C55.2344 89.2794 59.0656 86.32 61.9852 84.5706C66.5339 81.8469 71.5925 80.4239 75.8523 80.6777L79.5842 80.8998L60.8571 112.025Z" fill="currentColor"></path>
    <path d="M121.123 88.0015L125.419 92.0621C122.725 95.4701 119.151 97.1741 114.697 97.1741C112.242 97.1741 110.071 96.6303 108.181 95.5426C106.29 94.455 104.819 92.964 103.758 91.0651C102.698 89.1662 102.17 86.9863 102.17 84.5209C102.17 82.0555 102.698 79.8621 103.758 77.9405C104.819 76.019 106.285 74.5007 108.163 73.3904C110.04 72.2801 112.219 71.7227 114.697 71.7227C116.768 71.7227 118.699 72.0716 120.491 72.7741C122.282 73.4765 123.794 74.6956 125.022 76.4359L120.798 80.7141C120.125 79.7941 119.318 79.0599 118.379 78.5025C117.44 77.945 116.371 77.6686 115.166 77.6686C113.817 77.6686 112.671 77.9632 111.719 78.5569C110.766 79.1505 110.04 79.9482 109.534 80.9497C109.029 81.9513 108.776 83.0843 108.776 84.3396C108.776 85.595 109.034 86.7733 109.552 87.802C110.071 88.8308 110.811 89.633 111.773 90.2131C112.734 90.7931 113.853 91.0832 115.13 91.0832C116.551 91.0832 117.693 90.8294 118.56 90.3218C119.426 89.8142 120.279 89.0393 121.123 88.0015Z" fill="currentColor"></path>
    <path d="M138.884 97.1379C137.079 97.1379 135.414 96.8252 133.884 96.1952C132.354 95.5653 131.032 94.677 129.913 93.5304C128.794 92.3839 127.923 91.0333 127.296 89.4879C126.668 87.9425 126.357 86.2476 126.357 84.4121C126.357 82.5767 126.668 80.8817 127.296 79.3363C127.923 77.791 128.794 76.4495 129.913 75.312C131.032 74.1744 132.354 73.2952 133.884 72.6653C135.414 72.0354 137.079 71.7227 138.884 71.7227C140.689 71.7227 142.354 72.0354 143.884 72.6653C145.413 73.2952 146.74 74.1744 147.873 75.312C149.005 76.4495 149.876 77.791 150.49 79.3363C151.104 80.8817 151.411 82.5767 151.411 84.4121C151.411 86.2476 151.104 87.9425 150.49 89.4879C149.876 91.0333 149.005 92.3839 147.873 93.5304C146.74 94.677 145.413 95.5653 143.884 96.1952C142.354 96.8252 140.689 97.1379 138.884 97.1379ZM138.884 91.1194C140.161 91.1194 141.235 90.8158 142.115 90.2131C142.995 89.6103 143.663 88.7991 144.118 87.7839C144.574 86.7688 144.804 85.6448 144.804 84.4121C144.804 83.1795 144.574 82.0555 144.118 81.0404C143.663 80.0252 142.995 79.214 142.115 78.6112C141.235 78.0085 140.161 77.7048 138.884 77.7048C137.607 77.7048 136.569 78.0085 135.689 78.6112C134.809 79.214 134.137 80.0252 133.667 81.0404C133.198 82.0555 132.963 83.1795 132.963 84.4121C132.963 85.6448 133.198 86.7688 133.667 87.7839C134.137 88.7991 134.809 89.6103 135.689 90.2131C136.569 90.8158 137.634 91.1194 138.884 91.1194Z" fill="currentColor"></path>
    <path d="M154.479 96.5575L155.599 72.375H161.7L167.548 82.9254L173.288 72.375H179.425L180.544 96.5575H174.082L173.504 82.3816L169.281 90.6479H165.779L161.086 82.3816L160.617 96.5575H154.479Z" fill="currentColor"></path>
    <path d="M184.551 96.5575V72.375H194.37C196.947 72.375 199.014 73.0593 200.579 74.4234C202.145 75.7876 202.926 77.7771 202.926 80.3875C202.926 82.0326 202.565 83.4647 201.843 84.6838C201.121 85.9029 200.133 86.8455 198.883 87.5117C197.633 88.1779 196.189 88.5088 194.551 88.5088H190.796V96.5575H184.551ZM190.796 83.4692H193.829C194.695 83.4692 195.381 83.1928 195.886 82.6354C196.392 82.0779 196.644 81.3664 196.644 80.4963C196.644 79.5763 196.405 78.8421 195.922 78.2847C195.44 77.7272 194.731 77.4508 193.793 77.4508H190.796V83.4692Z" fill="currentColor"></path>
    <path d="M206.284 96.5575V72.375H212.673V90.9017H223.829V96.5575H206.284Z" fill="currentColor"></path>
    <path d="M226.897 96.5575V72.375H244.225V77.9221H233.287V81.6565H242.276V86.8773H233.287V91.0104H244.983V96.5575H226.897Z" fill="currentColor"></path>
    <path d="M248.485 96.5575V72.375H265.814V77.9221H254.875V81.6565H263.864V86.8773H254.875V91.0104H266.572V96.5575H248.485Z" fill="currentColor"></path>
    <path d="M276.03 96.5575V77.9946H268.629V72.375H289.82V77.9946H282.491V96.5575H276.03Z" fill="currentColor"></path>
    <path d="M111.484 128.282L102.17 104.1H106.033L113.361 123.968L120.689 104.1H124.336L115.022 128.282H111.484Z" fill="currentColor"></path>
    <path d="M126.609 128.282V104.1H141.772V107.181H130.075V114.215H138.884V117.333H130.075V125.164H142.638V128.282H126.609Z" fill="currentColor"></path>
    <path d="M146.068 128.282V104.1H153.757C155.801 104.1 157.44 104.449 158.667 105.151C159.894 105.853 160.779 106.746 161.32 107.834C161.862 108.922 162.133 110.046 162.133 111.206C162.133 112.751 161.772 114.12 161.05 115.303C160.328 116.485 159.208 117.369 157.692 117.949L163.324 128.282H159.425L154.263 118.384H149.425V128.282H146.068ZM149.425 115.448H154.046C155.54 115.448 156.668 115.071 157.44 114.324C158.211 113.576 158.595 112.57 158.595 111.314C158.595 109.987 158.184 108.953 157.367 108.215C156.551 107.476 155.418 107.109 153.974 107.109H149.425V115.448Z" fill="currentColor"></path>
    <path d="M165.562 128.282V125.237L180.544 107.181H166.284V104.1H184.768V107.181L169.967 125.2H185.021V128.282H165.562Z" fill="currentColor"></path>
    <path d="M188.703 128.282V104.1H203.865V107.181H192.168V114.215H200.977V117.333H192.168V125.164H204.731V128.282H188.703Z" fill="currentColor"></path>
    <path d="M208.161 128.282V104.1H211.591V115.085L221.663 104.1H225.634L216.681 113.961L226.717 128.282H222.565L214.334 116.427L211.591 119.4V128.282H208.161Z" fill="currentColor"></path>
    <path d="M229.027 128.282V104.1H244.189V107.181H232.493V114.215H241.301V117.333H232.493V125.164H245.055V128.282H229.027Z" fill="currentColor"></path>
    <path d="M248.485 128.282V104.1H256.175C258.219 104.1 259.857 104.449 261.084 105.151C262.312 105.853 263.196 106.746 263.738 107.834C264.279 108.922 264.55 110.046 264.55 111.206C264.55 112.751 264.189 114.12 263.467 115.303C262.745 116.485 261.626 117.369 260.11 117.949L265.741 128.282H261.843L256.68 118.384H251.843V128.282H248.485ZM251.843 115.448H256.464C257.957 115.448 259.085 115.071 259.857 114.324C260.629 113.576 261.012 112.57 261.012 111.314C261.012 109.987 260.602 108.953 259.785 108.215C258.968 107.476 257.835 107.109 256.391 107.109H251.843V115.448Z" fill="currentColor"></path>
    <path d="M268.882 128.282V104.1H276.933C279.482 104.1 281.739 104.53 283.702 105.387C285.665 106.243 287.203 107.567 288.322 109.357C289.442 111.147 290.001 113.44 290.001 116.245C290.001 119.051 289.442 121.199 288.322 122.989C287.203 124.779 285.656 126.107 283.684 126.977C281.712 127.847 279.446 128.282 276.897 128.282H268.882ZM272.348 125.164H276.824C279.834 125.164 282.172 124.421 283.846 122.934C285.52 121.448 286.355 119.241 286.355 116.318C286.355 113.395 285.543 111.115 283.918 109.556C282.294 107.997 279.893 107.218 276.716 107.218H272.348V125.164Z" fill="currentColor"></path>
  </g>
  <defs>
    <clipPath id="clip0_2433_318">
      <rect width="280" height="83.5014" fill="white" transform="translate(10 58.249)"></rect>
    </clipPath>
  </defs>
</svg>
