<?xml version="1.0" encoding="UTF-8"?>
<svg id="Laag_1" data-name="Laag 1" xmlns="http://www.w3.org/2000/svg" viewBox="0 0 224.449 531.631">
  <path d="M132.532,213.379c-3.54,1.514-10.903,3.123-14.814,3.912-.353,1.42-.978,2.972-.271,3.861.946,1.18,4.713-.94,6.126-.707,1.174.196,1.868,7.899,1.924,11.161,3.161.398,5.697,2.991,5.975,5.811.353,3.533-3.539,6.007-4.953,7.773-1.413,1.767-1.06,4.6-3.18,6.013-1.786,1.193-6.6,1.382-9.786,1.622.309-1.293.631-2.978.909-4.858.965-.896,3.148-.663,5.344-3.483,1.483-1.899,3.161-7.698,3.622-12.821,0,0,.385-7.918-1.502-8.858-1.887-.946-5.186.234-6.6,0-1.413-.24-.177-5.01-.177-5.01h-5.849s1.237,4.77-.177,5.01c-1.413.234-4.713-.946-6.6,0-1.886.94-1.502,8.858-1.502,8.858.461,5.123,2.139,10.922,3.622,12.821,2.196,2.82,4.379,2.587,5.344,3.483.278,1.88.599,3.565.908,4.858-3.193-.24-8-.429-9.786-1.622-2.12-1.413-1.767-4.246-3.18-6.013s-5.306-4.24-4.953-7.773c.278-2.82,2.814-5.413,5.975-5.811.057-3.262.751-10.966,1.924-11.161,1.413-.233,5.18,1.886,6.126.707.707-.89.082-2.442-.271-3.861-3.912-.789-11.275-2.398-14.815-3.912-4.947-2.126-17.591-1.924-20.771,2.675-3.18,4.593-2.473,11.843-2.12,16.442.353,4.593,7.634,4.24,8.101,10.606.227,3.016-.41,7.748,1.003,9.161,1.413,1.413,7.073,1.06,8.133,2.473,1.06,1.413-2.12,6.013.707,9.899,2.827,3.887,12.726,4.593,15.553,1.767,2.827-2.827,3.18-6.713,5.66-6.713,1.931,0,3.458.852,4.038.391.581.461,2.114-.391,4.044-.391,2.48,0,2.833,3.887,5.66,6.713,2.827,2.827,12.726,2.12,15.553-1.767,2.827-3.887-.353-8.486.707-9.899,1.06-1.413,6.719-1.06,8.133-2.473,1.413-1.413.776-6.145,1.003-9.161.467-6.366,7.748-6.013,8.101-10.606.353-4.6,1.054-11.849-2.126-16.442-3.18-4.6-15.818-4.802-20.764-2.675ZM98.991,263.223c-4.246.353-7.779-3.887-7.426-6.366.353-2.473,9.193-1.767,11.666,0,2.461,1.76,0,6.013-4.24,6.366ZM106.323,225.72c1.066-.353,3.041-1.413,4.6.177.877.89-2.827,1.767-4.24,2.473-1.42.707-1.42-2.297-.359-2.65ZM105.244,232.869c.644-2.133,2.883-2.114,3.987-2.297,1.098-.183,2.505,2.473.921,2.505-1.577.038-5.262.991-4.909-.208ZM107.212,239.128c-1.312.145.012-2.549.915-2.499.908.05,2.77-.215,3.174,1.754.221,1.104-2.782.599-4.088.745ZM109.837,244.238c-1.205.6-1.792-1.975-.902-2.309.404-.145.827-.852,2.158.505.744.757-.05,1.199-1.256,1.804ZM114.298,233.077c-1.584-.032-.177-2.688.921-2.505,1.104.183,3.344.164,3.988,2.297.353,1.199-3.331.246-4.909.208ZM113.528,225.897c1.558-1.59,3.533-.53,4.593-.177,1.066.353,1.066,3.357-.353,2.65-1.413-.707-5.117-1.584-4.24-2.473ZM113.149,238.383c.404-1.969,2.265-1.704,3.167-1.754.909-.05,2.234,2.644.921,2.499-1.306-.145-4.309.36-4.088-.745ZM113.358,242.434c1.331-1.356,1.754-.65,2.158-.505.89.334.303,2.909-.902,2.309-1.205-.606-2-1.047-1.255-1.804ZM125.459,263.223c-4.24-.353-6.701-4.606-4.24-6.366,2.473-1.767,11.313-2.473,11.666,0,.353,2.48-3.18,6.72-7.426,6.366Z"/>
  <path d="M56.522,93.847c-2.388.739-5.568-2.08-6.691.009-1.123,2.089,1.61,5.353,1.162,8.523-.448,3.17-12.23,66.482-13.4,70.161-1.17,3.679-5.458,5.143-5.563,8.677-.105,3.534,9.834,6.304,11.289,4.933,1.456-1.372-1.204-7.109-.745-10.633.458-3.523,11.285-70.401,12.387-71.783,1.102-1.382,5.837-3.958,5.907-6.314.07-2.356-2.086-4.272-4.347-3.573Z"/>
  <path d="M81.638,256.358c-4.949-2.828-6.717,3.182-9.898,3.889-3.182.707-2.475,2.475-2.828,5.303-.354,2.828,4.949,4.596,5.656,6.01.707,1.414,6.01,84.139,4.949,93.684s-8.484,13.08-7.777,16.616c.707,3.535,3.181,3.182,4.949-.354,1.768-3.535,2.828-6.363,5.656-6.363s5.303,8.485,7.424,8.838c2.121.354,3.535-1.414,3.182-5.303-.354-3.889-5.656-12.373-6.717-15.202-1.061-2.828-6.717-92.623-4.596-96.512,2.121-3.889,3.5-8.606,0-10.606Z"/>
  <path d="M81.579,377.971c-1.805.722-4.949,7.778-4.714,9.192s3.535,5.656,5.421,5.421c1.885-.236,5.892-2.593,4.478-6.835-1.414-4.242-4.006-8.249-5.185-7.778Z"/>
  <path d="M87.176,492.513c0-4.242,1.827-81.546,2.887-86.496,1.061-4.949,8.249-17.676,2.416-19.915-2.102-.807-3.653,9.192-8.602,9.899-4.949.707-9.093-7.837-10.488-4.596-1.396,3.241,4.242,10.488,6.717,12.963,2.475,2.475,2.121,87.085,2.475,91.327.354,4.242-2.828,6.01-2.828,9.192,0,1.782,2.642.447,5.038,1.12,1.881.528,3.532,3.278,4.154,3.123,5.899-1.475-1.768-10.323-1.768-16.616Z"/>
  <path d="M78.191,405.192c-.353-1.178-3.712-6.481-4.625-6.305-.8.155.177,3.182.442,4.154.265.972,4.066,94.302,3.005,97.131-1.061,2.828-2.121,4.007-1.414,4.949.707.943,4.713-3.064,4.713-5.185s-.707-3.064-.707-5.892-2.711-83.196-2.593-84.846c.118-1.65,1.532-2.828,1.178-4.007Z"/>
  <path d="M82.374,512.192c1.178.471,3.535,0,4.714-.943,1.178-.943-1.65-3.3-3.064-3.771-1.414-.471-4.949.471-4.007,2.121,0,0,1.178,2.121,2.357,2.593Z"/>
  <path d="M78.721,510.542c0-1.237-1.002-1.532-1.002-1.532-1.885.471-2.121,6.599-3.771,9.663-1.65,3.064-4.242,7.306-4.714,8.484-.471,1.179.235,2.121,1.649,1.886,1.414-.236,3.771-8.013,4.95-9.899,1.178-1.886,2.887-7.365,2.887-8.603Z"/>
  <path d="M81.019,513.282c-.177-.795-.442-.707-.884-.442-.479.287-2.121,7.247-2.475,7.777-.354.53-3.535,7.954-3.358,8.838.177.884,2.298,1.768,3.005.707.884-1.326,1.503-7.601,1.768-9.368.265-1.768,2.121-6.717,1.944-7.512Z"/>
  <path d="M82.669,514.019c-.353,1.178-1.414,7.424-1.532,9.427-.118,2.003-1.65,6.835-1.178,7.424.471.589,2.592,1.178,2.946.354.353-.825.236-5.421.353-8.131.118-2.71,1.178-8.838.825-9.192-.354-.354-1.414.118-1.414.118Z"/>
  <path d="M88.797,512.31c-.53-.707-1.944-.177-2.121.884-.211,1.269-.353,10.075-.353,12.196s-.884,5.126,0,5.656,3.712.53,3.889-.884c.177-1.414-.53-3.535-.707-5.656-.177-2.121-.177-11.49-.707-12.197Z"/>
  <path d="M91.92,510.719c-.354-.471-1.002.354-1.002.354-.707,1.944.53,10.429,1.06,13.611s0,5.833,1.414,5.656c1.414-.177,2.475-1.768,2.475-3.182s-1.237-4.419-1.768-6.01c-.53-1.591-1.827-9.957-2.18-10.429Z"/>
  <path d="M19.683,258.421c2.033.678,3.447,1.709,4.154-1.827.707-3.535-1.679-5.244-.972-8.072.707-2.828,9.191-49.493,9.545-51.261.353-1.767,4.408-2.887,4.949-6.363.541-3.477-5.656-3.535-5.656-3.535-2.475.707-1.768,2.475-1.768,4.242s-9.545,55.503-10.252,58.685c-.707,3.182-7.07,7.07-6.363,8.838.707,1.768,3.498-1.662,6.363-.707Z"/>
  <path d="M42.78,189.248c-1.061.236-3.064,0-3.3.589-.587,1.468,0,3.771,0,6.128s-11.666,56.21-12.609,57.389-2.592,3.064-2.357,4.478c.236,1.414,2.946.825,3.535,1.414.589.589,1.06-3.535,1.178-4.831.118-1.296,13.552-55.386,14.612-57.153,1.06-1.767,2.71-8.013,1.885-8.72-.825-.707-1.885.471-2.946.707Z"/>
  <path d="M16.796,262.604c1.237-.088.648-2.386-.118-2.475-2.99-.345-5.833,2.298-7.601,4.419-1.768,2.121-6.599,8.956-7.483,9.722-.884.766-1.65,1.296-1.591,1.709.059.412,1.414.589,2.003,0,.589-.589,7.483-9.074,8.661-10.37,1.179-1.296,4.89-2.917,6.128-3.005Z"/>
  <path d="M24.426,259.393c-.471.589-5.185.118-5.539.825-.307.615-.353,3.417.236,4.478.589,1.061,4.242,3.771,5.656,3.064,1.414-.707,4.949-4.831,3.182-6.481-1.767-1.65-3.064-2.475-3.535-1.885Z"/>
  <path d="M17.65,265.432c-.177-.795-1.326-1.591-1.591-1.149-.74,1.234-5.038,10.252-5.922,12.462-.884,2.21-3.181,13.788-3.005,14.76.177.972,1.149.088,1.414-.707.265-.795,2.828-11.755,4.066-14.053,1.237-2.298,5.215-10.517,5.038-11.313Z"/>
  <path d="M20.478,267.465c-.265-.442-1.237-.442-1.237-.442-1.856.972-4.242,9.457-5.214,12.638-.972,3.182-3.359,15.82-3.005,16.527s.442,1.591,1.06.177c.619-1.414,4.596-16.527,4.95-17.676.353-1.149,3.712-10.782,3.447-11.224Z"/>
  <path d="M23.218,269.233c-.353-.53-1.502-.353-1.502-.353-1.591,2.209-3.712,12.55-4.331,14.494-.619,1.944-2.828,11.843-2.651,12.55.177.707.707.884,1.06,0,.354-.884,4.066-13.169,4.773-16.174s3.005-9.987,2.651-10.517Z"/>
  <path d="M25.427,268.437c-.619.619-2.475,10.252-3.093,12.197-.619,1.944-4.065,13.964-3.977,14.936.088.972,1.149.088,1.149.088,0,0,5.303-14.494,5.303-15.378s3.005-10.959,2.209-11.843c-.795-.884-1.591,0-1.591,0Z"/>
  <path d="M163.814,92.824c3.653-.297,2.89-2.006,3.275-2.915.498-3.003.366-5.262-.738-6.221-2.89-2.498-11.786-.997-16.556-.467-4.77.53-15.376-2.006-15.376-2.006.007.017.015.04.023.058-1.618-3.288-14.945-3.769-18.586-3.769,0,0-.169.004-.404.027l.003-1.448c.926.046,2.162-.149,2.404.154.353.442,1.856.442,1.856-.619,0-.812-2.895-1.674-4.255-2.034l.004-1.802c.925.044,2.154-.148,2.395.154.353.442,1.856.442,1.856-.619,0-.81-2.882-1.67-4.246-2.032l.004-1.804c.924.042,2.146-.147,2.386.153.353.442,1.856.442,1.856-.619,0-.808-2.869-1.666-4.237-2.029l.004-1.806c.923.041,2.137-.147,2.377.153.353.442,1.856.442,1.856-.619,0-.806-2.855-1.662-4.227-2.027l.004-1.835c.934.119,2.427-.156,2.695.18.353.442,1.856.442,1.856-.619,0-.876-3.371-1.811-4.546-2.11l.002-1.125c3.447-1.092,6.901-4.398,7.449-6.868.707-3.18,2.719-10.442,3.426-12.095.53-1.237,2.114-.744,4.202-2.486.7-.58,1.817-2.385,2.208-4.24.41-1.937-2.044-1.174-1.047-4.038,1.88-5.42,1.994-11.471,1.06-14.556-1.508-4.959-9.969-10.366-20.575-10.896l-.019.101-.019-.101c-10.6.53-19.061,5.937-20.569,10.896-.934,3.085-.827,9.136,1.06,14.556.997,2.864-1.457,2.101-1.047,4.038.391,1.855,1.508,3.659,2.208,4.24,2.088,1.741,3.672,1.249,4.202,2.486.707,1.653,2.719,8.915,3.426,12.095.55,2.48,4.028,5.802,7.486,6.881l.003,1.198c-1.376.366-4.218,1.22-4.218,2.025,0,1.061,1.502,1.061,1.856.619.239-.299,1.446-.114,2.367-.153l.004,1.809c-1.372.365-4.227,1.221-4.227,2.027,0,1.061,1.502,1.061,1.856.619.24-.3,1.454-.112,2.377-.153l.004,1.806c-1.368.363-4.237,1.221-4.237,2.029,0,1.061,1.502,1.061,1.856.619.24-.301,1.462-.111,2.386-.153l.004,1.804c-1.364.362-4.246,1.222-4.246,2.032,0,1.061,1.502,1.061,1.856.619.241-.302,1.47-.11,2.395-.154l.004,1.802c-1.36.36-4.255,1.222-4.255,2.034,0,1.061,1.502,1.061,1.856.619.242-.303,1.479-.108,2.404-.154l.003,1.448c-2.731-.269-17.321.448-18.986,3.733.006-.015.013-.035.02-.05,0,0-10.606,2.536-15.376,2.006-4.77-.53-13.666-2.032-16.556.467-1.104.959-1.237,3.218-.738,6.221.385.908-.379,2.618,3.268,2.915,1.331.107,2.006,3.565,1.621,5.155-.385,1.59-1.741,2.196-1.766,3.092,3.956,11.035,10.063,23.017,10.991,24.569.643,1.075,1.72,1.884,2.775,2.472-.83.724-1.269,1.573-1.186,2.569.183,2.201,2.709,3.965,6.354,5.352-3.792,1.164-6.529,2.587-7.002,4.311-.663,2.416,1.371,5.039,4.752,6.934-.52.519-1.007,1.074-1.453,1.669-3.245,4.341-2.719,11.807-1.048,16.451-.274,6.873,1.916,13.628,4.995,13.068,3.889-.707,10.606-13.08,15.202-17.323,3.964-3.659,12.129-4.95,14.302-5.236l.007,3.367c-2.594.726-6.356,2.168-9.949,4.963-6.363,4.949-10.606,13.08-9.192,13.788,1.414.707,4.827-7.668,9.781-10.488,4.153-2.364,7.326-3.097,9.37-3.557l.013,5.913c-1.293.316-7.406,1.89-7.406,3.356,0,1.639,2.322,1.639,2.868.956.454-.568,3.172-.006,4.546-.349l.008,3.81c-1.258.307-7.423,1.889-7.423,3.36,0,1.639,2.322,1.639,2.868.956.456-.57,3.194-.001,4.563-.354l.008,3.684c-1.222.298-7.439,1.886-7.439,3.364,0,1.639,2.322,1.639,2.868.956.458-.573,3.217.003,4.58-.359l.008,3.684c-1.185.289-7.456,1.885-7.456,3.369,0,1.639,2.322,1.639,2.868.956.46-.575,3.239.008,4.596-.363l.008,3.685c-1.138.276-7.472,1.881-7.472,3.372,0,1.639,2.322,1.639,2.868.956.462-.577,3.262.013,4.613-.368l.008,3.686c-1.087.263-7.489,1.877-7.489,3.376,0,1.639,2.322,1.639,2.868.956.464-.58,3.285.018,4.629-.372l.012,5.584c.975,0,3.898,0,5.847,0l.012-5.584c1.344.39,4.165-.208,4.629.372.546.683,2.868.683,2.868-.956,0-1.5-6.402-3.113-7.489-3.376l.008-3.686c1.351.381,4.151-.21,4.613.368.546.683,2.868.683,2.868-.956,0-1.492-6.334-3.096-7.472-3.372l.008-3.685c1.357.371,4.136-.212,4.596.363.546.683,2.868.683,2.868-.956,0-1.484-6.27-3.08-7.456-3.369l.008-3.684c1.363.362,4.122-.214,4.58.359.546.683,2.868.683,2.868-.956,0-1.478-6.218-3.066-7.439-3.364l.008-3.684c1.369.353,4.107-.216,4.563.354.546.683,2.868.683,2.868-.956,0-1.472-6.166-3.053-7.423-3.36l.008-3.81c1.375.344,4.092-.219,4.547.349.546.683,2.868.683,2.868-.956,0-1.466-6.113-3.04-7.406-3.356l.013-5.913c2.044.46,5.217,1.193,9.37,3.557,4.954,2.82,8.367,11.195,9.781,10.488,1.414-.707-2.828-8.838-9.191-13.788-3.593-2.795-7.355-4.237-9.949-4.963l.007-3.367c2.173.286,10.338,1.577,14.302,5.236,4.596,4.242,11.313,16.616,15.201,17.323,3.079.56,5.269-6.195,4.996-13.068,1.672-4.645,2.197-12.11-1.048-16.451-.445-.595-.932-1.15-1.453-1.669,3.381-1.895,5.415-4.518,4.752-6.934-.473-1.725-3.21-3.148-7.002-4.311,3.645-1.386,6.171-3.15,6.354-5.352.083-.996-.356-1.844-1.185-2.568,1.055-.588,2.132-1.397,2.775-2.472.927-1.552,7.035-13.534,10.991-24.569-.025-.896-1.382-1.502-1.766-3.092-.385-1.59.284-5.048,1.615-5.155ZM81.666,146.561c3.786-2.463,8.606-4.457,12.669-4.921,4.825-.551,11.799.617,14.803.907l.003,1.485c-2.5-.098-8.909.851-15.373,2.84-4.844.444-7.335.842-12.103-.31ZM80.36,117.302c.556.194,1.156.375,1.79.545-.725.189-1.421.386-2.08.593.095-.374.192-.752.29-1.138ZM86.617,93.169c1.993,1.342,4.966,2.525,8.165,3.485-3.413.807-6.909,1.721-9.786,2.66.559-2.137,1.105-4.21,1.621-6.145ZM84.119,102.68c2.456-2.166,9.514-3.605,15.653-4.737,3.663.806,7.117,1.279,9.273,1.321l.006,2.943c-.264-.028-.458-.032-.458-.032,0,0-11.458,1.187-20.793,3.931-2.033-.355-3.567-.804-4.202-1.424.173-.669.346-1.336.519-2.002ZM109.04,96.929c-.45-.172-.954-.336-1.503-.495.599-.145,1.1-.287,1.501-.429l.002.924ZM109.056,104.363l.01,4.585c-2.98-1.145-9.784-1.554-15.657-2.133,6.34-1.346,13.163-1.733,15.647-2.452ZM109.085,117.506c-1.568-.486-4.216-.703-7.282-.818,3.239-.36,5.933-.575,7.279-.674l.003,1.492ZM109.024,89.49c-1.277-.779-2.967-1.538-4.742-2.26,1.988-.196,3.691-.428,4.736-.765l.007,3.025ZM109.03,92.158l.004,1.639c-.254-.026-.439-.03-.439-.03,0,0-2.889.521-6.876,1.351-7.27-1.417-15.538-2.714-12.509-5.535,1.041-.97,4.575-1.433,8.447-1.783,4.037,2.002,8.676,3.751,11.374,4.358ZM82.89,107.428c.159.061.322.121.488.18-.202.08-.4.161-.597.243.036-.141.073-.282.109-.423ZM81.518,112.769c1.048-1.745,3.036-3.063,5.505-4.077,7.655,1.906,18.161,2.682,22.048,2.214l.007,3.337c-2.968.18-11.761.794-19.842,2.14-4.215-.19-7.551-.609-8.203-1.714.16-.624.322-1.258.486-1.9ZM87.836,118.961c7.937,1.131,17.59,1.129,21.252.442l.011,4.913c-.704-.039-17.096-.928-27.53,1.042-5.102-2.614.714-5.048,6.267-6.397ZM109.104,126.315l.011,5.01c-2.916-.603-14.476-2.029-22.243-4.104,8.507-.941,19.545-.925,22.232-.906ZM109.121,134.589l.006,2.774c-2.557-.115-10.657-.535-18.154-1.535,5.364-.795,10.913-1.224,14.592-1.408,1.611.18,2.851.243,3.555.169ZM91.11,149.85c6.614-.408,14.775-1.914,18.039-2.556l.007,3.205c-3.377.625-13.677,2.633-16.765,4.398-3.712,2.121-13.081,11.843-14.318,11.313-.313-.134-.761-.937-1.203-2.125.143-2.215.804-4.525,2.911-6.832,3.171-3.472,7.227-5.816,11.328-7.404ZM139.454,99.315c-2.877-.939-6.373-1.853-9.787-2.66,3.199-.96,6.172-2.144,8.165-3.485.516,1.936,1.062,4.008,1.621,6.146ZM140.85,104.682c-.634.62-2.169,1.069-4.202,1.424-9.335-2.743-20.793-3.931-20.793-3.931,0,0-.194.004-.458.032l.006-2.943c2.157-.043,5.611-.515,9.273-1.321,6.14,1.132,13.199,2.572,15.654,4.738.173.665.346,1.332.519,2.001ZM115.393,104.363c2.483.719,9.307,1.106,15.646,2.452-5.872.579-12.676.988-15.656,2.133l.01-4.585ZM115.409,96.929l.002-.924c.401.142.902.284,1.501.429-.549.159-1.053.323-1.503.495ZM115.368,116.014c1.346.098,4.04.314,7.279.674-3.066.115-5.714.332-7.282.818l.003-1.492ZM115.372,114.243l.007-3.337c3.887.467,14.393-.309,22.048-2.214,2.469,1.014,4.458,2.333,5.506,4.079.164.641.326,1.274.486,1.898-.651,1.105-3.988,1.524-8.204,1.714-8.081-1.346-16.875-1.959-19.842-2.14ZM141.072,107.608c.166-.059.329-.119.488-.18.036.141.073.282.109.423-.196-.082-.396-.163-.597-.243ZM122.731,95.118c-3.987-.831-6.876-1.351-6.876-1.351,0,0-.186.004-.439.03l.003-1.639c2.698-.607,7.337-2.356,11.374-4.358,3.872.35,7.405.814,8.447,1.783,3.03,2.82-5.238,4.118-12.509,5.535ZM115.425,89.49l.006-3.025c1.045.336,2.748.568,4.736.765-1.775.722-3.464,1.481-4.742,2.26ZM115.3,147.294c3.263.642,11.425,2.147,18.039,2.556,4.101,1.588,8.157,3.933,11.328,7.404,2.107,2.307,2.768,4.617,2.911,6.831-.441,1.188-.89,1.99-1.203,2.125-1.237.53-10.606-9.192-14.318-11.313-3.088-1.765-13.389-3.773-16.765-4.398l.007-3.205ZM130.68,146.871c-6.464-1.989-12.873-2.938-15.373-2.84l.003-1.485c3.005-.29,9.979-1.458,14.803-.907,4.064.464,8.884,2.458,12.67,4.921-4.769,1.152-7.26.755-12.103.31ZM115.328,134.589c.704.074,1.945.011,3.555-.169,3.679.184,9.228.613,14.592,1.408-7.496,1-15.597,1.421-18.153,1.535l.006-2.774ZM115.346,126.315c2.687-.019,13.725-.035,22.232.906-7.767,2.075-19.327,3.501-22.243,4.104l.011-5.01ZM115.35,124.316l.011-4.913c3.662.687,13.315.689,21.252-.442,5.543,1.346,11.373,3.781,6.267,6.397-10.434-1.971-26.828-1.082-27.53-1.042ZM142.3,117.847c.634-.17,1.234-.351,1.791-.545.098.386.195.764.29,1.138-.66-.207-1.355-.405-2.081-.593ZM134.51,81.454c.299.815.824,2.584,1.494,4.983-1.453-.394-3.176-.719-4.998-.989,2.312-1.49,3.799-2.933,3.505-3.995ZM129.643,82.277c.993.621-.751,1.519-3.427,2.595-1.885-.183-9.463-.755-10.78-.622l.01-4.447c3.229,1.2,11.657.887,14.197,2.474ZM116.878,23.023c2.492-4.12,10.19,1.981,9.71,4.618-.479,2.644-5.388,3.887-7.565,2.423-2.17-1.464-3.066-5.521-2.145-7.041ZM112.48,30.815c1.962.115,3.582,3.755,3.148,4.865-.385.978-1.931-.631-3.148-1.054-1.224.417-2.776,2.038-3.155,1.054-.437-1.121,1.168-4.748,3.155-4.865ZM98.221,27.642c-.479-2.637,7.218-8.738,9.71-4.618.921,1.52.025,5.577-2.145,7.041-2.177,1.464-7.085.221-7.565-2.423ZM107.9,44.015c-.53,1.06-.379,2.959-1.319,3.199-.946.234-1.861-1.842-2.391-2.909-.53-1.06-4.006-8.72,1.237-5.477.953.587.883,2.473,1.943,3.003.896.448,4.107.77,5.073.858.972-.088,4.177-.41,5.079-.858,1.06-.53.99-2.416,1.943-3.003,5.243-3.243,1.767,4.417,1.237,5.477-.53,1.066-1.451,3.142-2.391,2.909-.94-.24-.789-2.139-1.319-3.199-.473-.946-3.514-.025-4.549-.271-1.028.246-4.069-.675-4.543.271ZM94.807,82.277c2.539-1.587,10.967-1.274,14.197-2.474l.01,4.447c-1.294-.13-8.459.397-10.78.622-2.676-1.076-4.42-1.975-3.427-2.595ZM93.443,85.448c-1.822.269-3.545.595-4.998.988.669-2.395,1.192-4.161,1.492-4.978-.289,1.061,1.197,2.502,3.506,3.99ZM64.403,86.811c-2,.593-3.413-.467-3.18-1.767.234-1.293,3.653-1.413,6.126-1.06,0,0,4.006.24,4.953.827.94.587-5.893,1.413-7.899,2ZM76.482,131.034c-.271-1.193,1.344-2.085,3.986-2.754,4.411,1.817,10.317,3.41,15.673,4.544-3.822.484-7.949,1.116-11.678,1.92-4.358-.917-7.622-2.126-7.982-3.71ZM75.127,141.817c.593-1.942,3.904-3.416,8.261-4.522,9.601,2.572,22.838,3.316,25.746,2.893v.558c-3.208-.406-20.602-2.206-30.178,4.989-2.54-.969-4.315-2.324-3.828-3.917ZM76.836,150.655c.653-.791,1.484-1.588,2.439-2.365,2.006.82,4.307,1.392,6.714,1.587-1.751.854-3.364,1.8-4.734,2.84-1.728,1.312-4.646,4.878-5.574,6.729-.521-3.236-.472-6.822,1.155-8.791ZM94.748,159.139c-5.185,3.535-11.077,13.08-13.08,15.555-2.003,2.475-4.714-.236-4.596-4.124.013-.437.001-.887-.02-1.344,3.219,2.141,9.152-9.038,16.754-12.561,5.639-2.613,12.56-3.728,15.355-4.094l.004,1.932c-3.031.264-10.268,1.808-14.417,4.637ZM142.782,174.694c-2.003-2.475-7.895-12.02-13.08-15.555-4.149-2.829-11.386-4.373-14.417-4.637l.004-1.932c2.795.366,9.717,1.481,15.356,4.094,7.625,3.533,13.522,14.709,16.754,12.561-.022.457-.034.907-.02,1.344.118,3.889-2.592,6.599-4.596,4.124ZM147.613,150.655c1.627,1.969,1.676,5.556,1.155,8.791-.927-1.851-3.846-5.416-5.574-6.729-1.37-1.04-2.983-1.986-4.734-2.84,2.407-.195,4.708-.766,6.714-1.587.954.777,1.785,1.574,2.439,2.365ZM149.322,141.817c.487,1.593-1.288,2.948-3.828,3.917-9.576-7.195-26.971-5.395-30.179-4.989v-.558c2.909.424,16.146-.32,25.747-2.893,4.357,1.106,7.667,2.581,8.261,4.522ZM147.967,131.034c-.36,1.584-3.624,2.793-7.982,3.71-3.728-.803-7.855-1.436-11.678-1.92,5.357-1.135,11.262-2.727,15.673-4.544,2.643.669,4.258,1.561,3.986,2.754ZM160.047,86.811c-2.006-.587-8.84-1.413-7.899-2,.946-.587,4.953-.827,4.953-.827,2.473-.353,5.893-.233,6.126,1.06.234,1.3-1.18,2.36-3.18,1.767Z"/>
  <path d="M181.13,186.149c1.455,1.372,11.394-1.399,11.289-4.933-.105-3.534-4.392-4.998-5.563-8.677-1.17-3.679-12.952-66.992-13.4-70.161-.448-3.17,2.285-6.434,1.162-8.523s-4.303.73-6.691-.009c-2.261-.699-4.417,1.217-4.347,3.573.07,2.356,4.805,4.932,5.907,6.314,1.102,1.382,11.929,68.26,12.387,71.783.458,3.523-2.201,9.261-.745,10.633Z"/>
  <path d="M152.71,260.247c-3.182-.707-4.949-6.717-9.899-3.889-3.5,2-2.121,6.717,0,10.606,2.121,3.889-3.535,93.684-4.596,96.512-1.061,2.828-6.363,11.313-6.717,15.202-.353,3.889,1.06,5.656,3.182,5.303,2.121-.353,4.596-8.838,7.424-8.838s3.889,2.828,5.656,6.363c1.768,3.535,4.242,3.889,4.949.354.707-3.535-6.717-7.07-7.778-16.616-1.061-9.545,4.242-92.27,4.949-93.684.707-1.414,6.01-3.182,5.656-6.01-.354-2.828.353-4.596-2.828-5.303Z"/>
  <path d="M142.163,392.583c1.885.236,5.185-4.007,5.421-5.421.236-1.414-2.909-8.47-4.714-9.192-1.178-.471-3.771,3.535-5.185,7.778-1.414,4.242,2.593,6.599,4.478,6.835Z"/>
  <path d="M139.659,506.005c2.395-.673,5.038.663,5.038-1.12,0-3.182-3.182-4.949-2.828-9.192.353-4.242,0-88.852,2.475-91.327,2.475-2.475,8.112-9.722,6.717-12.963-1.396-3.241-5.539,5.303-10.488,4.596-4.949-.707-6.501-10.705-8.602-9.899-5.833,2.239,1.355,14.966,2.416,19.915,1.06,4.949,2.887,82.253,2.887,86.496,0,6.29-7.69,15.135-1.768,16.616.622.156,2.273-2.594,4.154-3.123Z"/>
  <path d="M150.884,398.888c-.913-.177-4.272,5.126-4.625,6.305-.353,1.178,1.06,2.357,1.178,4.007.118,1.65-2.593,82.018-2.593,84.846s-.707,3.771-.707,5.892,4.007,6.128,4.714,5.185c.707-.943-.354-2.121-1.414-4.949-1.061-2.828,2.74-96.159,3.005-97.131.265-.972,1.242-3.999.442-4.154Z"/>
  <path d="M140.425,507.478c-1.414.471-4.242,2.828-3.064,3.771,1.178.943,3.535,1.414,4.714.943,1.178-.471,2.357-2.593,2.357-2.593.943-1.65-2.592-2.593-4.006-2.121Z"/>
  <path d="M150.501,518.673c-1.65-3.064-1.885-9.192-3.771-9.663,0,0-1.002.294-1.002,1.532s1.709,6.717,2.887,8.603c1.178,1.885,3.535,9.663,4.949,9.899,1.414.236,2.121-.707,1.65-1.886-.471-1.178-3.064-5.421-4.714-8.484Z"/>
  <path d="M144.314,512.84c-.442-.265-.707-.354-.884.442-.177.796,1.679,5.745,1.944,7.512.265,1.768.884,8.043,1.767,9.368.707,1.061,2.828.177,3.005-.707.177-.884-3.005-8.308-3.358-8.838-.354-.53-1.995-7.49-2.475-7.777Z"/>
  <path d="M141.78,514.019s-1.06-.471-1.414-.118c-.353.354.707,6.481.825,9.192.118,2.71,0,7.306.353,8.131s2.475.236,2.946-.354c.471-.589-1.06-5.421-1.178-7.424-.118-2.003-1.178-8.249-1.532-9.427Z"/>
  <path d="M137.774,513.194c-.177-1.061-1.591-1.591-2.121-.884-.53.707-.53,10.075-.707,12.197-.177,2.121-.884,4.242-.707,5.656.177,1.414,3.005,1.414,3.889.884s0-3.535,0-5.656-.142-10.927-.354-12.196Z"/>
  <path d="M132.53,510.719c-.354.471-1.65,8.838-2.18,10.429-.53,1.591-1.768,4.596-1.768,6.01s1.061,3.005,2.475,3.182c1.414.177.884-2.475,1.414-5.656.53-3.182,1.768-11.666,1.061-13.611,0,0-.648-.825-1.002-.354Z"/>
  <path d="M187.09,190.897c.541,3.477,4.596,4.596,4.949,6.363.353,1.768,8.838,48.433,9.545,51.261.707,2.828-1.679,4.537-.972,8.072.707,3.535,2.121,2.504,4.154,1.827,2.866-.955,5.656,2.475,6.363.707.707-1.768-5.656-5.656-6.363-8.838-.707-3.182-10.252-56.917-10.252-58.685s.707-3.535-1.768-4.242c0,0-6.197.059-5.656,3.535Z"/>
  <path d="M196.4,259.246c.589-.589,3.299,0,3.535-1.414.236-1.414-1.414-3.299-2.357-4.478-.943-1.178-12.609-55.032-12.609-57.389s.587-4.66,0-6.128c-.236-.589-2.239-.353-3.3-.589-1.061-.236-2.121-1.414-2.946-.707-.825.707.825,6.953,1.885,8.72,1.061,1.768,14.495,55.857,14.613,57.153.118,1.296.589,5.421,1.178,4.831Z"/>
  <path d="M199.67,267.76c1.414.707,5.067-2.003,5.656-3.064.589-1.06.543-3.863.236-4.478-.353-.707-5.067-.236-5.538-.825-.471-.589-1.768.236-3.535,1.885-1.768,1.65,1.767,5.774,3.182,6.481Z"/>
  <path d="M207.772,260.129c2.99-.345,5.833,2.298,7.601,4.419,1.768,2.121,6.599,8.956,7.483,9.722.884.766,1.65,1.296,1.591,1.709-.059.413-1.414.589-2.003,0-.589-.589-7.483-9.074-8.661-10.37-1.178-1.296-4.89-2.917-6.128-3.005-1.237-.088-.648-2.386.118-2.475Z"/>
  <path d="M208.39,264.283c.74,1.234,5.038,10.252,5.922,12.462.884,2.21,3.182,13.787,3.005,14.76-.177.972-1.149.088-1.414-.707-.265-.795-2.828-11.755-4.066-14.053s-5.214-10.517-5.038-11.313c.177-.795,1.326-1.591,1.591-1.149Z"/>
  <path d="M210.423,279.661c-.972-3.182-3.358-11.666-5.214-12.638,0,0-.972,0-1.237.442-.265.442,3.093,10.075,3.447,11.224.354,1.149,4.331,16.262,4.949,17.676.619,1.414.707.53,1.061-.177.353-.707-2.033-13.345-3.005-16.527Z"/>
  <path d="M202.734,268.879s-1.149-.177-1.502.353,1.944,7.512,2.651,10.517c.707,3.005,4.419,15.29,4.772,16.174.354.884.884.707,1.061,0,.177-.707-2.033-10.606-2.652-12.55-.619-1.944-2.74-12.285-4.331-14.494Z"/>
  <path d="M199.022,268.437s-.795-.884-1.591,0c-.795.884,2.209,10.959,2.209,11.843s5.303,15.378,5.303,15.378c0,0,1.061.884,1.149-.088s-3.358-12.992-3.977-14.936c-.619-1.944-2.475-11.578-3.093-12.197Z"/>
</svg>