<?xml version="1.0" encoding="UTF-8"?>
<svg xmlns="http://www.w3.org/2000/svg" width="300" height="200" viewBox="0 0 300 200" fill="none">
  <g clip-path="url(#clip0_2433_767)">
    <path d="M120.44 97.7032C120.079 97.7032 119.831 97.5792 119.685 97.3258C119.54 97.0724 119.47 96.8028 119.47 96.517C119.507 95.9077 119.648 95.5627 119.901 95.4926C120.154 95.4225 120.456 95.3847 120.818 95.3847C121.966 95.3847 122.775 95.1799 123.244 94.7647C123.713 94.3495 124.01 93.8319 124.134 93.2011C124.258 92.5702 124.322 91.9178 124.322 91.2331V69.8276C124.322 69.1428 124.258 68.4904 124.134 67.8596C124.01 67.2287 123.713 66.7111 123.244 66.296C122.775 65.8808 121.966 65.6759 120.818 65.6759C120.456 65.6759 120.154 65.6382 119.901 65.5681C119.648 65.498 119.507 65.1529 119.47 64.5436C119.47 64.2579 119.54 63.9883 119.685 63.7348C119.831 63.4814 120.079 63.3574 120.44 63.3574C121.589 63.3952 122.667 63.4275 123.675 63.4653C124.684 63.503 125.724 63.5192 126.803 63.5192C128.997 63.5192 131.24 63.4653 133.542 63.3574C133.904 63.3574 134.152 63.4814 134.297 63.7348C134.443 63.9883 134.513 64.2579 134.513 64.5436C134.475 65.1529 134.34 65.498 134.108 65.5681C133.877 65.6382 133.559 65.6759 133.165 65.6759C132.049 65.6759 131.251 65.8808 130.766 66.296C130.28 66.7111 129.984 67.2287 129.876 67.8596C129.768 68.4904 129.698 69.1428 129.66 69.8276V79.3711H146.591V69.8276C146.591 69.1428 146.526 68.4904 146.402 67.8596C146.278 67.2287 145.981 66.7111 145.512 66.296C145.043 65.8808 144.234 65.6759 143.086 65.6759C142.725 65.6759 142.412 65.6382 142.142 65.5681C141.873 65.498 141.722 65.1529 141.684 64.5436C141.684 64.2579 141.765 63.9883 141.927 63.7348C142.088 63.4814 142.331 63.3574 142.654 63.3574C144.989 63.4653 147.238 63.5192 149.394 63.5192C150.473 63.5192 151.524 63.503 152.548 63.4653C153.573 63.4275 154.662 63.3952 155.81 63.3574C156.134 63.3574 156.377 63.4814 156.538 63.7348C156.7 63.9883 156.781 64.2579 156.781 64.5436C156.743 65.1529 156.603 65.498 156.35 65.5681C156.096 65.6382 155.794 65.6759 155.433 65.6759C154.317 65.6759 153.508 65.8808 153.007 66.296C152.505 66.7111 152.198 67.2287 152.09 67.8596C151.982 68.4904 151.912 69.1428 151.874 69.8276V91.2331C151.912 91.9178 151.982 92.5702 152.09 93.2011C152.198 93.8319 152.505 94.3495 153.007 94.7647C153.508 95.1799 154.317 95.3847 155.433 95.3847C155.794 95.3847 156.096 95.4225 156.35 95.4926C156.603 95.5627 156.743 95.9077 156.781 96.517C156.781 96.8028 156.7 97.0724 156.538 97.3258C156.377 97.5792 156.134 97.7032 155.81 97.7032C154.662 97.6331 153.562 97.5846 152.521 97.5684C151.481 97.5522 150.419 97.5415 149.34 97.5415C147.221 97.5415 144.989 97.5954 142.654 97.7032C142.331 97.7032 142.088 97.5792 141.927 97.3258C141.765 97.0724 141.684 96.8028 141.684 96.517C141.722 95.9077 141.873 95.5627 142.142 95.4926C142.412 95.4225 142.725 95.3847 143.086 95.3847C144.234 95.3847 145.043 95.1799 145.512 94.7647C145.981 94.3495 146.278 93.8319 146.402 93.2011C146.526 92.5702 146.591 91.9178 146.591 91.2331V81.6896H129.66V91.2331C129.698 91.9178 129.768 92.5702 129.876 93.2011C129.984 93.8319 130.28 94.3495 130.766 94.7647C131.251 95.1799 132.049 95.3847 133.165 95.3847C133.559 95.3847 133.877 95.4225 134.108 95.4926C134.34 95.5627 134.475 95.9077 134.513 96.517C134.513 96.8028 134.443 97.0724 134.297 97.3258C134.152 97.5792 133.904 97.7032 133.542 97.7032C131.24 97.5954 129.013 97.5415 126.856 97.5415C125.778 97.5415 124.727 97.5522 123.702 97.5684C122.678 97.5846 121.589 97.6331 120.44 97.7032Z" fill="currentColor"></path>
    <path d="M173.495 98.6185C170.869 98.6185 168.497 98.1332 166.378 97.1627C164.259 96.1921 162.442 94.8819 160.932 93.2267C159.423 91.5714 158.274 89.695 157.482 87.5922C156.689 85.4894 156.295 83.2896 156.295 80.9873C156.295 78.0056 156.808 75.3636 157.832 73.0613C158.857 70.759 160.215 68.818 161.903 67.2382C163.591 65.6584 165.451 64.4614 167.483 63.6526C169.511 62.8438 171.516 62.4395 173.495 62.4395C176.191 62.4395 178.607 62.9247 180.747 63.8952C182.888 64.8658 184.71 66.176 186.22 67.8313C187.73 69.4865 188.878 71.3629 189.671 73.4657C190.463 75.5685 190.857 77.7522 190.857 80.0167C190.857 82.9984 190.334 85.6404 189.293 87.9427C188.253 90.245 186.867 92.186 185.142 93.7658C183.416 95.3456 181.54 96.5534 179.507 97.3783C177.474 98.2033 175.474 98.6185 173.495 98.6185ZM173.441 96.2461C175.992 96.2461 178.078 95.4912 179.696 93.9815C181.313 92.4718 182.51 90.4876 183.281 88.0236C184.052 85.5595 184.441 82.8906 184.441 80.0167C184.441 77.3208 184.036 74.8136 183.227 72.4952C182.419 70.1767 181.206 68.3057 179.588 66.8877C177.97 65.4696 175.922 64.7579 173.441 64.7579C170.961 64.7579 168.869 65.502 167.268 66.9955C165.666 68.4891 164.491 70.4463 163.736 72.8726C162.981 75.2989 162.604 77.9517 162.604 80.8255C162.604 83.5214 162.987 86.0448 163.763 88.401C164.534 90.7572 165.731 92.6497 167.349 94.0893C168.966 95.529 170.999 96.2461 173.441 96.2461Z" fill="currentColor"></path>
    <path d="M210.828 98.6185C208.202 98.6185 205.83 98.1332 203.711 97.1627C201.592 96.1921 199.775 94.8819 198.265 93.2267C196.756 91.5714 195.607 89.695 194.815 87.5922C194.022 85.4894 193.628 83.2896 193.628 80.9873C193.628 78.0056 194.141 75.3636 195.165 73.0613C196.19 70.759 197.548 68.818 199.236 67.2382C200.924 65.6584 202.784 64.4614 204.816 63.6526C206.849 62.8438 208.855 62.4395 210.828 62.4395C213.524 62.4395 215.94 62.9247 218.08 63.8952C220.221 64.8658 222.043 66.176 223.553 67.8313C225.063 69.4865 226.211 71.3629 227.004 73.4657C227.796 75.5685 228.19 77.7522 228.19 80.0167C228.19 82.9984 227.667 85.6404 226.626 87.9427C225.586 90.245 224.2 92.186 222.475 93.7658C220.749 95.3456 218.873 96.5534 216.84 97.3783C214.807 98.2033 212.807 98.6185 210.828 98.6185ZM210.774 96.2461C213.325 96.2461 215.411 95.4912 217.029 93.9815C218.646 92.4718 219.843 90.4876 220.614 88.0236C221.385 85.5595 221.774 82.8906 221.774 80.0167C221.774 77.3208 221.369 74.8136 220.56 72.4952C219.752 70.1767 218.539 68.3057 216.921 66.8877C215.303 65.4696 213.255 64.7579 210.774 64.7579C208.294 64.7579 206.202 65.502 204.601 66.9955C202.999 68.4891 201.824 70.4463 201.069 72.8726C200.314 75.2989 199.937 77.9517 199.937 80.8255C199.937 83.5214 200.32 86.0448 201.096 88.401C201.867 90.7572 203.064 92.6497 204.682 94.0893C206.299 95.529 208.332 96.2461 210.774 96.2461Z" fill="currentColor"></path>
    <path d="M247.886 98.6185C244.867 98.6185 242.09 97.9822 239.556 96.7044C237.021 95.4265 234.989 93.4693 233.463 90.8273C231.937 88.1853 231.171 84.8316 231.171 80.7716C231.171 77.1052 231.969 73.897 233.571 71.1472C235.172 68.3974 237.388 66.2569 240.23 64.731C243.071 63.2051 246.322 62.4395 249.989 62.4395C251.245 62.4395 252.539 62.585 253.871 62.8708C255.203 63.1566 256.443 63.5987 257.591 64.1918C258.74 64.7849 259.667 65.5667 260.368 66.5372C261.069 67.5077 261.419 68.6778 261.419 70.0419C261.419 71.5139 260.972 72.8564 260.071 74.0588C259.171 75.2612 257.915 75.865 256.297 75.865C255.612 75.865 254.906 75.6925 254.167 75.3528C253.429 75.0131 253.046 74.5333 253.008 73.924C253.008 73.8162 253.235 73.6167 253.682 73.3309C254.13 73.0451 254.583 72.603 255.03 72.0099C255.478 71.4168 255.704 70.635 255.704 69.6645C255.704 68.117 255.111 66.8877 253.925 65.9711C252.739 65.0545 251.213 64.5962 249.342 64.5962C247.147 64.5962 245.152 65.2054 243.357 66.4294C241.561 67.6533 240.133 69.438 239.07 71.7942C238.008 74.1505 237.48 77.0351 237.48 80.4481C237.48 83.6832 237.992 86.4599 239.016 88.7784C240.041 91.0969 241.481 92.8762 243.33 94.1163C245.179 95.3564 247.325 95.9765 249.773 95.9765C250.959 95.9765 251.984 95.9064 252.846 95.7608C253.709 95.6152 254.626 95.3996 255.596 95.1138V89.6141C255.596 88.6059 255.559 87.8079 255.488 87.2148C255.418 86.6217 255.165 86.1796 254.734 85.8938C254.302 85.608 253.547 85.4625 252.469 85.4625C252.108 85.4625 251.773 85.4247 251.472 85.3546C251.164 85.2845 250.997 84.9395 250.959 84.3302C250.959 84.0444 251.056 83.7748 251.256 83.5214C251.455 83.268 251.73 83.144 252.092 83.144C253.24 83.1817 254.211 83.2141 255.003 83.2518C255.796 83.2896 256.799 83.3057 258.023 83.3057C259.247 83.3057 260.244 83.2896 261.015 83.2518C261.786 83.2141 262.73 83.1817 263.846 83.144C264.207 83.144 264.466 83.268 264.628 83.5214C264.789 83.7748 264.87 84.0444 264.87 84.3302C264.832 84.9395 264.671 85.2845 264.385 85.3546C264.099 85.4247 263.754 85.4625 263.36 85.4625C262.352 85.4625 261.646 85.6134 261.231 85.9208C260.816 86.2281 260.567 86.6864 260.476 87.2957C260.384 87.9049 260.341 88.6814 260.341 89.6141V95.9765C258.939 96.6235 257.634 97.1465 256.432 97.5401C255.23 97.9337 253.952 98.2141 252.604 98.3758C251.256 98.5376 249.681 98.6185 247.886 98.6185Z" fill="currentColor"></path>
    <path d="M134.082 136.901L125.131 108.864C124.554 107.392 123.983 106.33 123.406 105.683C122.829 105.036 121.966 104.604 120.818 104.389C120.316 104.281 119.966 104.189 119.766 104.119C119.567 104.049 119.47 103.726 119.47 103.149C119.47 102.539 119.685 102.205 120.117 102.151C120.548 102.097 121.05 102.07 121.626 102.07C124.037 102.108 125.902 102.545 127.234 103.391C128.566 104.238 129.622 105.683 130.415 107.732L136.562 127.466H136.777L143.355 102.34H146.159L154.948 127.466H155.11L161.202 107.139C161.488 105.99 161.483 105.262 161.175 104.955C160.868 104.648 160.086 104.497 158.83 104.497C158.469 104.497 158.167 104.459 157.913 104.389C157.66 104.319 157.52 103.974 157.482 103.364C157.482 103.079 157.552 102.809 157.698 102.556C157.843 102.302 158.075 102.178 158.399 102.178C159.547 102.216 160.544 102.248 161.391 102.286C162.238 102.324 163.197 102.34 164.276 102.34C164.993 102.34 165.586 102.329 166.055 102.313C166.524 102.297 166.998 102.275 167.484 102.259C167.969 102.243 168.589 102.216 169.344 102.178C169.705 102.178 169.953 102.302 170.099 102.556C170.244 102.809 170.314 103.079 170.314 103.364C170.277 103.974 170.142 104.319 169.91 104.389C169.678 104.459 169.36 104.497 168.966 104.497C167.602 104.497 166.475 104.755 165.597 105.278C164.718 105.801 164.076 106.761 163.683 108.163L154.84 136.901H152.306L143.571 111.182L136.616 136.901H134.082Z" fill="currentColor"></path>
    <path d="M182.463 137.441C179.837 137.441 177.464 136.955 175.345 135.985C173.226 135.014 171.409 133.704 169.9 132.049C168.39 130.394 167.241 128.517 166.449 126.414C165.656 124.312 165.263 122.112 165.263 119.81C165.263 116.828 165.775 114.186 166.799 111.884C167.824 109.581 169.183 107.64 170.87 106.06C172.558 104.481 174.418 103.284 176.451 102.475C178.483 101.666 180.484 101.262 182.463 101.262C185.158 101.262 187.574 101.747 189.715 102.718C191.855 103.688 193.678 104.998 195.187 106.654C196.697 108.309 197.845 110.185 198.638 112.288C199.431 114.391 199.824 116.574 199.824 118.839C199.824 121.821 199.301 124.463 198.261 126.765C197.22 129.067 195.834 131.008 194.109 132.588C192.383 134.168 190.507 135.376 188.474 136.201C186.442 137.026 184.441 137.441 182.463 137.441ZM182.409 135.068C184.959 135.068 187.046 134.313 188.663 132.804C190.281 131.294 191.478 129.31 192.249 126.846C193.02 124.382 193.408 121.713 193.408 118.839C193.408 116.143 193.004 113.636 192.195 111.317C191.386 108.999 190.173 107.128 188.555 105.71C186.938 104.292 184.889 103.58 182.409 103.58C179.928 103.58 177.836 104.324 176.235 105.818C174.634 107.311 173.458 109.269 172.703 111.695C171.949 114.121 171.571 116.774 171.571 119.648C171.571 122.344 171.954 124.867 172.73 127.223C173.501 129.579 174.698 131.472 176.316 132.912C177.933 134.351 179.966 135.068 182.409 135.068Z" fill="currentColor"></path>
    <path d="M215.363 137.44C212.489 137.44 210.079 136.939 208.138 135.93C206.197 134.922 204.741 133.628 203.77 132.048C202.8 130.469 202.315 128.797 202.315 127.034V108.648C202.315 107.963 202.25 107.311 202.126 106.68C202.002 106.049 201.705 105.531 201.236 105.116C200.767 104.701 199.958 104.496 198.81 104.496C198.449 104.496 198.147 104.458 197.893 104.388C197.64 104.318 197.5 103.973 197.462 103.364C197.462 103.078 197.532 102.809 197.678 102.555C197.823 102.302 198.071 102.178 198.432 102.178C199.581 102.215 200.659 102.248 201.668 102.286C202.676 102.323 203.716 102.339 204.795 102.339C206.989 102.339 209.232 102.286 211.535 102.178C211.896 102.178 212.144 102.302 212.289 102.555C212.435 102.809 212.505 103.078 212.505 103.364C212.467 103.903 212.359 104.227 212.182 104.334C212.004 104.442 211.75 104.496 211.427 104.496C210.203 104.496 209.335 104.685 208.812 105.062C208.289 105.44 207.976 105.941 207.868 106.572C207.76 107.203 207.69 107.893 207.652 108.648V125.47C207.652 126.403 207.749 127.384 207.949 128.409C208.148 129.433 208.531 130.388 209.108 131.267C209.685 132.145 210.537 132.868 211.669 133.423C212.802 133.979 214.322 134.259 216.225 134.259C218.668 134.259 220.55 133.855 221.86 133.046C223.17 132.237 224.081 131.223 224.583 129.999C225.084 128.776 225.338 127.519 225.338 126.225V112.045C225.338 109.672 225.246 107.958 225.068 106.896C224.89 105.833 224.502 105.17 223.909 104.901C223.316 104.631 222.41 104.496 221.186 104.496C220.825 104.496 220.523 104.458 220.269 104.388C220.016 104.318 219.876 103.973 219.838 103.364C219.838 103.078 219.908 102.809 220.054 102.555C220.199 102.302 220.447 102.178 220.808 102.178C221.957 102.215 222.981 102.248 223.882 102.286C224.782 102.323 225.769 102.339 226.847 102.339C227.926 102.339 228.912 102.323 229.813 102.286C230.713 102.248 231.738 102.215 232.886 102.178C233.247 102.178 233.495 102.302 233.641 102.555C233.787 102.809 233.857 103.078 233.857 103.364C233.819 103.903 233.711 104.227 233.533 104.334C233.355 104.442 233.102 104.496 232.778 104.496C231.808 104.496 231.026 104.55 230.433 104.658C229.84 104.766 229.392 105.046 229.085 105.494C228.778 105.941 228.583 106.664 228.492 107.65C228.4 108.637 228.357 109.996 228.357 111.721V126.764C228.357 128.668 227.953 130.307 227.144 131.671C226.335 133.035 225.273 134.14 223.963 134.987C222.652 135.833 221.24 136.453 219.73 136.847C218.22 137.241 216.765 137.44 215.363 137.44Z" fill="currentColor"></path>
    <path d="M243.551 136.523C243.189 136.523 242.941 136.399 242.796 136.145C242.65 135.892 242.58 135.622 242.58 135.337C242.618 134.727 242.758 134.382 243.012 134.312C243.26 134.242 243.567 134.204 243.928 134.204C245.077 134.204 245.885 134 246.354 133.584C246.824 133.169 247.12 132.652 247.244 132.021C247.368 131.39 247.433 130.737 247.433 130.053V104.334H243.712C242.489 104.372 241.54 104.63 240.855 105.116C240.17 105.601 239.669 106.356 239.345 107.38C239.022 108.405 238.736 109.726 238.482 111.343C238.445 111.667 238.224 111.909 237.808 112.071C237.393 112.233 236.989 112.314 236.595 112.314C236.342 112.314 236.067 112.222 235.76 112.044C235.452 111.866 235.301 111.597 235.301 111.235L235.463 103.633C235.463 103.131 235.609 102.786 235.894 102.608C236.18 102.431 236.525 102.339 236.919 102.339H263.285C263.678 102.339 264.013 102.431 264.282 102.608C264.552 102.786 264.687 103.131 264.687 103.633L264.902 111.235C264.902 111.597 264.751 111.866 264.444 112.044C264.137 112.222 263.84 112.314 263.554 112.314C263.193 112.314 262.816 112.233 262.422 112.071C262.028 111.909 261.791 111.667 261.721 111.343C261.468 109.726 261.171 108.405 260.831 107.38C260.492 106.356 259.985 105.601 259.322 105.116C258.659 104.63 257.693 104.372 256.437 104.334H252.771V130.053C252.808 130.737 252.879 131.39 252.986 132.021C253.094 132.652 253.391 133.169 253.876 133.584C254.361 134 255.159 134.204 256.275 134.204C256.637 134.204 256.939 134.242 257.192 134.312C257.445 134.382 257.586 134.727 257.623 135.337C257.623 135.622 257.553 135.892 257.408 136.145C257.262 136.399 257.014 136.523 256.653 136.523C255.504 136.453 254.415 136.404 253.391 136.388C252.366 136.372 251.331 136.361 250.29 136.361C248.134 136.361 245.885 136.415 243.551 136.523Z" fill="currentColor"></path>
    <path d="M106.033 62.4395H41.029C38.2684 62.4395 36.0308 64.6771 36.0308 67.4377V132.436C36.0308 135.196 38.2684 137.434 41.029 137.434H106.027C108.788 137.434 111.025 135.196 111.025 132.436V67.4377C111.025 64.6771 108.788 62.4395 106.027 62.4395H106.033ZM60.585 82.9499C60.7899 82.5131 61.0218 82.0872 61.2698 81.672C65.1573 75.2234 73.2234 72.8079 80.0279 76.043C86.0559 78.9114 89.3665 85.484 88.0778 92.0297C88.0077 92.3963 87.7975 92.709 87.4901 92.9193C87.1828 93.1296 86.8054 93.1997 86.4387 93.1296C86.0721 93.0595 85.754 92.8492 85.5491 92.5365C85.3388 92.2292 85.2687 91.8571 85.3388 91.4905C86.3794 86.2011 83.6997 80.8848 78.8255 78.5663C72.9538 75.7734 65.9014 78.2752 63.103 84.1522C60.3101 90.0293 62.8118 97.0818 68.6889 99.8747C69.4114 100.22 70.1717 100.489 70.9373 100.678C71.2985 100.77 71.6059 100.991 71.8 101.314C71.9941 101.632 72.048 102.01 71.9617 102.371C71.8701 102.732 71.649 103.04 71.3309 103.234C71.0128 103.428 70.6354 103.482 70.2741 103.396C69.3198 103.158 68.387 102.824 67.4919 102.398C60.2238 98.942 57.1289 90.218 60.585 82.9499ZM72.2259 120.132C69.6918 123.103 66.1655 124.909 62.2835 125.216C61.8036 125.254 61.3129 125.27 60.8331 125.259C53.3061 125.114 47.1756 119.339 46.5771 111.828C46.0487 105.175 50.0872 99.0174 56.3956 96.8607C56.5412 96.8122 56.6975 96.7852 56.8485 96.7852C57.0588 96.7852 57.2637 96.8338 57.4578 96.9254C57.7921 97.0872 58.0455 97.3729 58.1641 97.7288C58.2827 98.0793 58.2612 98.4621 58.094 98.7964C57.9323 99.1307 57.6465 99.3841 57.2906 99.5027C52.19 101.244 48.9226 106.221 49.3539 111.602C49.8715 118.083 55.5653 122.935 62.0516 122.429C68.5379 121.911 73.3906 116.217 72.8783 109.731C72.8136 108.933 72.6681 108.14 72.4524 107.38C72.2367 106.641 72.6681 105.865 73.4067 105.649C73.768 105.547 74.14 105.585 74.4689 105.768C74.7978 105.946 75.0297 106.242 75.1375 106.604C75.4125 107.547 75.5904 108.523 75.6659 109.51C75.9732 113.387 74.7493 117.161 72.2205 120.132H72.2259ZM94.1921 122.687C88.6925 126.473 81.3435 126.057 76.3237 121.668C76.0433 121.426 75.8762 121.086 75.8492 120.714C75.8223 120.342 75.9463 119.981 76.1889 119.7C76.4639 119.382 76.8521 119.226 77.2403 119.226C77.5638 119.226 77.8927 119.339 78.1569 119.571C82.2169 123.119 88.1587 123.458 92.607 120.396C97.961 116.708 99.3198 109.348 95.6318 103.989C91.9438 98.6292 84.5786 97.2759 79.2245 100.964C78.5667 101.417 77.952 101.94 77.4021 102.511C76.8683 103.067 75.984 103.083 75.4287 102.549C75.1591 102.29 75.0081 101.945 74.9973 101.568C74.9919 101.196 75.1267 100.84 75.3855 100.57C76.0649 99.864 76.8251 99.2223 77.6393 98.6616C84.2658 94.1001 93.3726 95.777 97.9341 102.404C98.209 102.802 98.4625 103.218 98.6943 103.638C102.334 110.232 100.398 118.423 94.1921 122.698V122.687Z" fill="currentColor"></path>
  </g>
  <defs>
    <clipPath id="clip0_2433_767">
      <rect width="228.871" height="75" fill="white" transform="translate(36.0308 62.4395)"></rect>
    </clipPath>
  </defs>
</svg>
