<?xml version="1.0" encoding="UTF-8"?>
<svg id="Laag_1" data-name="Laag 1" xmlns="http://www.w3.org/2000/svg" viewBox="0 0 64 64" fill="currentColor">
  <defs>
    <style>
      .cls-1 {
        fill: none;
      }
    </style>
  </defs>
  <rect class="cls-1" x="0" width="64" height="64"/>
  <path d="M43.564,52.547c-1.396-.984-1.823-3.205-1.139-5.94.72-2.88,2.006-6.077,3.367-9.463,2.313-5.755,4.707-11.707,4.707-17.144,0-9.52-7.294-14.5-14.5-14.5s-14.5,4.98-14.5,14.5c0,4.317,1.485,7.122,2.956,9.807-3.435-.821-7.205.094-9.88,2.769-4.093,4.094-4.093,10.756,0,14.85,2.047,2.047,4.735,3.07,7.425,3.07s5.378-1.023,7.425-3.07c2.046-2.047,3.07-4.736,3.07-7.425h.006c0-5.919-1.891-9.367-3.559-12.41-1.364-2.488-2.441-4.454-2.441-7.59,0-6.562,4.771-9.5,9.5-9.5s9.5,2.938,9.5,9.5c0,4.47-2.21,9.964-4.347,15.278-1.364,3.393-2.775,6.901-3.579,10.115-1.204,4.817-.041,9.02,3.11,11.24,1.354.955,2.947,1.428,4.627,1.428,1.989,0,4.101-.665,6.075-1.981l-2.773-4.16c-1.912,1.273-3.799,1.506-5.049.627ZM25.89,43.89c-2.145,2.143-5.635,2.143-7.779,0-2.144-2.146-2.144-5.635,0-7.779,2.145-2.143,5.635-2.143,7.779,0,2.144,2.145,2.144,5.635,0,7.779Z"/>
</svg>