<?xml version="1.0" encoding="UTF-8"?>
<svg id="Laag_1" data-name="Laag 1" xmlns="http://www.w3.org/2000/svg" viewBox="0 0 64 64" fill="currentColor">
  <defs>
    <style>
      .cls-1 {
        fill: none;
      }
    </style>
  </defs>
  <rect class="cls-1" x="0" width="64" height="64"/>
  <path d="M46,50.045c-.694,0-1.365-.203-1.94-.587-.977-.651-1.56-1.74-1.56-2.913V14.968c0-2.849-1.415-5.493-3.785-7.073-2.865-1.908-6.566-1.909-9.43,0-.471.314-.893.681-1.285,1.072-.392-.392-.814-.758-1.285-1.073-2.865-1.908-6.566-1.909-9.43,0-.471.314-.893.681-1.285,1.072-.392-.392-.814-.758-1.286-1.073-1.4-.934-3.031-1.427-4.714-1.427v5c.693,0,1.364.203,1.941.587.976.651,1.559,1.74,1.559,2.913v30.789h5V14.968c0-1.173.583-2.262,1.559-2.912,1.18-.786,2.703-.787,3.883,0,.976.651,1.559,1.74,1.559,2.913v30.789h5V14.968c0-1.173.583-2.262,1.559-2.912,1.18-.786,2.703-.787,3.883,0,.976.651,1.559,1.74,1.559,2.913v31.577c0,2.848,1.415,5.492,3.785,7.073,1.4.934,3.03,1.427,4.715,1.427v2.487l8-5.211-8-4.789v2.513Z"/>
</svg>