<?xml version="1.0" encoding="UTF-8"?>
<svg id="Laag_1" data-name="Laag 1" xmlns="http://www.w3.org/2000/svg" viewBox="0 0 64 64" fill="currentColor">
  <defs>
    <style>
      .cls-1 {
        fill: none;
      }
    </style>
  </defs>
  <rect class="cls-1" x="0" width="64" height="64"/>
  <path d="M40.521,16.139c-1.558,4.273-2.683,7.361-8.521,7.361s-6.963-3.087-8.521-7.361c-1.329-3.646-3.149-8.639-9.479-8.639v5c2.599,0,3.336,1.387,4.781,5.352,1.379,3.781,3.203,8.723,9.303,10.201-6.096,1.715-10.584,7.311-10.584,13.948,0,7.995,6.505,14.5,14.5,14.5s14.5-6.505,14.5-14.5c0-6.637-4.488-12.233-10.584-13.948,6.1-1.477,7.924-6.42,9.303-10.201,1.445-3.964,2.183-5.352,4.781-5.352v-5c-6.33,0-8.15,4.993-9.479,8.639ZM41.5,42c0,5.238-4.262,9.5-9.5,9.5s-9.5-4.262-9.5-9.5,4.262-9.5,9.5-9.5,9.5,4.262,9.5,9.5Z"/>
</svg>