<?xml version="1.0" encoding="UTF-8"?>
<svg id="Laag_1" xmlns="http://www.w3.org/2000/svg" version="1.1" viewBox="0 0 1512 397">
  <!-- Generator: Adobe Illustrator 30.2.1, SVG Export Plug-In . SVG Version: 2.1.1 Build 1)  -->
  <path id="o" d="M1367.92,396.327c-28.29,0-53.45-5.84-75.49-17.52-21.71-11.996-38.65-28.569-50.82-49.719-12.17-21.465-18.26-45.772-18.26-72.92s6.09-51.297,18.26-72.447c12.17-21.465,29.27-38.196,51.31-50.192,22.04-11.995,47.04-17.993,75-17.993s52.8,5.998,74.51,17.993c22.04,11.996,39.14,28.727,51.31,50.192,12.17,21.15,18.26,45.299,18.26,72.447s-6.09,51.455-18.26,72.92c-12.17,21.15-29.27,37.723-51.31,49.719-21.71,11.68-46.55,17.52-74.51,17.52ZM1367.92,320.565c11.52,0,21.71-2.683,30.59-8.049,8.89-5.682,15.79-13.416,20.73-23.202,4.93-9.786,7.4-20.835,7.4-33.146,0-12.627-2.47-23.833-7.4-33.619-4.94-9.786-11.84-17.362-20.73-22.728-8.88-5.682-19.07-8.524-30.59-8.524s-21.87,2.842-31.08,8.524c-8.88,5.366-15.79,12.942-20.73,22.728-4.93,9.786-7.4,20.992-7.4,33.619,0,12.311,2.47,23.36,7.4,33.146,4.94,9.786,11.85,17.52,20.73,23.202,9.21,5.366,19.57,8.049,31.08,8.049Z"/>
  <path id="i" d="M1106.38,123.112h82.4v265.165h-82.4V123.112ZM1148.32,92.808c-13.81,0-25.49-4.577-35.03-13.732-9.21-9.154-13.82-20.361-13.82-33.619,0-8.208,2.14-15.784,6.42-22.728,4.28-6.945,10.03-12.469,17.27-16.573C1130.72,2.052,1139.11,0,1148.32,0,1161.81,0,1173.16,4.577,1182.37,13.732c9.21,8.839,13.81,19.414,13.81,31.725,0,8.839-2.13,16.889-6.41,24.149-4.28,6.945-10.03,12.627-17.27,17.046-7.24,4.104-15.3,6.156-24.18,6.156Z"/>
  <path id="d" d="M896.685,396.327c-25.328,0-47.368-5.998-66.117-17.993-18.75-12.311-33.224-29.042-43.421-50.192-9.868-21.466-14.802-45.773-14.802-72.92,0-28.727,5.427-53.507,16.282-74.341,11.184-21.15,26.151-37.25,44.901-48.298,18.75-11.364,39.473-17.046,62.17-17.046,18.092,0,33.388,3.472,45.888,10.417,12.5,6.629,22.697,15.152,30.592,25.569h.987V9.471h82.395v295.942c0,20.203.66,36.145,1.98,47.825,1.64,11.364,3.95,23.044,6.91,35.039h-81.417c0-.315-.165-.631-.494-.947v-.947c-1.315-5.366-2.467-10.259-3.454-14.678-.657-4.42-.822-7.734-.493-9.944h-.987c-9.21,11.995-20.888,20.834-35.032,26.516-14.145,5.367-29.441,8.05-45.888,8.05ZM916.422,320.092c11.513,0,21.71-2.841,30.592-8.523,8.881-5.682,15.789-13.416,20.723-23.202s7.401-20.834,7.401-33.145c0-12.627-2.467-23.676-7.401-33.146-4.934-9.786-12.006-17.362-21.217-22.728-8.881-5.683-19.079-8.524-30.592-8.524s-21.71,2.841-30.591,8.524c-8.882,5.366-15.79,12.942-20.724,22.728-4.934,9.47-7.401,20.519-7.401,33.146,0,12.311,2.467,23.359,7.401,33.145,4.934,9.786,11.842,17.52,20.724,23.202,8.881,5.682,19.243,8.523,31.085,8.523Z"/>
  <path id="u" d="M581.979,396.327c-21.711,0-39.967-4.104-54.769-12.312-14.803-8.523-25.987-20.676-33.553-36.46-7.565-16.099-11.348-35.513-11.348-58.241V123.112h82.4v139.685c0,17.362,3.125,31.41,9.375,42.143,6.579,10.417,17.27,15.625,32.072,15.625,9.539,0,17.927-2.367,25.164-7.102,7.237-4.735,12.829-11.365,16.776-19.888,3.947-8.838,5.921-19.098,5.921-30.778V123.112h82.4v182.301c0,20.203.658,36.145,1.974,47.824,1.645,11.365,3.947,23.044,6.908,35.04h-81.907c0-.631-.164-1.263-.493-1.894-1.316-5.366-2.467-10.259-3.454-14.679-.658-4.419-.823-7.734-.494-9.943h-.987c-7.565,10.732-17.434,19.256-29.604,25.569-11.842,5.998-27.303,8.997-46.381,8.997Z"/>
  <path id="t" d="M398.001,396.327c-30.921,0-53.947-5.524-69.078-16.573-14.803-11.049-24.013-23.044-27.632-35.987-3.618-12.942-5.427-26.832-5.427-41.668v-107.013h-54.276v-71.974h54.276V49.245h82.4v73.867h71.052v71.974h-71.052v78.602c0,10.417.658,19.098,1.974,26.043,1.315,6.629,4.605,12.469,9.868,17.52,5.592,4.735,13.98,7.103,25.164,7.103,9.868,0,20.724-2.21,32.565-6.63l1.481-.473v70.079c-6.579,3.157-14.309,5.367-23.191,6.629-8.552,1.579-17.927,2.368-28.124,2.368Z"/>
  <path id="s" d="M122.86,396.327c-32.565,0-59.703-6.63-81.413-19.888-21.381-13.574-35.197-31.883-41.447-54.927l76.479-23.675c5.263,12.627,11.842,21.466,19.737,26.516,8.223,5.051,16.776,7.576,25.657,7.576,4.935,0,9.375-.473,13.323-1.42,3.947-1.263,7.072-3.157,9.375-5.682,2.631-2.841,3.947-6.156,3.947-9.944,0-4.419-1.645-8.207-4.934-11.364-2.961-3.157-6.579-5.524-10.855-7.103-4.277-1.894-9.704-3.788-16.283-5.682l-30.592-8.996c-.658-.316-1.316-.474-1.974-.474-13.487-4.104-25.493-9.47-36.019-16.099-10.197-6.629-18.585-15.152-25.164-25.57-6.579-10.417-9.868-22.886-9.868-37.407,0-17.046,4.441-32.041,13.322-44.983,9.21-13.258,22.039-23.518,38.486-30.778,16.447-7.261,35.361-10.891,56.743-10.891,28.289,0,51.973,6.314,71.052,18.94,19.078,12.312,31.578,28.569,37.499,48.772l-75.492,23.675c-3.29-8.523-7.566-15.31-12.829-20.361-5.263-5.05-12.5-7.576-21.71-7.576-4.934,0-9.211.789-12.829,2.368-3.618,1.578-6.579,3.788-8.882,6.629-1.974,2.525-2.961,5.524-2.961,8.997,0,6.313,3.618,11.364,10.855,15.152,7.237,3.472,17.599,6.945,31.085,10.417.329,0,.494.158.494.474h.493l19.243,5.208c.658,0,1.152.158,1.481.474,13.486,3.788,25.493,8.207,36.019,13.258,10.526,4.735,20.065,12.627,28.618,23.675,8.552,10.733,12.829,24.938,12.829,42.616,0,17.993-4.606,33.619-13.816,46.877-9.21,13.259-22.368,23.518-39.473,30.778-17.105,6.945-37.171,10.418-60.197,10.418Z"/>
</svg>