<?xml version="1.0" encoding="UTF-8"?>
<svg id="Laag_1" data-name="Laag 1" xmlns="http://www.w3.org/2000/svg" viewBox="0 0 64 64" fill="currentColor">
  <defs>
    <style>
      .cls-1 {
        fill: none;
      }
    </style>
  </defs>
  <rect class="cls-1" x="0" width="64" height="64"/>
  <path d="M55.118,12.236l-2.229-4.475c-.076.038-7.741,3.739-20.889,3.739s-20.812-3.702-20.889-3.739l-2.229,4.475c.252.126,4.713,2.299,12.618,3.492v32.545c-7.905,1.193-12.366,3.365-12.618,3.491l2.229,4.476c.076-.037,7.741-3.739,20.889-3.739s20.812,3.702,20.889,3.739l2.229-4.476c-.252-.126-4.713-2.298-12.618-3.491V15.728c7.905-1.193,12.366-3.366,12.618-3.492ZM37.5,47.709c-1.723-.13-3.551-.209-5.5-.209s-3.777.079-5.5.209v-31.418c1.723.13,3.551.209,5.5.209s3.777-.079,5.5-.209v31.418Z"/>
</svg>