<?xml version="1.0" encoding="UTF-8"?>
<svg xmlns="http://www.w3.org/2000/svg" width="300" height="200" viewBox="0 0 300 200" fill="none">
  <g clip-path="url(#clip0_2433_441)">
    <path d="M112.407 83.2939C108.708 85.8494 105.383 88.9073 102.528 92.3823C105.516 96.0176 108.499 99.0114 112.407 101.577C116.192 99.0488 119.566 95.9481 122.399 92.3823C119.507 88.902 116.144 85.844 112.407 83.2939Z" fill="currentColor"></path>
    <path d="M160.308 75.1631C162.019 74.0244 163.532 72.6184 164.788 70.9932C163.484 69.4428 161.976 68.0742 160.308 66.9248C158.646 68.0582 157.154 69.4321 155.887 70.9932C157.095 72.6397 158.592 74.0565 160.308 75.1631Z" fill="currentColor"></path>
    <path d="M163.585 99.1729V84.5782L163.756 79.339H144.11C143.826 72.6565 144.168 69.1281 146.579 69.1281C148.018 69.1281 149.456 70.4058 150.6 71.5338C153.246 67.7327 151.808 66.3428 149.915 66.3428C144.687 66.3428 138.026 72.2234 138.026 78.5371V79.339H133.888V81.2636H138.026V99.1729C138.026 102.915 137.566 103.717 133.316 103.717V105H149.894V103.717C144.548 103.717 144.088 102.915 144.088 99.1729V81.2636H153.177C157.368 81.2636 157.485 82.0655 157.485 85.3801V99.1729C157.485 102.915 157.197 103.717 153.005 103.717V105H167.766V103.717C163.927 103.717 163.585 102.915 163.585 99.1729Z" fill="currentColor"></path>
    <path d="M176.331 84.3102C176.331 82.0113 178.629 80.461 181.04 80.461C183.799 80.461 186.921 81.3698 186.558 85.914H187.99L188.338 80.6214C186.558 79.4987 183.569 78.8037 180.757 78.8037C175.817 78.8037 170.477 80.7818 170.477 85.3794C170.477 91.9016 183.842 93.7727 183.842 99.9207C183.842 101.899 181.773 103.877 178.961 103.877C175.17 103.877 172.471 102.273 172.011 97.1407H170.632L170.284 103.128C172.123 104.679 175.571 105.534 178.784 105.534C183.596 105.534 189.813 103.716 189.813 98.4772C189.829 91.4204 176.331 88.9612 176.331 84.3102Z" fill="currentColor"></path>
    <path d="M216.885 85.6467C216.885 80.0333 211.08 78.8037 207.118 78.8037C200.858 78.8037 193.967 83.5082 193.967 92.1154C193.967 104.732 205.45 109.971 216.709 101.097L216.019 99.9741C207.749 105.106 200.109 101.631 200.109 91.7412C200.109 87.3574 202.066 80.461 207.177 80.461C211.368 80.461 211.988 83.4013 210.737 86.6624C213.036 87.9455 216.885 89.3889 216.885 85.6467Z" fill="currentColor"></path>
    <path d="M241.638 100.776V84.6844C241.638 82.2252 241.103 78.8037 233.827 78.8037C228.369 78.8037 221.707 82.2786 221.707 86.1278C221.707 87.6782 223.429 88.8543 227.679 86.3951C226.759 84.3102 227.626 80.4075 232.1 80.4075C234.8 80.4075 235.719 82.3321 235.719 85.0586V93.2381C230.496 93.5054 220.959 93.5054 220.959 98.4772C220.959 102.914 223.947 105.534 227.909 105.534C230.208 105.534 233.02 104.625 235.837 102.433C236.607 104.395 238.548 105.641 240.649 105.534C242.423 105.465 244.172 105.085 245.818 104.411L245.187 103.289C241.926 104.518 241.638 102.487 241.638 100.776ZM235.719 100.883C234.142 102.246 232.164 103.053 230.085 103.182C227.904 103.182 227.16 100.776 227.043 98.6911C227.043 95.0023 230.315 95.1092 235.714 94.6815V100.883H235.719Z" fill="currentColor"></path>
    <path d="M269.036 100.776V84.6844C269.036 82.2252 268.502 78.8037 261.221 78.8037C255.768 78.8037 249.101 82.2786 249.101 86.1278C249.101 87.6782 250.828 88.8543 255.078 86.3951C254.158 84.3102 255.019 80.4075 259.499 80.4075C262.199 80.4075 263.118 82.3321 263.118 85.0586V93.2381C257.89 93.5054 248.358 93.5054 248.358 98.4772C248.358 102.914 251.346 105.534 255.308 105.534C257.607 105.534 260.419 104.625 263.231 102.433C264.006 104.39 265.941 105.641 268.042 105.534C269.817 105.465 271.565 105.085 273.212 104.411L272.581 103.289C269.32 104.518 269.036 102.487 269.036 100.776ZM263.118 100.883C261.547 102.246 259.569 103.053 257.489 103.182C255.308 103.182 254.559 100.776 254.447 98.6911C254.447 95.0023 257.719 95.1092 263.118 94.6815V100.883Z" fill="currentColor"></path>
    <path d="M285.577 99.1723V67.0371L275.238 67.5717V68.8013C279.429 68.8013 279.547 69.3359 279.547 73.0782V99.1669C279.547 102.909 279.199 103.711 275.008 103.711V104.994H289.827V103.711C285.919 103.716 285.577 102.915 285.577 99.1723Z" fill="currentColor"></path>
    <path d="M80.7052 102.321V71.5274H95.2946V67.6782H80.7052V54.8477H79.3259C77.5243 60.5412 75.3645 64.3423 71.2587 66.3898C69.4625 67.2612 67.4898 67.7049 65.4957 67.6782H49.4575V70.2443C56.4662 70.2443 57.1558 73.0243 54.857 78.1565L42.7963 106.277L31.885 78.1565C29.8161 73.0243 29.4686 70.2443 37.0546 70.2443V67.6782H9.82715V70.2443C16.3761 70.2443 17.178 73.0243 19.4768 78.2634L36.937 118.68C30.046 135.252 21.1982 134.076 16.8358 132.366C11.0888 140.064 14.8845 144.982 18.2151 144.982C27.977 144.982 36.2474 131.082 41.5346 119.428L59.7112 78.2634C59.9251 77.7983 60.1282 77.3492 60.3154 76.9269C61.7909 73.6498 65.0413 71.5434 68.6338 71.5274V104.245C68.6338 114.617 78.0536 125.63 98.7268 115.579L97.5026 113.334C87.7139 117.503 80.7052 116.327 80.7052 102.321Z" fill="currentColor"></path>
  </g>
  <defs>
    <clipPath id="clip0_2433_441">
      <rect width="280" height="90.1346" fill="white" transform="translate(9.8269 54.8477)"></rect>
    </clipPath>
  </defs>
</svg>
