<?xml version="1.0" encoding="UTF-8"?>
<svg xmlns="http://www.w3.org/2000/svg" width="300" height="200" viewBox="0 0 300 200" fill="none">
  <g clip-path="url(#clip0_2433_343)">
    <path d="M130.604 107.833C128.585 109.852 125.897 110.966 123.043 110.966C120.188 110.966 117.647 109.912 115.649 107.992C115.594 107.94 115.538 107.889 115.482 107.833C111.312 103.663 111.312 96.8821 115.482 92.7117C115.538 92.656 115.594 92.6046 115.649 92.5531C117.651 90.6372 120.265 89.5785 123.043 89.5785C125.82 89.5785 128.585 90.6887 130.604 92.7117C130.659 92.7674 130.706 92.8231 130.762 92.8789L133.51 90.1315C133.458 90.0757 133.407 90.02 133.351 89.9643C130.505 87.1183 126.772 85.6953 123.043 85.6953C119.314 85.6953 115.726 87.0669 112.898 89.8057C112.842 89.8571 112.786 89.9086 112.73 89.9643C107.038 95.6563 107.038 104.889 112.73 110.585C112.786 110.641 112.842 110.688 112.898 110.743C115.722 113.482 119.382 114.854 123.043 114.854C126.703 114.854 130.505 113.431 133.351 110.585C133.407 110.529 133.454 110.473 133.51 110.418L130.762 107.67C130.711 107.722 130.659 107.777 130.604 107.833Z" fill="currentColor"></path>
    <path d="M149.827 89.5832C155.72 89.5832 160.516 94.3794 160.516 100.273C160.516 106.166 155.72 110.962 149.827 110.962C143.933 110.962 139.137 106.166 139.137 100.273C139.137 94.3794 143.933 89.5832 149.827 89.5832ZM149.827 85.6914C141.773 85.6914 135.245 92.2192 135.245 100.273C135.245 108.326 141.773 114.854 149.827 114.854C157.88 114.854 164.408 108.326 164.408 100.273C164.408 92.2192 157.88 85.6914 149.827 85.6914Z" fill="currentColor"></path>
    <path d="M102.684 108.635L99.4948 106.402C97.5575 109.158 94.36 110.966 90.7425 110.966C86.1607 110.966 82.2474 108.069 80.7259 104.014L101.432 100.362L105.307 99.681C104.994 91.9059 98.5947 85.6953 90.7425 85.6953C82.8904 85.6953 76.1611 92.2231 76.1611 100.277C76.1611 108.33 82.6889 114.858 90.7425 114.858C95.6845 114.858 100.048 112.394 102.684 108.635ZM80.0529 100.182C80.1001 94.3276 84.8748 89.5785 90.7425 89.5785C95.3244 89.5785 99.2377 92.476 100.759 96.5306L80.0529 100.182Z" fill="currentColor"></path>
    <path d="M228.083 108.635L224.894 106.402C222.956 109.158 219.759 110.966 216.141 110.966C211.56 110.966 207.646 108.069 206.125 104.014L226.831 100.362L230.706 99.681C230.393 91.9059 223.994 85.6953 216.141 85.6953C208.289 85.6953 201.56 92.2231 201.56 100.277C201.56 108.33 208.088 114.858 216.141 114.858C221.083 114.858 225.447 112.394 228.083 108.635ZM205.456 100.182C205.503 94.3276 210.278 89.5785 216.146 89.5785C220.728 89.5785 224.641 92.476 226.162 96.5306L205.456 100.182Z" fill="currentColor"></path>
    <path d="M197.66 100.272C197.66 96.5392 196.237 92.8103 193.391 89.9643C190.545 87.1183 186.812 85.6953 183.083 85.6953C179.354 85.6953 175.621 87.1183 172.775 89.9643C169.929 92.8103 168.506 96.5435 168.506 100.272V114.854H172.393V100.272H172.398C172.398 97.5336 173.439 94.7948 175.522 92.7117C177.541 90.6929 180.228 89.5785 183.083 89.5785C185.938 89.5785 188.625 90.6887 190.644 92.7117C192.727 94.7948 193.768 97.5336 193.768 100.272H193.773V114.854H197.66V100.272Z" fill="currentColor"></path>
    <path d="M264.725 85.6914H260.837V114.85H264.725V85.6914Z" fill="currentColor"></path>
    <path d="M256.95 85.6914H252.094L243.346 97.1054L234.598 85.6914H229.737L240.916 100.273L229.737 114.854H234.598L243.346 103.44L252.094 114.854H256.95L245.776 100.273L256.95 85.6914Z" fill="currentColor"></path>
    <path d="M281.737 114.854H269.586V110.966H281.737C284.15 110.966 286.109 109.003 286.109 106.594C286.109 104.186 284.146 102.223 281.737 102.223H275.903C271.347 102.223 267.64 98.5151 267.64 93.959C267.64 89.4028 271.347 85.6953 275.903 85.6953H288.054V89.5828H275.903C273.49 89.5828 271.527 91.5459 271.527 93.9547C271.527 96.3635 273.49 98.3265 275.903 98.3265H281.737C286.293 98.3265 290 102.034 290 106.59C290 111.146 286.293 114.854 281.737 114.854Z" fill="currentColor"></path>
    <path d="M35.2715 95.7899V98.8502L61.6312 103.976C62.9427 104.229 62.9427 106.107 61.6312 106.364L38.4175 110.873C36.5916 111.229 35.2715 112.827 35.2715 114.687V119.256L63.1056 113.843C67.2632 113.033 70.2635 109.394 70.2635 105.164C70.2635 100.929 67.2632 97.29 63.1056 96.4842L39.9005 91.9752C37.5003 91.508 35.2715 93.3468 35.2715 95.7899Z" fill="currentColor"></path>
    <path d="M44.9925 81.3535V85.9225C44.9925 87.7827 43.6723 89.3857 41.8464 89.7372L18.6328 94.2548C17.3212 94.5076 17.3212 96.385 18.6328 96.6421L44.9925 101.768V104.829C44.9925 107.272 42.7637 109.11 40.3634 108.643L17.1583 104.13C13.0008 103.32 10.0005 99.681 10.0005 95.4463C10.0005 91.2116 13.0008 87.5727 17.1583 86.7669L44.9925 81.3535Z" fill="currentColor"></path>
  </g>
  <defs>
    <clipPath id="clip0_2433_343">
      <rect width="280" height="37.9065" fill="white" transform="translate(10 81.3535)"></rect>
    </clipPath>
  </defs>
</svg>
