<?xml version="1.0" encoding="UTF-8"?>
<svg id="Laag_1" data-name="Laag 1" xmlns="http://www.w3.org/2000/svg" viewBox="0 0 224.449 531.631">
  <path d="M212.819,268.173c.032-.007.069.002.08.009-.343-.19-3.882-9.186-5.091-13.5-1.247-4.534-1.344-5.153-5.112-9.654-.114-1.867-.403-4.031-.855-6.741l.204-.335c-.103-.063-.196-.134-.295-.201-.368-2.165-.83-4.661-1.388-7.637-1.54-8.212-4.971-23.928-10.648-36.903-.972-2.223-1.456-4.949-1.664-7.992,5.229,6.394,7.769,9.329,9.021,13.164,1.721,5.267.419,11.401,3.091,16.553l1.12-.581c-1.392-2.684-1.615-5.704-1.851-8.902-.716-9.694-1.952-10.634-11.484-22.356-.338-12,2.679-28.022-1.765-38.664-6.603-15.813-8.772-34.812-8.789-34.932,0-9.063-5.772-19.743-15.063-27.874-3.277-2.867-7.639-6.03-12.342-8.686-.026-.045-.055-.09-.08-.136l-.082.046c-2.991-1.679-6.116-3.15-9.187-4.208-1.422-1.911-.891-5.824-5.74-5.841-1.681-.009-4.124.308-6.085,1.845-.682.534-1.245,1.168-1.791,1.78-.911,1.022-1.604,1.348-2.559,2.378.069-1.356.168-2.783.321-4.395.515-5.41,1.098-11.542-.828-17.13-.517-1.5-1.216-2.97-1.892-4.392-.67-1.41-1.213-2.641-1.629-3.766.377-1.42.865-3.044,1.489-4.946.437-1.334.889-2.713,1.283-4.077.532-1.845.985-3.944,1.175-6.105,2.279-3.279,4.444-6.692,3.881-10.681l-1.25.177c.409,2.899-.855,5.515-2.542,8.118-.049-3.272-.854-6.535-3.087-9.156l-.961.818c2.439,2.862,3.005,6.631,2.736,10.272-2.234,3.205-4.64,6.489-4.91,10.345-.129,1.842.241,3.588.835,5.285-.693,2.669-1.138,5.38-.946,8.15.193,2.773,1.016,5.432,1.468,8.09,1.012,5.953.088,14.047-2.197,19.247l.004.002c-1.448,1.629-2.39,3.206-3.065,4.87-1.261-1.153-4.252-3.775-8.85-7.136-2.362-5.431-3.148-11.457-2.208-16.984.456-2.68,1.274-5.307,1.468-8.09.179-2.577-.194-5.103-.805-7.592.711-1.872,1.184-3.798,1.041-5.843-.286-4.089-2.953-7.514-5.284-10.883-.175-3.472.445-7.012,2.763-9.734l-.961-.818c-2.114,2.481-2.952,5.537-3.078,8.631-1.514-2.425-2.587-4.88-2.204-7.593l-1.25-.177c-.53,3.757,1.361,7.004,3.486,10.109.154,2.363.644,4.67,1.223,6.678.393,1.363.846,2.743,1.283,4.076.703,2.144,1.232,3.937,1.626,5.485-.386.981-.854,2.037-1.419,3.227-.676,1.422-1.375,2.892-1.892,4.393-1.926,5.588-1.343,11.72-.828,17.13.102,1.074.178,2.061.24,3.003-7.776-4.215-9.68-6.43-14.827-.782-.986,1.081-1.969,2.167-2.946,3.256l.029.026c-2.957,1.27-5.903,2.848-8.671,4.562-1.139-.659-1.412-.731-1.926-.81-3.566-.556-14.752,6.127-16.806,17.852-.024.139-.043.28-.065.419-3.832,5.814-6.015,11.972-6.013,17.494-.007.064-.261,2.281-.847,5.791l-.062.018c.014.046.023.09.037.136-1.159,6.902-3.583,18.666-7.921,29.056-3.135,7.507-2.56,17.673-2.064,27.221-.634,2.093-1.17,4.025-1.644,5.886-.564.983-1.17,2.048-1.831,3.23-11.547,20.642-8.954,46.134-17.327,68.054-1.904,4.982-4.434,10.049-4.211,15.495l1.26-.052c-.174-4.257,1.496-8.405,3.111-12.417,9.812-24.387,6.643-49.089,17.956-69.878-1.005,4.648-1.749,9.287-2.768,15.419-1.017,6.118-1.906,11.165-2.728,15.474-1.842,6.804-3.14,13.021-3.933,17.247-.01.054-.019.102-.029.155-1.302,4.626-2.696,8.695-4.479,13.833-1.92,5.533-5.083,12.607-1.28,16.912l.946-.836c-3.303-3.74-.565-9.503,3.096-20.228-.692,4.504-.843,7.385-.377,10.181l1.245-.207c-.67-4.022-.039-8.06,2.088-19.411,1.625-5.814,2.913-11.738,4.043-17.689,1.709-6.262,3.876-12.993,6.552-19.108,1.975-4.515,2.057-10.886,1.778-17.789.45,7.096,3.038,9.704,3.915,12.9.242.882.374,1.745.399,2.738-3.392,11.324-7.228,22.556-11.953,33.371l1.156.505c3.882-8.883,7.16-18.053,10-26.992-.597,3.288-1.526,7.767-2.787,14.273-1.245,6.427-1.913,7.955-5.95,13.358-1.564,2.093-3.181,4.258-4.243,6.719l1.158.499c2.017-4.673,6.214-8.299,8.319-13.136,1.264-2.904,1.443-4.564,4.752-21.639.569-2.935.803-5.059.8-6.725,4.522-15.111,7.868-29.157,10.856-39.497,1.752-6.062,2.632-9.104,3.714-19.195.65-6.06.225-13.386.328-21.218,1.002-4.316,1.784-8.682,2.249-13.12.413-3.937,1.746-7.361,3.736-9.836-.053.969-.068,1.942-.016,2.918.265,5.006,1.949,5.358,4.54,8.196.492.539.911,1.108,1.278,1.696-.735.839-1.185,1.86-1.111,3.015l1.259-.081c-.04-.632.169-1.207.517-1.724,3.229,6.808-.016,16.111.363,23.337.313,5.962,2.757,11.758,2.569,17.565-.192,5.916-3.021,12.426-.112,17.932l1.116-.589c-1.802-3.41-1.15-7.31-.46-11.44,1.015-6.081,1.107-7.932-.589-15.737-1.525-7.02-1.622-8.819-.733-16.171.098-.812.195-1.649.28-2.5,2.354,7.283,2.71,15.507,3.363,24.066l1.258-.096c-.648-8.51-.989-16.632-3.303-24.001,1.281,1.085,2.963,1.651,4.646,1.651,4.703,0,5.878-3.736,8.416-5.219,1.931-1.128,4.453-.905,7.704-.208-2.872,1.226-4.677,3.626-7.14,2.99l-.316,1.222c3.959,1.022,5.822-3.234,10.118-3.594,1.396.339,2.902.713,4.533,1.077.004.059.014.12.019.179.107,1.325.326,2.695.523,3.944.056.361.113.724.164,1.079.22,1.54.513,4.06.968,6.555-.915-.146-1.834-.481-2.76-.892l.127-.126c-1.732-1.742-1.634-4.654-5.942-4.83-5.756-.234-8.487,1.742-9.768-.151l-1.045.707c.549.812,1.543,1.316,2.728,1.385.914.049,1.797-.141,2.715-.313,1.651-.298,5.816-.722,7.225.004.874.451,1.372,1.398,1.952,2.378-1.285-.616-2.583-1.196-3.896-1.418-5.627-.949-11.383,4.041-16.292,1.69l-.545,1.138c3.03,1.452,6.386.518,9.528-.47,5.86-1.855,7.215-1.519,11.196.45,1.582.781,3.294,1.553,5.03,1.732.181.864.383,1.704.611,2.475-3.076.43-4.799-.05-8.439-1.25-5.595-1.842-7.014-1.696-10.457-1.124-1.966.328-3.824.638-5.502-.054l-.481,1.167c2.994,1.234,6.231-.156,9.201-.23,4.535-.125,8.977,2.938,13.791,2.938.803,0,1.567-.106,2.301-.221.173.454.359.863.559,1.221-.152.086-.247.274-.123.47.604.957,1.411,1.705,2.306,2.398-.033.466-.07.934-.1,1.4-.091,1.406-.158,2.797-.214,4.181-.671-.292-1.421-.37-2.111-.437-.715-.07-1.354-.152-2.058-.442-.99-.812-2.105-1.997-2.469-2.866-.613-1.456,0-2.237-3.618-6.441l-.956.824c2.703,3.139,2.853,4.199,3.139,5.281-1.248-1.348-2.504-2.675-4.176-3.425-3.571-1.602-7.834-.018-10.988-1.614l-.569,1.127c1.846.933,3.908.937,5.904.94.093,0,.177.002.267.002-2.074,1.621-2.552,1.993-3.271,2.314-1.292.577-2.944.594-4.912.047l-.337,1.216c5.251,1.456,6.992-.79,10.469-3.497l-.016-.021c2.952.201,4.14,1.002,6.742,3.811,1.218,1.311,2.505,2.634,4.108,3.371.096.077.191.154.272.215l.057-.076c.347.138.704.257,1.083.333,1.257.248,2.644.123,3.394.789-.047,1.479-.077,2.949-.088,4.408-.594.07-1.193.1-1.792.059-.761-.052-1.512-.19-2.308-.336-3.307-.605-4.277-.537-7.388.637-4.737-.615-10.368-2.137-13.26-5.823l-.993.779c2.62,3.34,7.192,5.034,11.525,5.882-1.118.213-2.25.199-3.194-.406l-.682,1.061c.465.299.945.486,1.433.601-.635.268-1.309.561-2.04.887-4.365,1.943-9.94,4.154-14.203,1.415l-.682,1.061c1.528.982,3.325,1.473,5.378,1.473,4.615,0,8.58-2.249,12.553-3.89-1.396,3.312-2.454,3.935-4.872,5.064-2.583,1.207-3.082,1.754-4.058,3.043-1.227,1.619-1.779,2.049-4.64,1.476l-.248,1.237c4.776.962,4.931-1.1,6.645-2.865,1.405-1.445,3.804-1.88,5.556-3.305,1.691-1.378,2.554-3.476,3.225-5.267,1.912-.683,3.846-1.143,5.875-1.053,2.28.11,4.378.901,6.807.962.422.014.884-.087,1.361-.262.009,1.574.034,3.14.078,4.698-2.307.365-3.354.89-5.896,2.827-.742.565-1.51,1.15-2.309,1.604-1.931,1.098-4.652,1.234-5.683-.461l-1.078.656c.795,1.308,2.241,1.869,3.789,1.869,4.253,0,6.284-3.682,9.6-4.841.509-.178,1.053-.296,1.613-.389.14,4.12.393,8.198.711,12.279-5.29,1.782-4.86-1.038-14.361,1.524-3.119.842-6.781,1.82-9.929.424l-.512,1.153c5.574,2.477,11.658-1.488,17.195-1.488,3.123.034,4.322.771,7.707-.313.19,2.337.399,4.677.621,7.03-2.391,1.03-5.252,1.157-9.022,1.384-5.686-2.862-10.415-4.952-17.066-3.78l.219,1.242c5.536-.974,9.662.452,14.345,2.708-2.691.204-5.782.537-9.424,1.283l.253,1.237c9.704-1.986,16.066-.968,20.818-2.793.23,2.405.469,4.826.711,7.271-1.941.624-4.83.366-7.347.605l.007-.172c-.719-.031-1.426-.266-2.175-.515-4.397-1.46-5.955.135-6.917.285-.411.067-.575-.011-6.393-1.253l-.264,1.234c6.671,1.424,6.424,1.554,7.821.946,2.364-1.012,3.902-.498,5.416.005-.866.329-1.588.827-2.05,1.615-2.243,3.819-5.516,4.624-12.004,4.984l.07,1.26c5.889-.327,10.27-.92,13.022-5.606,1.421-2.419,7.201-1.11,10.937-2.13.261,2.645.522,5.319.772,8.038-.022,1.241-.035,2.492-.041,3.75-15.632-2.834-16.899-3.236-20.912-2.268-2.263.548-3.367.732-7.322-1.638l-.648,1.083c5.045,3.019,5.929,2.211,9.215,1.566,3.095-.607,4.967-.123,19.661,2.539,0,.649.004,1.305.009,1.96-1.758.257-3.495,1.002-5.207,1.793-3.34.04-3.396-.652-5.247-1.479-3.188-1.425-6.742-.073-9.785-.988l-.364,1.208c1.542.465,3.155.417,4.714.371,2.878-.085,3.948-.02,5.83,1.038.915.512,1.65.798,2.414.955-2.381,1.018-4.708,1.675-6.967.667l-.514,1.153c.877.391,1.835.586,2.883.586,2.749,0,5.06-1.159,7.327-2.252.195-.006.385-.011.598-.02l-.01-.26c1.418-.672,2.832-1.277,4.339-1.511.036,3.063.133,6.199.302,9.426-.478,1.128-1.01,2.235-1.579,3.327-.035.006-.073.009-.107.015-1.676.328-3.771,1.789-5.063.773l-.78.992c1.58,1.24,3.604.322,5.113-.229-.302.539-.612,1.075-.93,1.606l-.006-.022c-1.598.448-4.766.924-6.159.402-1.098-.414-1.88-1.593-2.591-2.594-3.359-4.699-5.684-5.165-9.391-4.973-3.399-4.525-7.052-8.931-8.641-14.143-.594-1.949-.892-3.99-1.112-6.057.132-1.156.529-2.32.949-3.53,1.515-4.371,1.393-5.634-.095-9.137-1.589-3.738-1.464-5.771-.704-10.626l-1.247-.196c-.446,2.854-.952,6.089-.042,9.133.566,1.895,1.697,3.687,1.875,5.51.168,1.725-.475,3.444-1.085,5.209-.373-3.916-.896-7.79-2.992-11.181l-1.073.663c2.156,3.488,2.53,7.574,2.927,11.899.073.792.146,1.522.222,2.227-.06.59-.066,1.186.023,1.794l.19-.028c.823,6.113,2.377,9.454,8.625,17.661.214.281.42.552.626.823-8.468-2.494-7.961-7.391-12.385-10.226l-.681,1.063c3.518,2.254,3.857,6.653,10.105,9.427-2,.086-4.356.077-7.235-.261l-.147,1.253c4.732.557,7.967.288,10.439.086.265.073.535.145.816.213l.063-.261c3.161,4.231,5.267,7.53,6.188,12.29-.009.617.05,1.225.2,1.816-.987-.25-1.891-.712-2.639-1.477-1.019-1.042-1.666-2.645-2.693-3.856-2.906-3.432-9.097-3.258-11.772.481-1.04,1.453-1.488,3.164-1.92,4.82-.939,3.592-1.373,4.629-5.141,8.27-5.156,4.984-6.055,7.333-4.099,14.804l1.221-.32c-.043-.163-.085-.33-.128-.495,1.494,1.749,3.142,3.248,5.186,3.895-.646,1.971-.192,5.094-1.29,9.78-.655.827-.823,1.548-.696,2.488-.165.509-.344,1.029-.55,1.57l.949.361c.567,3.359-.565,6.473-1.628,9.768-.665.602-1.42,1.282-2.304,2.207-1.132,1.185-2.958,3.573-2.477,6.266l1.242-.221c-.383-2.145,1.18-4.161,2.146-5.173.209-.219.436-.425.657-.635-.139.513-.27,1.031-.38,1.558-2.49,11.906,5.358,23.562,4.908,35.396l1.261.048c.458-12.06-7.337-23.693-4.934-35.186.243-1.162.593-2.331.966-3.505.749-.695,1.479-1.422,2.093-2.274,3.251-4.51,2.265-10.837,4.946-15.308.457-.761,1.021-1.466,1.61-2.165,2.926-1.97,6.06-3.64,9.32-4.962-.316.355-.627.713-.925,1.074-.822.996-1.567,2.027-2.255,3.082h-.006s0,.007-.001.011c-7.839,12.021-7.383,27.616-6.691,41.748.042.865.081,1.69.117,2.489-.578,4.343-.983,9.639-1.274,16.909-.139,3.475-.254,6.923-.349,10.344-.086.417-.174.839-.266,1.276-1.019,4.82-1.632,7.944-1.909,12.091-2.938,14.607-4.307,29.618-4.671,44.514-1.248,3.67-3.286,10.636-2.819,13.428l1.245-.208c-.28-1.675.553-5.396,1.495-8.725-.235,20.906,1.399,41.481,3.327,60.28.563,5.481,1.144,11.148,3.05,16.471.117.327.24.653.366.978-.366,1.957-.69,3.927-.879,5.926-.837,8.864.964,18.149-1.739,26.48-1.284,3.962-3.646,8.003-3.022,12.34.257,1.787,1.403,3.443,2.882,4.562-.37.881-.751,1.784-1.147,2.719l1.162.492c.369-.871.719-1.707,1.061-2.529,2.127,1.116,4.622,1.115,6.231-1.002,1.356-10.587,2.477-21.207,3.353-31.872,1.157,3.379,1.702,6.8.971,10.357-.081.598-1.984,14.681-1.984,17.519h1.262c0-2.754,1.953-17.204,1.965-17.307.961-4.668-.172-9.14-1.991-13.484,1.085-13.938,1.75-27.956,1.975-42.077.394,4.309,1.089,8.29,2.044,13.521,1.552,8.508,3.157,17.305,1.644,25.837l1.242.22c2.248-12.677-2.131-25.458-3.512-38.092-1.987-18.164,2.211-36.756.988-55.096,1.783-2.825,1.314-6.879-.316-9.801-.348-.625-.736-1.198-1.14-1.755-.811-4.97-1.642-9.938-1.62-14.903.037-8.078,2.335-16.121,3.519-24.152,3.069-20.803-2.711-36.508-3.95-57.421.567-1.864,1.144-3.987,1.723-6.566,1.486-6.606,1.833-13.563,3.071-20.213.15-.158.301-.315.452-.471.004-.001.008-.003.012-.004l-.002-.006c1.309-1.341,2.665-2.589,4.039-3.806.035-.021.071-.037.106-.059l-.014-.022c.776-.687,1.556-1.366,2.336-2.049,6.256-5.479,12.692-11.133,14.41-18.557,3.567,5.771,7.36,15.123,11.147,24.187.508,5.024-1.837,14.414-2.981,19.292-1.839,7.93-5.759,16.628-1.786,24.006l1.111-.598c-3.682-6.838.038-15.155,2.237-24.542,1.015-4.31,2.437-10.364,2.708-15.088.184.436.369.871.553,1.304l-.091.127c.067.048.134.085.201.129.425.996.85,1.981,1.274,2.947-.969,14.947-1.374,26.15-1.394,35.442l-.226.118c.074.143.15.289.225.433-.001,3.093.04,5.978.118,8.716l-.02-.012c-2.55,4.278-5.421,10.753-5.83,16.096-.325,4.241.584,9.176,1.875,13.181l1.201-.387c-1.246-3.866-2.129-8.639-1.818-12.697.341-4.451,2.488-9.759,4.669-13.801.339,9.088,1.08,16.74,1.962,25.695,1.483,15.053,2.275,23.72,2.43,41.178-1.222,1.337-2.32,2.662-3.21,4.258-1.969,3.53-2.254,8.72,1.095,11.387l.786-.988c-2.805-2.234-2.495-6.708-.779-9.784.595-1.067,1.327-2.043,2.122-2.983.04,6.591-.003,14.408-.13,24.208-.267.4-.519.814-.731,1.251-1.122,2.305-1.076,5.147.122,7.416l.51-.269c-.258,24.644.004,47.259,4.867,71.398.756,3.729,1.516,7.54,1.62,11.304-.652,5.46-1.892,10.839-3.977,16.104-2.404,3.213-1.75,6.581.401,8.021.532.357,1.111.561,1.671.759.339.12.596.216.824.316.297.748.692,1.313,1.207,1.624l.341-.564c.059.051.112.094.176.15,2.093,1.806,3.146,2.112,5.582.805,1.317-.705,1.581-.724,2.678-.627.114.01.232.013.347.021l.191,1.081,1.242-.219-.163-.924c1.269-.279,2-1.138,2.121-2.493h.02c-2.861-63.707-3.198-62.483-1.547-77.988.473-4.441.962-9.034.945-13.59-.006-1.689-.097-3.372-.234-5.051.696-14.006-2.112-28.035-8.114-40.696-.007-.399-.013-.792-.018-1.177.741.72,1.137,1.008,1.646,1.829,1.22,1.968.97,4.732,2.065,7.059.749,1.592,2.043,2.809,2.991,4.118,1.891,2.605,2.671,5.92,2.14,9.094l1.245.208c.586-3.506-.276-7.167-2.363-10.044-2.096-2.885-2.93-2.735-3.717-7.042-.638-3.494-1.165-4.335-3.369-6.362-.226-.208-.444-.43-.658-.663-.078-10.076.456-15.756,2.123-28.886,2.535-19.954,3.134-28.299-.189-44.06-1.139-5.4-1.607-7.776-1.953-12.334.445.874.88,1.996,1.319,3.181.099,1.249.254,2.49.52,3.71.469,2.148,1.247,4.145,1.765,6.228,2.504,10.062-1.23,21.594,3.631,31.099l1.124-.575c-2.675-5.232-2.61-11.091-2.54-17.294.081-7.168.029-10.433-1.803-16.35-.155-.499-.294-.954-.422-1.389.295.506.599.936.92,1.23,1.512,1.378,2.129,2.1,2.509,3.633-.273.685-.096,1.418.345,2.012.758,5.76.925,11.615.488,17.408l1.258.094c.413-5.478.291-11.011-.35-16.47.292.106.599.169.913.169,1.481,0,3.25-1.52,3.44-4.536.158-2.507-.586-4.934-1.306-7.28-1.266-4.125-1.615-5.684-.859-9.042.92-4.079.442-5.539-3.301-8.269-6.12-4.469-5.945-10.047-10.069-15.656-1.371-1.865-3.143-3.442-5.14-4.63,2.947-1.268,5.76-3.032,8.128-1.066,1.002.833,2.544,5.641,3.415,6.938,1.309,1.95,1.842,2.362,2.582,2.584.397,1.953.976,3.895,1.805,5.84l1.161-.495c-.682-1.601-1.201-3.277-1.588-4.987.471.143,1.046.356,1.798.732,1.485.741,3.045,1.346,3.992,2.552,2.641,3.364-.897,9.233,1.684,13.392l1.072-.665c-2.287-3.686,1.297-9.607-1.763-13.506-.972-1.24-2.374-1.914-3.729-2.565-1.279-.618-1.974-.996-3.339-1.323-.585-3.304-.63-6.712-.084-9.995.123-.735.273-1.479.419-2.228,1.406-1.138,2.627-2.643,3.801-4.174l-1.001-.767c-.766.999-1.561,2.005-2.445,2.907.248-1.677.336-3.366-.1-5.037-.635-2.432-2.229-4.313-2.975-6.547-.015-.046-.024-.095-.039-.141l.011.015c1.461-1.082,2.629-1.63,3.789-1.778,1.165-.15,2.664.21,3.371,1.347.586.943.338.128,3.76,26.299l1.251-.164c-3.433-26.26-3.156-25.543-3.939-26.802-.868-1.396-2.718-2.176-4.602-1.932-1.557.198-2.901.969-3.954,1.708-.693-3.885.462-8.425-.728-12.167.958-1.13,2.603-3.251,6.335-7.966l-.99-.784c-3.279,4.143-4.918,6.251-5.895,7.443-.266-.516-.579-1.016-.981-1.486-.643-.752-1.399-1.329-2.169-1.867.04-.128.088-.253.125-.383.501-1.756.673-3.535,1.581-4.935l-1.059-.686c-.765,1.179-1.076,2.528-1.377,3.832-.113.491-.241.956-.379,1.406-.64-.445-1.258-.903-1.791-1.454-.681-.704-1.297-1.644-2.258-2.23-.268-.164-.546-.288-.829-.381.067-.417.141-.855.229-1.346l-.824-.147c3.605-4.88,7.774-9.625,9.558-15.481,2.09-6.856.686-14.701,4.32-20.579l-1.073-.663c-2.312,3.74-2.719,8.167-3.111,12.447-.491,5.363-.929,8.424-2.924,12.258.468-3.07.044-6.269.158-9.321.034-.911.131-1.823.251-2.735.316.516.695,1.016,1.165,1.491l.896-.888c-.856-.864-1.386-1.81-1.706-2.856.713-3.9,1.819-7.816,2.101-11.777.122-1.716.085-3.433-.035-5.149,1.039-3.1,2.19-6.222,2.997-9.836,1.635-7.321,1.858-20.146-.346-27.98,1.176-5.591.393-11.461,1.141-16.978.254.052.514.079.783.089l-.07.389c1.87.337,2.611,2.937,4.541,4.089l.647-1.083c-1.225-.731-2.004-2.451-3.321-3.483.453-.041.936-.086,1.462-.114.175-.009.349.004.524.005.667,1.155,1.416,2.259,2.261,3.277.747.901,1.577,1.77,2.379,2.611,5.054,5.299,5.29,6.945,5.182,11.563-.269,11.198,2.709,27.982,10.917,35.254l.837-.944c-7.884-6.985-10.606-23.716-10.512-33.258.017-1.819.172-3.717-.263-5.572-1.016-4.343-4.865-7.202-7.569-10.459-.611-.737-1.169-1.522-1.683-2.337,2.112.385,4.095,1.497,5.471,3.141l.968-.81c-1.783-2.133-4.474-3.481-7.241-3.706-1.147-2.131-1.958-4.447-2.385-6.815.179.04.36.068.536.12l.359-1.209c-.223-.066-.453-.104-.68-.153.485-1.044.968-2.09,1.395-3.15.416-1.031.763-2.091,1.079-3.16,1.498.065,2.519.903,2.768,1.923l1.226-.301c-.299-1.22-1.307-2.242-2.629-2.667-.342-.109-.68-.176-1.017-.209.188-.734.347-1.475.488-2.221,1.925,1.669,3.996,3.162,6.168,4.451.47,1.938.885,3.929,1.306,5.948,1.281,6.161,2.14,10.005,3.905,14.081.776,16.51,2.057,19.392,5.435,28.196,5.872,15.296,5.803,19.104,5.16,27.93-.155,2.132-.316,4.337-.294,6.522.05,5.033,1.077,9.931,2.662,14.643.887,16.807,2.031,18.31,4.657,22.703,1.454,2.433,2.828,4.732,2.807,7.351l1.262.01c.035-4.523-3.496-8.041-5.098-11.973-1.06-2.6-1.71-8.153-2.129-14.038,3.102,7.571,7.444,14.574,11.283,20.744.988,8.999,2.355,12.212,5.492,18.071-.067-.079-.129-.152-.197-.232.461,3.231.603,3.502.175,7.568-.202,1.914-.411,3.894-.107,5.849,1.422,9.164,3.128,18.404,5.07,27.465l1.234-.265c-1.937-9.036-3.638-18.253-5.057-27.394-.462-2.982.382-6.102.375-9.274.408.481.781.922,1.139,1.344.657,1.383,1.214,2.741,1.73,4.303-.037.729-.111,1.423-.226,2.114l.904.15c.674,2.485,1.317,5.573,2.077,9.918l1.243-.217c-.704-4.023-1.437-8.153-2.73-12.119.007-.184.009-.373.012-.561,4.537,5.558,1.184,2.987,8.714,21.14.516,1.245,1.293,1.238,1.601,1.174l-.245-1.238ZM186.706,183.556l-.007.006s.005.006.008.01c.139,3.876.635,7.362,1.853,10.146,5.627,12.86,9.034,28.47,10.564,36.63.43,2.295.797,4.283,1.109,6.043-1.978-2.304-2.73-5.7-3.457-9.012-.939-4.274-1.285-5.557-3.838-11.094-.194-.422-.368-.832-.555-1.25-.369-4.522-.746-9.057-1.888-13.379-1.138-4.304-3.03-8.409-4.542-12.515-1.232-3.346-2.087-6.721-2.723-10.118-.895-14.169,1.221-25.864.665-36.94.361.954.735,1.902,1.126,2.839,4.366,10.456,1.255,26.474,1.686,38.634ZM190.788,211.311c-3.547-8.683-5.567-16.533-6.649-23.742.605,1.868,1.31,3.818,2.148,5.927,2.819,7.094,3.722,9.888,4.501,17.815ZM161.501,82.579c9.026,7.898,14.633,18.214,14.637,26.993.019.169,1.714,15.021,6.664,29.473l-.39.04c.947,9.336-.305,18.885-.645,28.341-.438-5.455-.673-10.963-1.2-16.51l.118-.238c-.051-.025-.097-.057-.147-.083-.328-3.375-.766-6.765-1.442-10.167-2.449-12.323-3.155-16.461-4.792-21.03-1.746-4.868-4.431-9.449-5.806-14.341-1.427-5.073-1.631-10.945-4.796-15.34,1.14.521,2.006,1.1,2.424,1.581,5.218,6.001,6.981,15.839,7.151,23.757l1.261-.028c-.157-8.334-1.991-18.268-7.461-24.557-.864-.994-2.791-2.063-5.129-2.733-1.137-1.071-2.404-1.968-3.682-2.845-2.287-3.225-4.748-6.363-6.825-9.573,4.036,2.452,7.607,5.115,10.059,7.261ZM155.13,87.25c.004-.726,0-1.452-.041-2.176.49.656.941,1.332,1.358,2.026-.442.028-.881.075-1.317.149ZM151.631,89.231c.729-.153,1.458-.302,2.187-.448-.042.84-.113,1.676-.214,2.51-.684-.663-1.337-1.356-1.973-2.063ZM141.32,92.193c-.909.663-2.361,4.489-2.781,5.891-.395,1.316-3.956,3.063-5.38,3.063-.595-.053-1.759-1.847-2.747-3.17,1.524-.781,3.006-1.656,4.418-2.617.53-.361,1.072-.766,1.37-1.399.399-.847.192-1.763.197-2.49.01-1.738,1.3-3.208,2.503-4.002,1.469-.97,3.242-1.435,4.957-1.885,2.322-.608,2.92-.405,4.577,1.775.271.358.559.705.842,1.054-.625.125-1.248.26-1.876.371-2.819.499-4.953,1.72-6.078,3.409ZM121.613,162.917c1.637-.025,3.03.075,4.178,1.067-2.36-.032-4.466.747-6.357.138-1.593-.512-3.18-2.027-5.038-1.924.063-.813.125-1.628.187-2.444.133.117.263.226.399.346,3.152,2.802,4.069,2.86,6.632,2.817ZM126.92,165.417c.404.717.764,1.644,1.083,2.82-1.658-1.256-2.24-2.017-4.248-2.847,1.25-.131,2.292-.114,3.165.027ZM116.386,206.548c-.483.064-.99.128-1.5.167-.612-4.756-1.056-8.653-1.334-12.313,4.628-.426,9.298,2.144,14.318,2.591-1.754,3.227-4.489,6.057-6.969,8.805-1.516.353-3.064.557-4.515.749ZM133.906,217.254c.912,4.633,1.624,1.634-2.019,12.148l.546-.07c-.956,1.608-1.861,3.447-2.63,5.717-.423,1.25-.834,2.433-1.403,3.547-.012.01-.024.019-.036.029l.013.016c-.058.113-.109.229-.171.341-.394.709-.962,1.448-1.646,2.074-.931-2.314-1.931-4.615-3-6.904,1.475-.678,2.749-1.796,3.526-3.243,1.276-2.378,1.16-5.168,1.562-7.651.555-3.441,2.109-6.496,4.044-9.425.373-.129.753-.198,1.13-.212-.128,1.193-.155,2.423.083,3.634ZM123.826,244.953c-.162-.389-.324-.776-.487-1.164.957-.019,1.863-.296,2.689-.766.407,1.053.799,2.112,1.177,3.177-1.206-.226-2.349-.595-3.379-1.248ZM127.685,247.552c.704,2.058,1.356,4.135,1.952,6.228-.789.066-1.557-.047-2.296-.441-.921-2.163-1.846-4.383-2.771-6.604.997.412,2.044.662,3.115.817ZM123.023,242.545l-.022.436c-1.181-2.814-2.36-5.574-3.531-8.167.983.114,1.978.037,2.929-.233,1.129,2.373,2.19,4.783,3.166,7.233-.764.47-1.622.768-2.542.731ZM127.136,225.263c-.184,1.825-.357,3.55-1.162,5.05-.637,1.186-1.71,2.117-2.95,2.686-.477-.999-.966-1.996-1.47-2.991-.703-1.39-1.301-2.6-1.829-3.711,1.197.499,2.657.518,3.852-.045,3.66-1.725,4.183-6.086,5.828-9.262-1.172,2.437-1.943,5.033-2.269,8.275ZM121.708,233.129c.046.094.089.189.135.283-.97.245-1.987.279-2.948.04l-.016.065c-1.662-3.608-3.303-6.833-4.902-9.332-.396-3.353-.699-6.586-.927-9.726l.064-.047c-.022-.031-.05-.053-.073-.082-.1-1.38-.183-2.74-.255-4.085.306-.739.584-1.489.844-2.247.041.002.082.004.123.005.644,4.937,1.387,9.499,2.083,11.899,1.351,4.661,3.767,8.947,5.872,13.227ZM113.936,150.392c.008-1.984-.003-4.003-.037-6.06.095-.077.182-.164.275-.245-.044,2.098-.127,4.2-.238,6.305ZM113.86,142.279c.035-.086.076-.175.104-.258l-.111-.037c-.032-1.267-.076-2.556-.127-3.857.155.152.312.295.462.458.024,1.426.026,2.855.006,4.286l-.271-.264c-.018.018-.038.033-.056.051-.003-.127-.004-.252-.007-.379ZM89.635,104.745c1.626-.389,2.989-1.399,4.486-2.341,5.454-3.431,9.846-3.619,14.858-2.295.005.136.01.272.015.408-1.014.913-1.968,1.739-2.605,2.203-.448.326-.84.791-1.195,1.339-1.95-.801-3.219-.617-5.79.286-3.479,1.219-6.824,1.243-9.769.401ZM89.569,91.966c-.439-.661-1.337-1.831-2.562-2.568.662-.481,1.304-.95,2.051-1.262.664-.276,1.346-.366,2.039-.352.034.01.064.02.098.03l.008-.028c1.351.05,2.749.519,4.173,1.02-2.714.934-4.135,2.539-5.42,3.75-.124-.191-.25-.384-.387-.59ZM91.347,92.962c1.758-1.735,3.599-2.962,6.245-3.424,1.308.373,2.628.57,3.945.321.498.267,1.968-.705,2.874-.705.667,0,3.263-.52,4.672,0,.297.109.581.268.856.451-.574,2.027-.851,4.156-.951,6.338-1.311.16-2.691.41-4.061.662-4.988.918-4.314.633-7.202.595-4.616-.056-5.313-.838-7.068-3.559.224-.214.449-.44.691-.679ZM125.146,69.903c3.796-2.53,9.196-2.054,14.797-.138.193.209.405.401.655.562l.171-.265c2.816,1.029,5.664,2.396,8.37,3.913,1.219,2.09,2.639,4.151,4.102,6.167l-.06.012c.054.263.085.531.134.795-1.288-1.318-2.549-2.768-4.205-3.745-3.061-1.802-7.369-1.73-11.245.189-2.965,1.469-5.378,3.696-7.658,5.971-.636.359-2.286,2.289-2.756,2.558-.52.297-3.115,1.927-3.189,1.261-.074-.668.223-3.041.148-4.377-.074-1.335-.074-2.3-.297-2.447-.009-.006-.027,0-.039-.003.199-4.057.21-6.933.322-9.938.25-.172.486-.34.75-.516ZM154.821,82.296c.037.05.072.098.108.147-.032-.027-.065-.055-.097-.082-.003-.022-.008-.043-.011-.065ZM110.213,97.097c.91-.071,1.749-.074,2.462.031-.616.567-1.412,1.309-2.257,2.088-.068-.02-.135-.04-.202-.06-.013-.69-.018-1.378-.004-2.059ZM111.013,90.514c.56.588,1.038,1.265,1.406,1.891.516.877.958,2.643,1.18,3.64-.954-.262-2.092-.31-3.339-.224.095-1.827.323-3.608.752-5.308ZM122.746,81.578c-.013.026-.032.055-.042.08-.607,1.514-.148,4.895-.297,7.119-.149,2.225-1.188,4.746-2.374,5.489-.815.509-3.03.809-4.818,1.38-.163-.548-.328-1.069-.494-1.559-.247-1.201-.519-2.591-.595-3.24-.128-1.092-.256-4.352-.096-5.59l.042.009c1.125-5.458,2.172-8.923,9.031-13.932-.096,3.029-.122,6.06-.356,10.244ZM112.852,85.935c-.055,1.449.004,3.288-.144,3.709-.316-.506-.644-.955-.985-1.355.313-.81.688-1.596,1.129-2.354ZM108.953,97.225c-.009.527-.01,1.055-.003,1.586-1.794-.452-3.501-.711-5.189-.718,1.679-.291,3.503-.652,5.191-.868ZM149.491,86.666c-1.914-2.518-2.945-3.094-5.956-2.302-1.729.454-3.689.969-5.331,2.053-1.935,1.278-3.203,3.179-3.043,5.716.077,1.218.006,1.47-1.042,2.184-1.449.986-2.975,1.877-4.544,2.667-.39-.371-.915-.73-1.48-1.052.204-.185.109-.614-.235-.588-.277.009-.534.036-.801.055-.533-.246-1.031-.439-1.387-.541-1.038-.297-2.374-.741-2.374-.741,0,0,.742-4.005.891-4.746.148-.741,3.263-1.928,4.153-2.374.891-.444,2.819-2.521,2.819-2.521,0,0-.025-.087-.068-.21,2.21-2.205,4.539-4.357,7.335-5.742,2.742-1.358,6.821-2.131,10.044-.232,1.249.736,2.257,1.788,3.325,2.901.713.744,1.242,1.285,1.838,1.816.007.057.009.115.016.172l-.07.065c.03.032.056.066.085.098.149,1.377.227,2.763.21,4.151-1.072.211-2.142.421-3.204.642-.404-.483-.799-.971-1.179-1.471ZM156.934,85.504c.109.076.215.149.331.229.033.022.061.043.094.065.314.443.619.879.909,1.302-.126-.008-.252-.018-.379-.022-.3-.534-.616-1.06-.955-1.573ZM161.294,88.855c2.446,2.37,3.587,5.151,4.899,11.729,1.017,5.098,1.434,6.686,4.397,13.236,2.763,6.109,3.55,8.148,5.429,17.604,1.793,9.02,2.56,12.366,3.168,18.293-2.994-2.395-4.197-6.59-4.662-9.09-.776-4.176-.783-8.605-2.33-12.688-1.083-2.856-2.833-5.319-4.189-7.979-.318-.625-.611-1.263-.889-1.908-.317-6.954-.584-13.939-2.263-20.433-.81-3.134-2.272-6.058-4.019-8.877.154.037.308.072.458.112ZM129.594,65.642c2.356-1.845,6.228-1.889,7.41-1.117,1.02.668,1.343,2.188,1.932,3.579-3.983-1.175-7.807-1.573-11.056-.744.609-.644.987-1.149,1.714-1.718ZM122.804,26.301c-.217,1.21-.497,2.376-.807,3.451-.675,2.343-1.519,4.706-2.25,7.101-.77-3.448.119-6.113,3.057-10.551ZM120.854,55.203c-1.029-6.048-2.236-7.876-.932-13.944.954,2.163,2.099,4.275,2.844,6.435,1.838,5.33,1.268,11.317.765,16.599-.192,2.01-.299,3.76-.371,5.445-1.415.995-2.611,1.934-3.635,2.84,1.653-5.259,2.222-12.122,1.328-17.375ZM113.125,83.665l-.186-.143c-.917,1.192-1.619,2.462-2.178,3.782-1.624-1.417-3.556-2.065-6.008-2.72-2.661-.71-3.648-1.073-5.391-2.255l1.181-.071c-.205-3.436-.27-6.086-.327-8.425-.032-1.304-.083-2.521-.14-3.693,7.932,5.322,12.662,9.603,13.808,10.677-.294.906-.535,1.849-.758,2.847ZM100.907,29.752c-.368-1.278-.699-2.682-.925-4.141,3.488,5.128,4.428,7.925,3.362,11.86-.77-2.606-1.702-5.174-2.436-7.719ZM100.484,47.694c.683-1.983,1.705-3.923,2.606-5.9,1.145,5.759-.06,7.639-1.041,13.409-.874,5.138-.317,10.683,1.552,15.831-.999-.705-2.056-1.432-3.179-2.181-.14-.093-.287-.17-.43-.256-.555-9.483-1.623-14.771.491-20.903ZM98.737,67.949c-.052-.023-.103-.05-.156-.072l.135-.251c.007.108.014.216.02.323ZM95.42,67.051c-3.572-.474-7.701.319-11.906,1.851,5.047-5.594,5.452-5.435,11.906-1.851ZM98.81,69.367c.177,3.865.133,7.252.469,12.906-.399-.273-.837-.588-1.345-.96-1.152-.844-2.344-1.717-3.697-2.319-4.528-2.014-9.327-.695-13.746,1.01l.237-.389c-3.559-2.169-5.749-3.52-7.163-4.377,8.393-5.075,18.753-9.204,25.246-5.871ZM72.349,75.988l7.198,4.386c-2.153.862-4.201,1.766-6.066,2.36-2.004.636-4.07,1.077-5.958,2.07-.455.239-.891.517-1.315.819.455-2.416,1.25-4.798,2.393-7.128,1.176-.834,2.432-1.678,3.749-2.506ZM68.073,75.334c1.439-.58,2.069-.568,3.002-.09-2.714,1.75-5.22,3.605-7.361,5.385l-.065-.033c-.025.048-.046.097-.071.146-.357.298-.706.595-1.041.888-2.698,2.361-5.087,4.94-7.136,7.626,1.901-6.186,6.663-11.498,12.672-13.922ZM53.171,94.862c-.297,4.201-.115,8.427-1.87,12.069-1.112,2.305-3.042,4.939-1.875,7.525l1.151-.518c-.714-1.582.258-3.409,1.199-5.175,3.267-6.133,2.048-10.554,2.922-16.373,2.061-3.083,4.61-6.06,7.551-8.787-3.994,9.333-4.834,19.085-4.957,28.123-1.752,7.509-4.187,14.874-6.848,22.114.054-6.171-.796-12.438-2.552-18.525.582-3.504.835-5.723.843-5.81,0-4.628,1.596-9.709,4.435-14.641ZM39.849,144.922c3.864-9.254,6.222-19.57,7.529-26.673,1.809,7.28,2.124,13.656,1.681,19.307-1.061,2.805-2.142,5.591-3.217,8.36-3.73,9.608-6.277,16.578-8.131,22.275-.402-8.405-.529-16.884,2.137-23.268ZM37.93,172.508c-.011-.225-.022-.45-.034-.675.069-.23.139-.46.209-.69-.024.399-.043.788-.056,1.166-.04.067-.078.131-.119.199ZM40.031,165.176c2.563-7.543,5.522-14.997,8.406-22.47-.844,5.165-2.201,9.674-3.374,13.665-2.158,7.351-3.113,9.363-5.588,13.544.137-1.685.348-3.296.582-4.736l-.027-.004ZM35.154,193.212c-1.305,2.983-2.486,6.112-3.558,9.261.887-5.255,1.731-10.496,2.652-15.668.527-2.96,1.179-5.892,1.924-8.803.237-.411.467-.807.689-1.187.237,6.431.099,12.27-1.707,16.397ZM56.97,132.974c-1.482,13.814-2.578,14.272-6.113,27.781-2.411,9.217-4.86,18.568-7.583,27.876-.54-2.029-1.577-3.473-2.605-6.168-1.11-2.91-1.423-6.408-1.342-9.804,3.3-5.501,4.447-7.414,6.948-15.932,1.257-4.279,2.557-8.704,3.331-13.199.318-1.848.522-3.725.664-5.613,2.621-6.934,5.081-13.906,7.013-20.996.042,5.898.19,11.367-.313,16.055ZM59.547,98.64c-.156,1.492-.36,2.975-.585,4.455.626-7.18,2.132-14.537,5.627-21.547.61-.502,1.266-1.021,1.967-1.554-.908,2.25-1.52,4.541-1.827,6.86-2.793,2.71-4.668,6.887-5.182,11.785ZM65.781,91.787c-.077-1.452-.018-2.897.148-4.333.676-.607,1.403-1.125,2.18-1.533,1.286-.676,2.677-1.079,4.15-1.505,7.789-2.259,14.796-7.234,21.464-4.268,2.399,1.068,4.424,3.21,6.927,4.396,3.184,1.51,6.082,1.388,8.585,3.18-.102-.02-.193-.051-.301-.065-2.373-.296-3.709,0-4.672.074-.964.074-2.447.222-2.67.815-.003.007-.004.013-.007.02-1.784.451-3.686-.213-5.684-.915-1.974-.693-3.418-1.049-4.598-1.125-3.928-1.159-4.913-3.215-7.103-3.427l-.122,1.255c1.295.126,2.344,1.424,4.673,2.544-.804.317-1.571.815-2.475,1.465-.223.161-.441.309-.66.459-.45-.1-.928-.125-1.431-.045l.126.806s-.008.005-.012.007c-1.598.693-3.663.573-5.667-.332-1.87-.844-3.491-2.216-5.059-3.541l-.815.963c2.744,2.322,5.591,4.615,9.266,4.615,1.647,0,2.797-.486,3.783-1.092,1.278.502,2.268,1.794,2.708,2.458.155.233.306.475.458.72-.198.143-.398.276-.608.384-.092.048-.209.09-.318.134-1.081.007-2.163.213-3.162.622-3.653.324-9.096-.033-13.75-1.303l-.332,1.218c3.555.97,7.19,1.457,10.849,1.457.354,0,.681-.005,1.004-.011-1.781,1.459-1.785,2.272-6.345,3.133-.731.137-1.487.28-2.221.483-.984.272-1.982.747-2.819,1.385-.375-.584-.792-1.152-1.279-1.687-2.518-2.764-3.973-2.904-4.213-7.413ZM95.656,110.295c-6.692-1.408-8.43-.173-11.042,2.624-.642.687-1.248,1.337-1.968,1.83-2.166,1.485-5.362,1.241-7.275-.559l-.73.776c-.251-.776-.518-1.547-.817-2.305l-.183.072c.196-3.694-.072-7.496-1.733-10.745.722-.581,1.625-1.023,2.519-1.27,2.205-.607,4.714-.659,6.775-1.985,1.066-.685,1.828-1.587,2.772-2.273.385-.279.804-.51,1.241-.702,1.341-.123,2.319-.326,3.082-.602.559.016,1.115.094,1.65.247l.096-.335c.622.911,1.337,1.761,2.315,2.356,2.175,1.325,4.815.925,7.135,1.096.13.01.282.005.424.006-2.272.538-4.621,1.592-7.231,3.3-1.034.674-2.011,1.311-3.109,1.64-1.181.355-2.749.268-3.586-.723l-.274.232c-.152-.098-.305-.193-.453-.296l-.72,1.035c1.827,1.272,3.941,2.115,6.138,2.55-2.018,1.288-2.934,1.736-5.452,1.605-1.535-.08-3.061-.34-4.536-.775l-.357,1.211c1.958.577,3.988.848,5.653.848,2.774,0,3.875-.87,6.613-2.62,2.09.17,4.207-.023,6.195-.65,1.532-.485,2.985-1.179,4.432-1.058.461.039.907.173,1.349.342-.63,1.306-1.133,2.87-1.603,4.376-.186.595-.276,1.271-.302,1.991-.001.002-.003.004-.005.006-.001.029.003.062.002.092-.003.097.003.2.003.298-1.199-.276-2.644-.623-3.997-.944v-.122c-.141.001-.27.018-.406.026-1.012-.239-1.946-.455-2.617-.597ZM109.645,134.976c.9.621,1.843,1.254,2.77,1.987.076,1.722.137,3.418.178,5.081-.438.92-1.318,2.001-2.317,2.914-.334.124-.675.23-1.021.318.044-3.232.169-6.631.39-10.302ZM103.216,146.47c-.739-.144-1.417-.253-2.06-.331,1.591.077,3.233.575,4.927.69.403.027.806.031,1.208.014-.218.061-.428.101-.619.101-1.053,0-2.515-.291-3.456-.474ZM109.238,147.318c.573-.349,1.145-.78,1.686-1.257.601-.237,1.177-.531,1.73-.866.03,2.222.032,4.394.014,6.531-.973.437-2.131.587-3.339.735-.014.002-.024.003-.038.005-.039-1.686-.058-3.395-.052-5.148ZM109.324,153.733c1.128-.139,2.276-.274,3.328-.641-.05,3.976-.167,7.826-.317,11.602-.876.42-1.647.763-2.333,1.038-.322-4.06-.558-7.975-.678-12ZM110.108,167.047c.645-.25,1.363-.558,2.169-.932-.096,2.298-.201,4.574-.308,6.837-.404.352-.816.673-1.246.938-.224-2.358-.431-4.628-.615-6.842ZM111.891,174.605c-.122,2.574-.241,5.139-.347,7.711-.242-2.47-.475-4.821-.692-7.078.355-.188.701-.4,1.039-.634ZM112.46,196.21c.004.045.008.091.012.136-.004,0-.009-.002-.013-.002,0-.044,0-.089,0-.133ZM112.592,197.65c.206,2.18.456,4.554.738,6.939-.165.687-.36,1.365-.569,2.037-.047-.01-.094-.018-.141-.029-.113-3.06-.165-6.044-.166-8.972.046.008.092.017.138.025ZM111.716,213.461c-.125-.037-.251-.067-.379-.09.109-.215.223-.428.329-.644.016.243.033.489.05.734ZM98.526,215.251c1.556,2.186,2.499,3.14,5.116,3.14,1.167,0,2.383-.119,3.604-.369-1.234,1.967-2.545,3.893-3.86,5.794-1.948.726-4.163,1.283-6.178,1.157-.001-.004-.002-.008-.004-.011-.064-.635-.133-1.273-.235-1.905-.02-.125-.057-.244-.08-.368.092-1.811.758-3.783.8-5.609.028-1.22-.199-2.419-.516-3.566.429.498.876,1.068,1.353,1.737ZM98.695,230.755c-.115-.142-.216-.289-.299-.442-.658-1.225-.894-2.622-1.057-4.068,1.598.064,3.271-.236,4.852-.701-1.311,1.899-2.471,3.621-3.496,5.212ZM95.274,211.719c1.408,4.088,1.333,5.215.797,7.919-1.149-3.26-3.05-6.215-5.15-9.084,1.661-.036,2.98.187,4.353,1.164ZM79.745,220.643c2.153-3.007,7.349-3.274,9.784-.4.986,1.165,1.575,2.718,2.754,3.923,1.069,1.093,2.369,1.683,3.769,1.936.176,1.642.426,3.305,1.233,4.807.182.338.428.649.714.938-.183.291-.36.576-.534.86-6.313.345-12.131,5.173-13.592,11.33-.206.87-.333,1.762-.457,2.624-.025.172-.049.332-.073.493-1.327.308-2.657.792-3.968,1.612-.602.375-1.171.731-1.787.948-.56.198-1.171.272-1.803.24.469-.578,1.137-1.185,2.107-1.976,3.571-2.907,4.066-4.382,2.963-8.759-.754-2.987-.63-3.597.134-5.633.223-.593.453-1.206.59-1.857.375-1.774-2.751-3.901-4.16-4.601.75-2.273,1.027-4.671,2.326-6.486ZM96.662,234.038c-2.578,4.375-4.091,7.957-5.179,12.315-2.156.265-4.472.19-6.825.546.123-.866.245-1.728.445-2.571,1.268-5.347,6.13-9.605,11.56-10.29ZM68.129,244.32l-.062.047c-.26-1.526-.336-3.084.097-4.562,1.267-4.318,6.48-6.725,8.619-11.069.07-.142.123-.289.186-.434,1.473.716,3.518,2.489,3.375,3.166-.272,1.284-1.013,2.534-1.205,3.989-.382,2.893,1.567,5.815.802,8.221-.772,2.428-3.979,3.62-5.537,6.039-.728-.212-1.458-.554-2.15-1.031-1.646-1.132-2.907-2.777-4.126-4.367ZM76.057,251.227c2.328,0,3.488-1.194,5.03-2.008.648-.342,1.333-.583,2.04-.768-.474,2.491-1.112,3.521-3.248,6.017-.135.157-.262.307-.387.455-1.873,1.271-3.656,2.667-5.339,4.165.286-1.638.454-3.295.511-5.007.04-1.291.116-2.166.409-2.927.32.043.645.072.984.072ZM75.341,264.911c-.821,4.545-1.62,6.512-2.766,7.961.865-2.833,1.508-5.701.807-8.608-.098-.408-.181-.735-.239-1.025.21-.67.401-1.339.566-2.008.158-.174.339-.36.57-.574.948-.877,1.944-1.705,2.961-2.509-.762,1.518-1.295,3.422-1.899,6.762ZM83.565,251.4c.471-1.046.714-2.132.896-3.224,2.153-.339,4.468-.282,6.713-.519-.105.47-.207.948-.305,1.44-2.819,1.031-5.557,2.311-8.168,3.82.322-.48.622-.978.865-1.517ZM80.67,285.519c-.075-12.944,2.141-21.298,5.492-27.4-.644,6.773-.666,12.906-.344,18.652-.398,1.274-.849,2.669-1.379,4.277-1.508,4.575-2.657,8.185-3.537,12.399-.12-2.654-.218-5.299-.233-7.928ZM80.16,311.791c-.039,1.493-.114,2.885-.23,4.245.072-1.487.148-2.905.23-4.245ZM78.117,333.88c-.254,12.93-.227,25.379-.044,37.082-.082.102-.165.21-.246.31-.599-19.787-.786-26.372-.478-31.08.046-.227.087-.456.134-.683l-.083-.017c.085-1.075.197-2.078.339-3.157.107-.819.239-1.637.379-2.454ZM83.358,474.807c-.125-.245-.25-.491-.375-.735-1.537-3.01-2.678-5.325-3.566-7.547.667-3.514,1.47-7.033,1.906-10.567.207-1.675.321-3.698.367-6.065.906,10.225,1.471,18.27,1.668,24.914ZM78.295,386.826c-.153-5.159-.291-9.711-.413-13.744.07-.075.147-.161.222-.243.081,4.73.186,9.332.307,13.793-.039.065-.077.13-.116.195ZM78.477,389.038c.164,5.704.351,11.163.543,16.335-.218-3.54-.39-7.06-.491-10.549-.056-1.937-.111-3.793-.164-5.587.037-.067.074-.132.111-.198ZM76.066,353.507c.216,7.415.388,13.68.537,19.097-.041.039-.079.083-.12.12-2.203,2.026-2.731,2.869-3.369,6.362-.089.485-.178.955-.284,1.413.399-10.898,1.366-21.827,3.119-32.586.017,1.659.057,3.503.118,5.594ZM79.343,371.382c.243-.3.497-.62.777-.985.702-.915,1.424-1.853,2.144-2.609l3.51,18.777c.149,2.434.281,4.869.404,7.305-.016-.022-.032-.044-.048-.066-2.699-3.619-1.826-3.986-2.293-6.929-.281-1.771-1.159-3.058-2.409-3.531-.513-.197-.947-.062-1.25.425-.193.307-.389.62-.587.937-.1-4.252-.184-8.688-.248-13.324ZM79.318,369.369c-.069-5.681-.108-11.629-.101-17.887l2.773,14.836c-1.051,1.025-1.906,2.065-2.672,3.051ZM75.949,449.079c-2.056-20.05-3.779-42.123-3.246-64.446.307-.894.563-1.573.708-1.881,1.102-2.342.841-5.086,2.065-7.059.369-.595.705-.929,1.174-1.378.158,5.757.289,10.521.418,14.661-2.092,3.846-3.805,8.152-3.625,12.73l1.26-.049c-.138-3.516.941-6.915,2.448-10.072.488,14.645,1.026,21.694,2.945,41.404.376,10.666.5,18.549-.026,22.814-.349,2.83-.93,5.621-1.49,8.425-1.232-3.761-1.882-7.848-2.631-15.149ZM73.719,511.224c-.57-3.964,1.691-7.813,2.974-11.771,2.794-8.615.959-17.895,1.794-26.751.122-1.297.308-2.593.523-3.891,1.345,3.029,2.961,5.985,4.412,8.931.22,16.393-2.134,23.974-7.563,37.01-1.098-.914-1.947-2.184-2.14-3.528ZM81.451,515.144c-1.117,1.327-2.938,1.217-4.537.333,4.082-9.913,6.118-16.261,7.045-22.764-.714,7.495-1.545,14.974-2.508,22.431ZM84.542,486.228c.082-1.852.108-3.8.094-5.911.113.252.223.504.33.756-.134,1.719-.277,3.437-.424,5.155ZM85.162,478.458c-.187-.396-.376-.791-.569-1.185-.012-.573-.025-1.156-.04-1.756-.358-13.977-1.811-28.4-3.213-42.787-.454-11.536-1.216-26.657-1.694-45.701.504-.836,1.011-1.649,1.502-2.431,1.971.992,1.313,4.223,1.911,6.336.595,2.106,2.198,3.592,3.231,5.318.106,2.264.206,4.529.289,6.796-.017.034-.029.07-.047.103l.051.027c.917,25.068.435,50.24-1.421,75.28ZM88.706,410.903c-.191,2.676-.348,5.102-.475,7.336-.072-4.97-.195-9.953-.378-14.953.98-2.186.966-4.806-.083-6.962-.071-.146-.152-.286-.231-.428-.149-3.143-.314-6.291-.507-9.448l-3.162-16.926c1.429,1.519,2.881,2.979,4.092,4.594.647,4.033,1.082,7.455,1.338,10.75-.251.329-.543.633-.882.903l.786.988c.076-.061.14-.129.213-.192.406,6.794.068,13.428-.711,24.336ZM90.371,382.371c-.038-.385-.061-.77-.105-1.154-.158-1.397-.358-2.793-.57-4.19.703,1.682,1,3.617.675,5.344ZM88.304,298.164c3.568,23.776,2.755,30.369.096,44.134-2.613,13.523-2.722,17.45-.838,29.34-1.252-1.411-2.655-2.801-4.139-4.505l-4.009-21.46-.176.032c.047-7.195.148-13.446.296-18.922.424-2.025.831-4.055,1.132-6.095,1.019-6.881.855-13.866.538-20.829,1.244-10.062,2.965-13.953,4.859-19.495.51,6.245,1.38,12.069,2.24,17.8ZM89.362,259.069c-.805,6.507-1.323,9.826-2.435,13.929-.147-5.39.043-11.145.775-17.424.83-1.245,1.711-2.39,2.627-3.465-.335,2.069-.645,4.354-.968,6.96ZM92.363,248.108c.047-.211.09-.424.14-.635.223-.039.443-.086.664-.134-.271.256-.539.512-.804.769ZM95.697,245.026c-.898.545-1.854.883-2.854,1.1.331-1.253.707-2.49,1.153-3.704,1.257-3.428,3.013-6.651,4.98-9.79,2.137,1.397,5.486,1.977,7.976,1.741-3.195,3.754-7.349,7.175-11.255,10.654ZM107.937,233.169l-.055-.221c-2.189.543-6.088.06-8.235-1.363,1.46-2.265,3.006-4.495,4.551-6.728.182-.071.365-.142.542-.214l-.147-.357c2.188-3.172,4.331-6.366,6.129-9.708.396.01.787.112,1.093.335.199,2.668.459,5.415.777,8.237l-.237-.024c-.375,3.718-2.052,6.999-4.418,10.043ZM129.975,255.028c.335,1.226.652,2.457.95,3.692.077.78.26,1.524.52,2.241.198.894.389,1.789.568,2.687-1.31-2.63-2.642-5.59-3.984-8.704.648.15,1.298.164,1.947.084ZM128.72,259.636c1.361,3.002,2.709,5.767,4.032,8.111.773,4.704,1.284,9.442,1.502,14.178.442,9.598.535,16.886.556,32.132-.416-7.675-3.991-14.806-7.316-21.195.017-8.808.369-19.464,1.226-33.227ZM139.545,375.361c.035,1.778.083,3.869.145,6.35-.906-2.281-1.82-4.526-2.717-6.72l-.111.045c-.231-2.578-.394-4.533-.509-6.431.478.569.954,1.184,1.422,1.792.69.899,1.25,1.576,1.722,2.115.005.402.012.821.019,1.264l-.59.294c.213.427.413.861.619,1.292ZM140.69,416.804c-.603,3.159-1.495,6.748-2.691,11.109-.845,3.08-1.704,6.253-2.38,9.425-.798-10.001-.669-17.545,1.048-28.841,1.065-7.007,1.607-10.902,1.317-18.403.867,2.702,1.578,5.074,2.137,7.26.156,5.422.344,11.823.57,19.45ZM135.412,448.193c.805,7.468,1.7,14.93,2.085,22.313-1.83-7.264-2.535-14.837-2.085-22.313ZM138.382,387.238c-.228-.703-.453-1.406-.676-2.109-.128-1.851-.291-3.897-.494-6.203.863,2.128,1.727,4.295,2.573,6.496.036,1.345.076,2.796.119,4.342-.504-.87-1.017-1.711-1.522-2.526ZM135.953,378.993c-.606-2.463-1.072-4.943-1.26-7.458-.063-.842-.088-1.726-.094-2.626.163-.177.321-.359.481-.538.217,3.502.552,7.06.873,10.623ZM134.975,366.538c-.116.137-.232.277-.347.41.041-1.114.121-2.252.244-3.41.021.994.053,1.993.103,3ZM131.287,348.638c-1.394-20.815-3.653-31.157-3.788-53.011,3.189,6.259,6.252,13.169,6.091,20.451l1.221.027c.009,9.634-.003,22.334.025,40.355-.987,4.05-1.482,8.192-1.502,11.942-.432.468-.855.919-1.267,1.356-.088-7.061-.311-14.106-.781-21.119ZM133.364,370.224c.018.475.037.948.071,1.405.353,4.72,1.627,9.32,3.044,13.802,0,.004,0,.008,0,.012-.06.014-.116.017-.179.041-1.249.474-2.127,1.76-2.408,3.531-.444,2.794.314,3.273-1.918,6.412.1-7.957.187-15.914.114-23.851.42-.452.846-.901,1.275-1.352ZM130.652,400.241c-.015,1.166-.028,2.33-.041,3.487-.277-1.142-.258-2.351.041-3.487ZM136.342,475.002c-5.025-25.322-4.724-51.35-4.394-77.394.991-1.412,2.221-2.757,2.723-4.535.6-2.12-.062-5.284,1.892-6.32.276,4.474.362,8.894-.033,13.151-.492,5.288-1.569,10.567-2.132,15.89-.912,8.629-.448,17.405.382,26.203-1.636,11.214-.631,22.902,2.895,33.681.029,1.948.009,3.888-.067,5.821-.373-2.173-.834-4.344-1.267-6.498ZM134.205,511.389c-1.455-.975-1.988-3.308-.414-5.76l.168.07c.091-.22.164-.444.252-.665.009-.012.017-.024.026-.036l-.01-.008c.507-1.274.959-2.56,1.371-3.854-.389,3.639-.615,7.938-.028,10.862-.509-.183-.997-.362-1.365-.609ZM144.721,513.633c-1.458.205-2.697,1.434-3.836,1.433-1.375-.012-2.4-1.639-3.919-2.483-1.154-3.901-.061-13.839.856-18.061.468-2.155.596-4.335.517-6.527.33-2.943.514-5.91.563-8.891.182.472.357.948.548,1.416l1.168-.478c-.627-1.533-1.196-3.092-1.715-4.669-.12-7.983-.987-16.017-1.858-23.86-.384-3.457-.723-6.563-1.003-9.434.163-1.109.344-2.215.56-3.313,1.097-5.569,2.862-11.098,4.244-16.675.494,16.68,1.146,38.598,1.996,67.664.131,4.49.266,9.133,1.439,13.543l1.825,10.351c-.482-.032-.968-.075-1.385-.017ZM147.381,513.618l-1.869-10.59c-1.456-5.489-1.202-3.793-3.547-86.043.685-3.668,1.074-7.368.859-11.125-.169-2.948-.705-5.838-1.428-8.695-.016-.564-.033-1.132-.049-1.701,1.084,2.651,1.792,5.452,1.679,8.333l1.26.049c.163-4.137-1.222-8.052-3.033-11.606-.03-1.043-.061-2.088-.092-3.152,3.114,8.539,5.718,17.527,6.478,26.67-.411,8.101-2.005,16.22-2.592,24.359-.674,9.337-.163,16.689,1.236,49.083l1.14-.05c.298,6.538.646,14.148,1.047,23.068-.07.921-.505,1.28-1.089,1.402ZM146.175,442.46c-.013.2-.026.398-.038.595.168-3.673.523-7.059,1.093-11.601-.373,3.674-.814,7.349-1.055,11.006ZM147.593,406.618c-1.495-7.377-3.913-14.569-6.544-21.432-.021-.706-.041-1.396-.062-2.112-.05-1.727-.094-3.33-.13-4.831,3.882,8.991,6.161,18.612,6.736,28.375ZM139.691,361.879c-.15,2.799-.246,4.523-.216,8.648-.935-1.199-1.926-2.544-3.224-3.869-.116-2.61-.157-5.484-.172-10.015,1.134-4.612,2.928-9.063,5.414-12.582-.752,5.947-1.484,11.895-1.801,17.818ZM142.896,306.948c1.717,11.416.376,23.023-1.091,34.643-2.456,2.888-4.359,6.609-5.734,10.63-.004-4.531,0-10.402-.015-18.371-.032-17.041.246-34.922-.541-51.983-.176-3.822-.531-7.578-1.043-11.283,5.083,7.963,4.258,9.096,5.167,18.296.604,6.138,2.349,12.026,3.258,18.069ZM140.629,284.444l-.059.064c-.515-6.693-1.322-8.866-5.358-15.113-.406-.629-.816-1.31-1.228-2.031-.151-.911-.307-1.82-.477-2.725,2.027,2.755,4.736,5.264,6.277,8.152,2.148,4.026,2.015,8.746,2.108,13.508-.397-.787-.813-1.445-1.263-1.855ZM146.275,274.317c1.688,1.409,3.803,2.446,4.395,4.314.526,1.662-.307,3.547-.563,5.499-.677,5.156,2.792,9.858,2.486,14.722-.19,3.019-2.147,3.994-3.294,2.841-.431-3.086-1.027-4.022-3.201-6.004-.993-.907-1.867-3.484-2.794-5.992-.09-1.246-.144-2.748-.174-4.71-.158-10.414-1.45-12.615-6.215-18.164-1.726-2.01-3.386-3.943-4.218-6.098-.172-.773-.343-1.545-.53-2.314-.018-.249-.028-.5-.021-.756l-.175-.005c-.241-.962-.49-1.922-.754-2.878.154-.044.308-.09.462-.141,8.969,4.456,8.248,14.386,14.597,19.685ZM147.006,260.863c-.299-.298-.662-.78-1.24-1.641-.853-1.271-2.28-6.061-3.656-7.204-3.356-2.788-7,.021-10.391,1.26-.349-.165-.703-.316-1.062-.456-.503-1.713-1.045-3.417-1.623-5.112.781.067,1.566.108,2.344.146,3.58.172,5.521.289,8.235,1.982,1.365.852,2.354,1.391,3.987,1.391,1.375,0,2.581-.371,3.674-.979-.64,3.642-.767,7.154-.267,10.615ZM146.256,239.128c1.76,3.243,2.219,4.496,1.319,9.419-.061.044-.113.098-.175.14-1.75,1.205-3.744,1.59-5.333,1.027-.976-.344-1.905-1.079-2.91-1.611-3.247-1.712-7.098-1.33-10.577-1.704-.483-1.37-.985-2.736-1.516-4.095.904-.743,1.677-1.686,2.246-2.71.035-.063.064-.128.098-.191,3.938-3.347,8.702-5.579,13.803-6.446l-.211-1.244c-4.539.772-8.818,2.586-12.531,5.265.52-1.425.938-2.872,1.541-4.261.577-1.331,1.317-2.579,2.13-3.792,2.915-1.092,7.878-4.347,9.275-5.409.177-.135.334-.262.495-.405.395,1.719.343,3.647.282,5.645-.182,5.937.358,7.226,2.066,10.372ZM142.438,220.055c.451.527.782,1.103,1.039,1.711-.308.327-.542.529-.827.745-1.318,1.003-4.547,3.081-7.082,4.383,1.931-2.642,3.98-5.24,5.215-8.289.605.435,1.17.884,1.655,1.45ZM135.413,213.996c.511.311.924.794,1.361,1.305.976,1.142,1.977,1.883,2.918,2.537-1.348,3.538-3.442,5.913-5.523,8.843,1.881-5.361,2.092-5.537,1.276-8.473-.466-1.676-.54-2.867-.381-4.368.117.05.238.088.349.156ZM133.993,212.338c-.095,0-.19.002-.285.007.121-.171.245-.34.368-.511-.028.167-.056.335-.083.504ZM142.08,160.389c.441,2.983.73,5.284.884,7.252-.575,1.724-1.113,3.453-1.537,5.268-2.583-9.067-2.537-18.975.109-28.035-.991,5.111-.214,10.39.544,15.515ZM141.762,180.435c.015-.554.038-1.123.073-1.723.152-2.596.628-4.934,1.253-7.19-.074,2.76-.53,5.218-1.326,8.913ZM146.01,157.68c-.565,2.532-1.306,4.823-2.06,7.048-.884-7.361-2.753-14.646-.707-21.547l-1.074-.319c.218-.641.446-1.278.691-1.908,1.08-2.781,2.426-5.532,3.354-8.426,1.568,7.682,1.25,18.637-.205,25.152ZM146.38,120.405c-.052,4.505-.268,7.215-.723,9.4l-.105.032c.02.065.036.138.055.204-.697,3.17-1.921,5.299-3.922,10.458-4.288,11.046-4.561,23.794-.767,35.021-.158,1.003-.278,2.036-.341,3.119-.116,1.982-.237,4.123.311,6.137-.657,3.68-.64,5.368-.548,8.459.219,7.399-.448,9.174-5.557,14.53-1.791,1.878-3.631,3.816-4.724,6.204-.194.177-.377.361-.542.555-2.747,3.212-2.792,8.849-6.477,10.586-1.576.743-3.993.075-4.297-1.617l-.262.047c-1.741-4.129-2.291-7.009-3.084-12.947-.121-.908-.236-1.776-.347-2.626.502-.04,1.005-.101,1.502-.167,10.785-1.425,10.309-3.809,14.988-6.846.82-.532,3.681-2.167,6.047-.853l.612-1.103c-2.012-1.117-4.759-.781-7.346.898-1.988,1.29-3.705,3.131-5.633,4.271-.627.371-1.292.674-1.977.932,2.259-2.483,4.523-5.059,6.023-8.032.01,0,.021.001.031.001,2.698,0,4.888-.714,6.541-2.139l-.823-.956c-2.325,2.003-5.983,2.368-10.873,1.082-.727-.191-1.461-.4-2.198-.608,2.912-.544,5.016-1.285,7.353-3.427,1.815-1.664,2.299-1.776,4.006-1.885,1.823-.12,3.42-.541,4.914-1.966l-.871-.914c-2.222,2.119-4.197,1.319-6.049,1.909-1.625.518-2.706,1.904-3.878,2.817-2.203,1.718-5.19,2.178-7.825,2.583l.039.257c-2.036-.509-4.098-.857-6.172-.672-.291-4.377-.341-8.528-.162-13.566.942.758,2.199,1.304,3.371,1.732,13.033,4.768,14.63,5.583,17.276,5.583,1.413,0,2.767-.374,3.818-1.437l-.898-.888c-1.812,1.834-5.121.912-7.452.06l-5.412-1.98c2.505.215,5.018.381,7.515.482l.051-1.261c-3.988-.16-8.02-.471-11.984-.923l-.01.083-2.472-.904c-1.368-.501-3.075-1.257-3.732-2.36.177-4.004.486-8.606.924-14.293.883-.122,1.772.362,2.785.921,1.458.804,2.303,1.184,3.773,1.208l-.034.118c4.769,1.384,4.317,2.146,7.611,4.374.012.063.026.118.038.182l.183-.034c1.233.817,2.961,1.824,5.6,3.12l.556-1.132c-2.403-1.181-4.042-2.124-5.245-2.906-.299-1.4-.658-2.544-1.062-3.482,2.666,1.087,3.527,3.511,6.077,4.874l.594-1.114c-1.629-.87-2.74-2.622-4.354-3.856-1.117-.854-2.185-1.322-3.209-1.56-1.172-1.718-2.575-2.287-3.976-2.466,2.898-.782,6.534-1.082,8.834-.361l.378-1.203c-3.489-1.097-9.5-.123-12.604,1.483-.078-.004-.155-.008-.231-.015-1.979-.162-3.544-1.989-5.311-3.441.252-3.424.479-6.869.621-10.323l2.622-.166c1.068.227,2.057,1.326,3.265,1.903,1.063.508,1.802.548,7.237,1.348l.184-1.248c-6.706-.987-6.394-.788-8.142-2.046-.05-.036-.101-.072-.151-.108l2.041-.129-.08-1.26-4.26.27c-.153-.023-.31-.039-.474-.039v.069l-2.197.139c.078-2.245.119-4.492.102-6.738,2.263,2.071,4.782,3.243,7.089,3.243,1.864,0,3.308-1.838,4.367-3.74,1.438.264,2.798.755,4.346,1.674,2.411,1.434,3.458,1.849,7.549,1.348l-.153-1.253c-4.646.566-4.984-.233-7.357-1.545.551-.123,1.01-.163,1.682-.174,1.929-.022,3.641-.535,5.129-1.953l-.87-.914c-1.965,1.874-4.238,1.571-5.064,1.633-.916.068-1.778.321-2.613.593-.668-.254-1.351-.439-2.043-.577.078-.161.154-.321.227-.477.484-1.036,1.392-2.448,2.294-3.927,1.203.498,2.446.947,3.759.947,1.73,0,3.255-.896,4.586-.583l.287-1.229c-1.042-.242-2.033.003-2.992.24-1.058.263-1.745.419-2.806.216.377-.214.648-.445.99-.753.395-.354.772-.68,1.111-.655l.127-1.255c-1.141-.12-1.885.865-2.525,1.352-.455.347-1.035.548-1.621.724-.083-.032-.17-.066-.258-.101.824-1.407,1.549-2.806,1.816-3.94,1-4.256.504-6.145.953-9.664,1.037.103,1.592.231,2.23.462,3.245,1.171,5.129,5.264,3.91,8.491l1.18.446c1.061-2.808.188-6.102-1.849-8.249,1.634-.031,2.644-.275,2.915-.244.432.05.94.541,1.72.492l-.079-1.26c-.163.014-.363-.086-.584-.188-1.594-.733-1.92.168-5.602-.109-.375-.222-.766-.418-1.181-.568-.729-.263-1.376-.411-2.468-.523.071-.404.15-.822.25-1.274-.077-.157-.155-.304-.233-.451.248-1.012.544-1.937.884-2.568.395-.735.49-2.25.417-3.924,2.393.276,2.716.314,3.222.314,1.491,0,2.447-.592,3.332-1.383,1.65.766,2.809,1.359,3.925,2.719.471.576.923.974,1.377,1.252-.268,1.965-.423,4.447-.463,7.88ZM147.061,111.161c-.967-.837-.806-1.707-4.546-3.537.298-.297.604-.598.941-.895,1.6-1.408,3.762-2.15,5.894-2.101-1.031,2.212-1.794,3.889-2.289,6.534ZM148.237,111.743c.133-.724.291-1.441.496-2.149.328-1.131.761-2.239,1.237-3.34.435,1.856,1.09,3.668,1.949,5.379-1.289.078-2.609.343-3.682.111ZM149.915,103.41c-2.616-.202-5.324.639-7.293,2.372-.332.292-.651.612-.97.932-2.217,2.225-2.521,2.172-6.749,1.642-.196-2.235-.626-4.472-1.014-5.358,0,0,0,0,.001,0-.008-.019-.015-.038-.023-.055,0,0,3.44-1.051,4.449-2.262,1.642-1.973,4.281-2.52,5.774-2.845l.002.014c4.093-.492,3.558.391,5.441.319.846-.03,1.575-.384,2.276-.615.171-.056.33-.082.494-.121-.268.858-.564,1.707-.9,2.539-.54,1.342-1.036,2.453-1.489,3.437ZM152.681,96.07c-.602.086-1.202.254-1.808.478-2.699.991-1.851-.472-6.492.005-.698-.005-2.957.007-3.581.382-.742.444,1.775-4.298,1.775-4.298,0,0-.004-.012-.007-.021,1.351-1.732,3.879-2.382,5.049-2.589.862-.152,1.725-.325,2.588-.502,1.003,1.155,2.071,2.256,3.195,3.299-.183,1.095-.434,2.176-.72,3.246ZM154.741,92.345c.186-1.263.3-2.535.352-3.81.038-.007.076-.015.115-.022.643-.117,1.29-.172,1.931-.185,1.341,2.535,2.295,5.288,3.07,8.181-1.928-1.228-3.76-2.627-5.468-4.164ZM161.757,97.467l.006-.011s-.007-.004-.011-.006c-.793-3.167-1.763-6.237-3.174-9.073.197.017.391.039.585.064,4.468,6.843,5.755,11.785,6.502,25.675-1.688-5.364-2.533-11.151-3.909-16.648ZM177.431,180.924c-.047-4.703.762-9.394.551-14.174-.409-9.277-4.643-17.964-7.665-26.505-2.102-5.94-2.696-12.431-3.045-19.021.37.706.769,1.433,1.211,2.195,2.744,4.741,3.343,6.203,4.18,13.088.174,1.43.353,2.909.622,4.352.664,3.569,2.256,8.181,6.063,10.521.222,2.447.433,5.368.679,9.22.196,3.065.382,5.781.599,8.298l-.064-.037c-2.598,4.525-2.401,10.132-2.242,14.637.083,2.367.167,4.528.251,6.534-.685-2.983-1.108-6.022-1.139-9.107ZM180.061,195.27c-.243-4.517-.376-8.85-.481-11.819-.133-3.779-.293-8.361,1.259-12.262.277,2.749.62,5.28,1.089,7.763,1.109,16.441,5.789,28.501,9.223,36.474.059.731.119,1.43.18,2.101-4.113-6.651-8.542-14.189-11.27-22.257ZM195.328,231.821c-1.55-4.037-2.178-8.367-2.599-12.774.881,2.022,1.572,3.669,1.935,4.948,1.425,5.016,1.738,11.244,5.925,14.479.317,1.905.55,3.503.699,4.888-.165-.194-.335-.394-.512-.601-1.775-3.695-4.008-7.187-5.449-10.941Z"/>
</svg>