<?xml version="1.0" encoding="UTF-8"?>
<svg xmlns="http://www.w3.org/2000/svg" width="300" height="200" viewBox="0 0 300 200" fill="none">
  <g clip-path="url(#clip0_2433_391)">
    <path d="M227.345 71.6152C212.179 71.6152 199.881 83.9131 199.881 99.0792C199.881 114.245 212.179 126.543 227.345 126.543C242.511 126.543 254.809 114.245 254.809 99.0792C254.809 83.9131 242.511 71.6152 227.345 71.6152ZM229.809 115.668C225.086 116.493 220.938 115.552 217.566 112.9C215.008 110.835 213.087 108.094 212.029 104.982L209.997 105.336L205.651 106.122L206.575 99.6606L210.927 98.8965C210.734 90.6296 215.889 84.0571 224.106 82.6064C229.023 81.7426 232.594 82.5344 237.024 85.5466L233.535 90.5853C230.545 88.7027 228.181 88.1379 225.512 88.6086C220.866 89.4059 217.904 93.0161 217.66 97.7116L223.469 96.6928L227.81 95.9231L226.885 102.379L222.528 103.149L218.807 103.808C220.75 108 224.859 110.314 229.526 109.489C232.284 109.079 234.687 107.413 236.038 104.976L240.789 108.764C237.721 112.844 234.532 114.843 229.809 115.668Z" fill="currentColor"></path>
    <path d="M78.2862 109.767C78.6184 129.7 69.0946 137.673 45.728 137.12V123.72C47.2784 123.831 47.8321 123.831 48.8288 123.831C53.1477 123.831 56.8022 122.834 59.0171 121.062C62.1178 118.515 63.1145 115.082 63.1145 106.112V74.5506H45.728V62.1475H78.2862V109.767Z" fill="currentColor"></path>
    <path d="M102.207 136.012H87.0356V62.1475H109.848C128.121 62.1475 137.977 70.2316 137.977 85.4033C137.977 97.0312 131.886 104.783 120.48 107.662L140.856 136.012H122.473L102.207 106.666V136.012ZM109.073 97.8064C117.711 97.8064 122.584 93.5982 122.584 86.1785C122.584 78.7588 117.933 74.6613 110.402 74.6613H102.207V97.8064H109.073Z" fill="currentColor"></path>
    <path d="M161.343 136.012H146.171V62.1475H161.343V94.2626L182.273 62.1475H199.881L175.96 97.6956L199.881 136.012H182.051L161.343 103.122V136.012Z" fill="currentColor"></path>
  </g>
  <defs>
    <clipPath id="clip0_2433_391">
      <rect width="209.086" height="75" fill="white" transform="translate(45.728 62.1475)"></rect>
    </clipPath>
  </defs>
</svg>
