<?xml version="1.0" encoding="UTF-8"?>
<svg id="Laag_1" data-name="Laag 1" xmlns="http://www.w3.org/2000/svg" viewBox="0 0 64 64" fill="currentColor">
  <defs>
    <style>
      .cls-1 {
        fill: none;
      }
    </style>
  </defs>
  <rect class="cls-1" x="0" width="64" height="64"/>
  <g>
    <path d="M6.575,35.425c2.047,2.047,4.735,3.07,7.425,3.07s5.378-1.023,7.425-3.07c4.094-4.094,4.094-10.755,0-14.849h0c-.682-.682-1.44-1.24-2.241-1.695,3.699-1.323,8.599-2.381,14.816-2.381,12.899,0,22.348,7.381,22.442,7.455l3.119-3.907c-.437-.349-10.854-8.548-25.562-8.548-18.882,0-27.156,8.779-27.499,9.153l.002.002c-4.018,4.1-3.996,10.701.072,14.77ZM17.89,31.889c-2.145,2.144-5.635,2.144-7.779,0-2.145-2.145-2.145-5.634,0-7.778,1.072-1.072,2.481-1.608,3.89-1.608s2.817.536,3.89,1.608c2.144,2.144,2.144,5.634,0,7.778Z"/>
    <path d="M57.425,28.575c-4.093-4.092-10.755-4.094-14.85,0-4.094,4.094-4.094,10.754,0,14.849.682.682,1.44,1.24,2.241,1.695-3.699,1.323-8.599,2.381-14.816,2.381-12.899,0-22.348-7.381-22.442-7.455l-3.119,3.907c.437.349,10.854,8.548,25.562,8.548,18.882,0,27.156-8.778,27.499-9.152l-.002-.002c4.018-4.101,3.996-10.701-.072-14.77ZM46.11,32.111c2.145-2.145,5.635-2.144,7.779,0,2.144,2.144,2.144,5.634,0,7.779-2.145,2.143-5.635,2.143-7.779,0-2.144-2.146-2.144-5.635,0-7.778Z"/>
  </g>
</svg>