<?xml version="1.0" encoding="UTF-8"?>
<svg id="Laag_1" data-name="Laag 1" xmlns="http://www.w3.org/2000/svg" viewBox="0 0 64 64" fill="currentColor">
  <defs>
    <style>
      .cls-1 {
        fill: none;
      }
    </style>
  </defs>
  <rect class="cls-1" width="64" height="64"/>
  <path d="M48,7.5c-6.142,0-12.574,6.012-16,21.362-3.426-15.35-9.858-21.362-16-21.362-3.15,0-5.71,1.241-7.402,3.589-2.931,4.065-2.599,10.815-.97,15.702l4.744-1.581c-1.194-3.582-1.501-8.724.281-11.197.469-.649,1.324-1.512,3.347-1.512,3.119,0,6.282,3.437,8.679,9.429,3.154,7.885,4.821,19.667,4.821,34.071h5c0-31.916,8.073-43.5,13.5-43.5,2.022,0,2.878.863,3.347,1.512,1.782,2.474,1.476,7.615.281,11.197l4.744,1.581c1.629-4.886,1.961-11.637-.97-15.702-1.692-2.348-4.252-3.589-7.402-3.589Z"/>
</svg>