<?xml version="1.0" encoding="UTF-8"?>
<svg id="Laag_1" data-name="Laag 1" xmlns="http://www.w3.org/2000/svg" viewBox="0 0 64 64" fill="currentColor">
  <defs>
    <style>
      .cls-1 {
        fill: none;
      }
    </style>
  </defs>
  <rect class="cls-1" x="0" width="64" height="64"/>
  <path d="M46.706,29.5c-3.981,0-7.599,2.351-9.214,5.988l-2.348,5.282c-.445-1.031-.645-2.14-.645-3.228v-17.023c0-6.218-4.718-11.394-10.74-11.784-3.214-.211-6.279.886-8.623,3.083-.112.105-.211.222-.318.331-.575-.774-1.277-1.46-2.104-2.012-1.401-.934-3.031-1.428-4.715-1.428v5c.693,0,1.364.203,1.941.588.976.651,1.559,1.739,1.559,2.912v30.789h5v-27.789c0-1.816.73-3.5,2.057-4.744,1.325-1.241,3.051-1.855,4.881-1.742,3.399.22,6.062,3.205,6.062,6.794v17.023c0,3.666,1.274,6.51,3.262,8.588l-1.044,2.35c-.815,1.834-2.64,3.02-4.646,3.02h-3.071v5h3.071c3.98,0,7.598-2.351,9.215-5.988l.657-1.479c2.197.988,4.658,1.467,7.057,1.467,4.047,0,7.231-1.166,9.464-3.466,2.769-2.854,3.088-6.439,3.032-8.324-.153-5.078-4.545-9.21-9.79-9.21ZM49.876,43.552c-1.255,1.293-3.232,1.948-5.876,1.948-2.061,0-3.73-.355-5.062-.955l3.123-7.026c.814-1.834,2.638-3.019,4.645-3.019,2.57,0,4.72,1.956,4.792,4.359.026.882-.079,3.103-1.622,4.692Z"/>
</svg>