<?xml version="1.0" encoding="UTF-8"?>
<svg id="Laag_1" data-name="Laag 1" xmlns="http://www.w3.org/2000/svg" viewBox="0 0 64 64" fill="currentColor">
  <defs>
    <style>
      .cls-1 {
        fill: none;
      }
    </style>
  </defs>
  <rect class="cls-1" x="0" width="64" height="64"/>
  <g>
    <path d="M47.465,16.019l-5.703,3.802c-.661.442-1.554.289-2.032-.348l-1.459-1.945c-2.068-2.76-5.937-3.421-8.806-1.509l-5.703,3.802c-.661.442-1.554.289-2.032-.348l-1.459-1.945c-2.068-2.76-5.937-3.421-8.806-1.509l-8.852,5.901,2.773,4.16,8.852-5.901c.663-.44,1.555-.289,2.032.348l1.459,1.945c2.068,2.759,5.937,3.42,8.806,1.509l5.703-3.802c.662-.44,1.555-.289,2.032.348l1.459,1.945c2.068,2.759,5.937,3.42,8.806,1.509l5.703-3.802c.663-.44,1.555-.289,2.032.348l3.729,4.973,4-3-3.729-4.972c-2.068-2.76-5.937-3.421-8.806-1.509Z"/>
    <path d="M47.465,40.019l-5.703,3.803c-.662.442-1.555.288-2.032-.349l-1.459-1.945c-2.067-2.758-5.938-3.422-8.806-1.509l-5.703,3.803c-.662.442-1.555.288-2.032-.349l-1.459-1.945c-2.069-2.758-5.938-3.422-8.806-1.509l-8.852,5.901,2.773,4.16,8.852-5.901c.663-.442,1.555-.288,2.032.349l1.459,1.945c2.067,2.758,5.938,3.422,8.806,1.509l5.703-3.803c.663-.442,1.554-.288,2.032.349l1.459,1.945c2.067,2.758,5.938,3.422,8.806,1.509l5.703-3.803c.663-.442,1.555-.288,2.032.349l3.729,4.973,4-3-3.729-4.973c-2.067-2.758-5.938-3.422-8.806-1.509Z"/>
  </g>
</svg>