<?xml version="1.0" encoding="UTF-8"?>
<svg id="Laag_1" data-name="Laag 1" xmlns="http://www.w3.org/2000/svg" viewBox="0 0 224.449 531.631">
  <g>
    <path d="M106.599,70.721c-.189-.163-1.926-1.726-4.612-6.421-2.831-4.95-.463-18.925-.184-20.502l3.106.55c-.977,5.524-1.89,15.401-.184,18.385,2.407,4.209,3.928,5.594,3.943,5.608l-2.07,2.381Z"/>
    <path d="M112.139,76.866l-3.11-.53c.004-.027.422-2.711-1.02-4.569-.85-1.095-2.242-1.736-4.136-1.906-7.505-.672-21.968,3.269-22.113,3.309l-.836-3.042c.615-.169,15.155-4.129,23.231-3.409,2.818.253,4.961,1.31,6.369,3.143,2.281,2.97,1.644,6.842,1.616,7.005Z"/>
    <path d="M117.775,70.721l-2.058-2.391s1.524-1.389,3.931-5.598c1.707-2.984.793-12.861-.184-18.385l3.106-.55c.28,1.578,2.647,15.553-.184,20.502-2.686,4.695-4.423,6.259-4.612,6.421Z"/>
    <path d="M112.235,76.866c-.028-.163-.666-4.035,1.616-7.005,1.408-1.833,3.551-2.89,6.369-3.143,8.077-.72,22.616,3.24,23.231,3.409l-.836,3.042c-.145-.04-14.61-3.981-22.113-3.309-1.904.171-3.3.817-4.149,1.923-1.426,1.855-1.014,4.519-1.009,4.546l-3.108.537Z"/>
  </g>
  <g>
    <g>
      <path d="M104.712,71.967c1.572-3.31-2.965-7.447-1.797-11.605.604-2.147,2.633-3.667,2.783-5.535.154-1.932-1.708-3.693-2.371-5.854-.765-2.494.125-4.891-.082-7.28-.161-1.851-.611-2.693-4.772-13.076-2.371-5.919-1.716-6.031,3.163-18.925.295-.781,1.476-.335,1.18.446-4.802,12.69-5.377,12.503-3.172,18.01,4.187,10.451,4.677,11.371,4.857,13.436.211,2.422-.62,4.892.031,7.019.621,2.021,2.618,3.875,2.422,6.324-.188,2.351-2.286,3.855-2.826,5.777-1.021,3.633,3.618,7.81,1.722,11.805-.357.751-1.498.213-1.14-.542Z"/>
      <path d="M100.502,31.907c-.406-.207-.33-.193-.519-.175-.236.02-.731.061-1.1-.445l-3.326-4.564c-1.316-1.804-2.915-4.47-1.628-6.776.407-.729,1.509-.113,1.102.615-1.296,2.321,1.566,5.447,4.823,9.914.112-.01.227-.016.34-.012.16-.594-.308-3.581,1.064-7.824.107-.332.462-.514.794-.406,1.242.401-.71,1.871-.552,7.487.04,1.433-.334,1.717-.997,2.185ZM99.902,30.543h.008-.008Z"/>
      <path d="M102.58,38.104c-1.455-1.324-1.067-1.27-1.547-1.212-1.003-.521-1.926-1.071-2.957-1.846-.667-.502.092-1.51.759-1.008.778.585,1.605,1.111,2.461,1.568.414.01.724.198.971.419.197-1.286-.437-3.147.726-4.41.564-.615,1.494.24.928.854-.942,1.023.278,3.431-.927,5.071l-.415.565Z"/>
      <path d="M98.963,19.787c-.693,0-.876-.964-.231-1.219,1.652-.651,3.208-1.64,4.5-2.859.606-.574,1.472.344.866.918-2.103,1.985-4.733,3.16-5.135,3.16Z"/>
      <path d="M104.343,38.645c.749-1.749.796-3.151.847-5.217.02-.835,1.282-.803,1.261.032-.053,2.17-.118,3.744-.948,5.681-.268.628-.522,1.221-.38,1.723.318,1.133-2.407,1.586-.78-2.219Z"/>
      <path d="M103.837,62.257c-.711-.888-1.573-1.703-1.241-2.538.718-1.799-.269-3.9-1.068-5.54-1.556-3.192-1.68-4.174-1.227-7.251.095-.647.185-1.258.212-1.875.059-1.339-.34-3.097-1.66-3.648-.771-.321-.286-1.485.485-1.164,1.921.8,2.512,3.123,2.435,4.869-.03.68-.129,1.352-.224,2.002-.414,2.812-.338,3.535,1.113,6.514.956,1.957,1.919,4.166,1.193,6.325,1.046-.981.838-.393,3.685-3.299l.908.876c-4.066,4.151-3.353,2.354-4.611,4.73Z"/>
      <path d="M81.688,231.312c1.314-3.058,4.917-4.328,7.852-4.495,2.953-.172,5.939.443,8.8.145,9.308-.963,15.159-11.68,14.179-20.964-.602-5.699-1.907-6.089-.818-17.161,1.216-12.36,1.425-21.874,1.3-32.203-.221-18.37.116-44.921-.382-57.696-.532-13.701-2.397-26.154,3.62-39.211.35-.758,1.496-.229,1.146.529-5.884,12.767-4.028,25.184-3.505,38.633.503,12.907.151,38.459.383,57.73.389,32.218-3.095,33.959-1.051,45.554.212,1.203.431,2.448.563,3.693.6,5.687-1.245,11.955-4.814,16.358-6.793,8.378-14.288,5.559-19.348,5.854-2.557.146-5.677,1.203-6.764,3.733-.329.766-1.489.268-1.159-.498Z"/>
      <path d="M94.329,67.876c-.346-.666-1.687-.493-2.806-.724-1.484-.307-2.732-1.558-3.036-3.042-.167-.818,1.069-1.072,1.236-.253.206,1.005,1.051,1.852,2.055,2.06,1.119.23,2.941-.028,3.67,1.379.383.738-.737,1.319-1.12.581Z"/>
      <path d="M43.3,172.771c3.733-7.461-.62-16.788.586-25.376,1.094-7.788,6.665-14.363,7.625-21.91.82-6.454-1.743-13.532.858-19.808,1.158-2.796,3.223-5.08,5.417-7.367,7.56-7.882,16.259-15.915,25.159-23.231.647-.529,1.446.446.801.975-8.862,7.285-17.524,15.283-25.05,23.13-2.188,2.281-4.086,4.38-5.162,6.977-2.442,5.896.067,12.892-.771,19.485-.997,7.834-6.564,14.36-7.627,21.926-1.183,8.422,3.256,17.844-.707,25.766-.372.742-1.502.182-1.129-.565Z"/>
      <path d="M89.217,165.524c-.733-.401-.127-1.508.605-1.108,6.162,3.37,16.821-.808,24.035-1.758.828-.109.992,1.142.164,1.251-7.255.953-18.12,5.27-24.805,1.615Z"/>
      <path d="M81.333,205.841c-.97,0-2.806-.407-2.309-1.353.162-.309.544-.428.852-.265,1.877.985,4.107-.293,6.264-1.529,5.605-3.208,11.303-3.78,16.67-2.177,2.132.64,5.671-4.4,7.962-6.489-12.719-8.464-21.734-1.11-31.247-2.105-.833-.089-.696-1.344.132-1.256,9.651,1.016,18.732-6.999,33.244,3.31l-.713.516c-2.434,1.763-6.369,8.235-9.739,7.233-4.785-1.43-10.317-1.025-15.681,2.063-1.706.978-3.579,2.052-5.434,2.052Z"/>
      <path d="M112.687,181.975c-5.15-5.252-15.406,1.01-24.565-4.441-.718-.427-.072-1.513.645-1.085,8.744,5.203,19.136-1.156,24.821,4.643.587.599-.325,1.47-.901.883Z"/>
      <path d="M104.159,175.529c-.813,0-.845-1.218-.033-1.261,8.249-.43,9.814-2.345,10.165-1.038.09.337-.11.682-.447.773-3.837,1.026-8.123,1.526-9.686,1.526Z"/>
      <path d="M78.709,219.613c6.102-4.181,11.063-3.634,16.107-4.037,6.66-.528,13.037-3.31,17.954-7.833.615-.565,1.469.364.854.928-5.124,4.714-11.768,7.613-18.709,8.163-4.714.372-9.574-.236-15.493,3.819-.681.466-1.406-.567-.713-1.041Z"/>
      <path d="M76.75,285.86c.368-9.853,3.027-18.44,7.588-26.896,4.833-8.962,3.231-9.699,3.981-16.19.676-5.837,4.006-11.997,8.485-15.694.643-.532,1.447.442.803.973-4.241,3.5-7.395,9.335-8.035,14.865-.748,6.471.867,7.388-4.124,16.644-4.44,8.234-7.076,16.624-7.438,26.344-.031.834-1.292.787-1.261-.046Z"/>
      <path d="M92.255,296.015c-.98-4.244.168-8.508,1.279-12.63,1.63-6.053,2.078-8.176,1.519-17.993-.123-2.156-.25-4.386-.245-6.582.02-8.067,1.853-16.186,5.302-23.479,1.508-3.189,3.422-6.458,3.626-9.943.048-.817,1.309-.769,1.26.074-.221,3.769-2.187,7.109-3.745,10.41-3.37,7.125-5.162,15.059-5.181,22.941-.005,2.159.12,4.37.242,6.507.567,9.963.101,12.23-1.56,18.394-1.12,4.156-2.177,8.082-1.268,12.019.188.814-1.042,1.097-1.229.284Z"/>
      <path d="M71.425,258.135c-.529,0-.83-.622-.483-1.036,1.861-2.221,3.849-3.653,6.181-4.859,2.231-1.16,2.614-1.551,3.751-3.591,2.029-3.637,4.789-5.985,8.197-7.277.781-.294,1.228.884.447,1.18-3.25,1.232-5.73,3.454-7.542,6.712-1.247,2.235-1.798,2.811-4.271,4.096-5.042,2.616-5.401,4.776-6.28,4.776Z"/>
      <path d="M101.797,254.161c-1.263-4.832-3.815-12.992-1.932-17.471.325-.769,1.487-.28,1.164.489-1.717,4.083.804,12.128,1.989,16.663.212.807-1.01,1.126-1.221.319Z"/>
      <path d="M52.356,149.488c-.602-1.852-.393-3.77-.191-5.625.36-3.302.308-4.098-.755-7.67-.702-2.362-1.429-4.805-.622-7.233.264-.792,1.46-.394,1.198.398-.682,2.051-.043,4.2.634,6.475,1.113,3.742,1.177,4.7.8,8.167-.196,1.802-.382,3.504.137,5.099.258.793-.942,1.185-1.2.39Z"/>
      <path d="M22.164,241.471c-.896-4.2.948-8.16,2.73-11.989,2.732-5.868,3.542-7.992,3.274-18.318-.127-4.92-.154-7.049.726-16.193,1.126-11.701,1.326-17.057,3.562-22.099,2.969-6.696,9.933-13.128,11.339-20.082.165-.818,1.402-.568,1.237.251-1.482,7.33-8.487,13.723-11.423,20.343-2.116,4.771-2.301,9.675-3.459,21.709-.872,9.061-.847,11.149-.72,16.04.272,10.505-.563,12.809-3.391,18.884-1.773,3.809-3.448,7.406-2.64,11.193.174.816-1.06,1.08-1.234.264Z"/>
      <path d="M31.562,236.296c2.694-11.422,5.044-21.268,10.039-31.566,2.41-4.948,2.869-6.592,1.895-10.743-.823-3.502-1.054-5.804,1.911-11.892,1.318-2.688,2.797-5.506,3.027-8.44.247-3.152-.916-8.299-3.3-9.192-.782-.293-.339-1.475.442-1.182,3.388,1.268,4.352,7.447,4.115,10.472-.248,3.168-1.749,6.035-3.15,8.895-2.868,5.885-2.556,7.904-1.818,11.05,1.088,4.632.485,6.506-1.989,11.584-4.94,10.176-7.283,20.019-9.945,31.302-.192.813-1.42.523-1.228-.29Z"/>
      <path d="M72.005,107.838c4.641-3.488,4.736-10.814,8.729-15.54,2.884-3.415,7.552-5.177,9.083-9.049,1.307-3.304.385-8.2,3.805-10.292.712-.435,1.371.64.659,1.076-2.769,1.694-1.934,6.252-3.29,9.68-1.695,4.287-6.52,6.117-9.293,9.399-3.806,4.506-3.915,11.962-8.934,15.735-.659.495-1.428-.504-.758-1.009Z"/>
      <path d="M34.624,152.123c-.616-6.338.822-12.852,4.05-18.342,1.864-3.169,4.258-6.022,4.581-9.471.331-3.525-1.499-6.8-1.07-10.538.52-4.532,4.195-7.781,6.083-11.662,1.333-2.742,1.962-6.139,4.467-8.22,1.607-1.334,2.456-1.466,15.542-5.925.79-.271,1.197.926.407,1.195-12.814,4.366-13.722,4.521-15.143,5.701-2.204,1.83-2.791,5.033-4.139,7.801-1.936,3.978-5.49,7.117-5.965,11.253-.374,3.263,1.406,6.961,1.073,10.512-.356,3.793-2.909,6.862-4.75,9.993-3.093,5.261-4.472,11.504-3.882,17.58.081.831-1.175.953-1.256.122Z"/>
      <path d="M60.277,144.19c.63-3.227-.879-6.305-.027-9.724.361-1.452,1.091-2.647,1.59-3.961,1.475-3.886.693-8.364.405-12.574-.399-5.854.822-10.073,3.63-12.54.505-.444,1.057-.825,1.591-1.195,2.647-1.833,3.312-2.632,3.33-7.265.013-3.677.266-4.291,1.573-7.034,1.062-2.232,2.161-4.541,1.226-6.318-.389-.738.728-1.326,1.116-.588,1.229,2.337-.063,5.052-1.203,7.448-1.244,2.613-1.438,3.058-1.45,6.497-.018,5.047-.883,6.229-3.874,8.298-.527.365-1.026.709-1.476,1.106-2.497,2.193-3.575,6.065-3.204,11.506.298,4.385,1.103,8.926-.485,13.107-.506,1.334-1.225,2.532-1.545,3.819-.748,3.005.688,6.346.041,9.66-.16.82-1.399.578-1.238-.242Z"/>
      <path d="M33.46,210.088c-.152-3.17-.361-7.51,1.873-10.75.778-1.128,1.841-2.083,2.35-3.23.888-2.001.12-4.453.281-6.882.49-7.398,9.885-12.618,10.402-19.494.064-.845,1.32-.731,1.258.094-.558,7.41-9.946,12.592-10.402,19.483-.155,2.336.663,4.946-.387,7.311-1.589,3.577-4.631,2.695-4.115,13.406.04.833-1.22.894-1.261.061Z"/>
      <path d="M33.179,186.87c-.666-2.521.444-4.894,1.517-7.189,1.291-2.758,1.772-3.914,2.317-8.991.285-2.656.58-5.402,1.9-8.082.369-.749,1.501-.191,1.132.557-1.221,2.479-1.491,4.995-1.778,7.659-.558,5.204-1.064,6.475-2.428,9.391-1.023,2.187-1.99,4.254-1.441,6.332.213.807-1.006,1.13-1.22.323Z"/>
      <path d="M50.907,178.014c-.956-3.48-.102-7.015.723-10.434,2.048-8.484.32-7.365,2.494-11.588,1.587-3.083,1.115-3.583.833-7.301-.382-5.065,1.774-10.763,5.627-14.873.57-.61,1.492.254.92.863-3.618,3.86-5.645,9.192-5.288,13.914.296,3.917.757,4.623-.97,7.973-.942,1.83-1.088,2.3-1.224,4.554-.385,6.318-3.313,11.404-1.897,16.556.221.805-.996,1.139-1.217.335Z"/>
      <path d="M55.972,128.237c.933-4.005,1.184-7.533,1.088-11.261-.12-4.732.242-6.176,3.368-10.501,6.395-8.845,7.882-10.168,11.054-14.556.204-.283.598-.347.881-.142,1.119.809-1.007,1.739-10.912,15.437-2.934,4.059-3.243,5.226-3.129,9.73.099,3.748-.15,7.415-1.121,11.58-.189.813-1.418.526-1.229-.287Z"/>
      <path d="M31.398,166.201c.252-4.611,5.314-7.214,6.506-11.203.449-1.5.336-3.246.656-4.91.771-4.027,3.677-6.838,4.579-10.567.4-1.651.397-3.407,1.316-4.966,1.457-2.473,4.276-3.906,4.524-6.396-.254-2.433,2.078-5.393,2.805-6.249.539-.637,1.501.181.961.817-1.121,1.32-2.717,3.693-2.498,5.411-.264,3.219-3.288,4.652-4.706,7.057-.765,1.297-.785,3-1.177,4.622-.928,3.836-3.87,6.872-4.567,10.507-.31,1.621-.18,3.341-.686,5.035-1.289,4.31-6.234,6.87-6.455,10.911-.045.834-1.306.764-1.26-.069Z"/>
      <path d="M59.292,82.032c-.793,0-1.547-.238-2.134-.843-.582-.599.323-1.478.905-.879.796.819,2.339.408,3.417-.194,1.373-.768,2.798-1.836,4.509-1.643.801.085,1.551.46,2.127.348.522-.217,3.788-2.748,4.727-3.019,6.212-1.793,13.044.168,18.781-2.175,3.604-1.472,7.336-4.713,11.319-3.284,2.373.85,3.749,3.053,5.215,4.942,1.88,2.422,1.859,3.296,4.282,4.861.701.453.018,1.511-.685,1.06-2.672-1.727-2.76-2.786-4.594-5.148-1.328-1.709-2.652-3.814-4.644-4.528-3.355-1.201-6.793,1.783-10.417,3.265-6.087,2.485-12.851.47-18.908,2.218-.7.202-4.143,2.91-4.836,3.045-.949.184-1.79-.255-2.503-.332-2.089-.212-3.81,2.305-6.562,2.305Z"/>
      <path d="M78.623,76.169c-1.72-1.645-4.78-3.667-7.743-3.953-.837-.08-.703-1.343.121-1.255,3.284.316,6.628,2.512,8.494,4.297.605.579-.275,1.482-.872.912Z"/>
      <path d="M61.759,82.98c1.564-.496,2.364-2.338,2.995-4.254.26-.787,1.46-.401,1.198.395-.736,2.234-1.707,4.394-3.812,5.062-.814.251-1.163-.955-.381-1.203Z"/>
      <path d="M86.49,70.538c-1.042,0-2.084-.097-3.11-.295-.813-.157-.589-1.39.239-1.24,3.87.748,7.986-.054,11.295-2.197,1.154-.746,2.283-1.686,3.724-2.045,2.105-.524,4.279.375,5.865,1.031.771.319.289,1.485-.482,1.166-1.847-.764-3.503-1.364-5.078-.972-2.512.625-5.167,4.551-12.453,4.551Z"/>
      <path d="M105.131,54.002c-.215-1.052.654-1.639,1.289-2.068.897-.607.998-.715,1.143-1.969.272-2.356,1.314-2.928,2.354-4.44.603-.876.897-2.135.253-2.741-.608-.573.259-1.492.866-.918,1.221,1.152.814,3.075-.08,4.375-1.083,1.573-1.919,1.937-2.14,3.869-.189,1.638-.489,2.059-1.69,2.87-.568.384-.799.575-.759.769.167.818-1.069,1.072-1.236.253Z"/>
      <path d="M85.835,112.044c-.708-3.913-1.511-8.348-.284-12.528,1.24-4.225,4.883-8.146,3.688-15.965-.126-.825,1.121-1.016,1.247-.191,1.26,8.247-2.525,12.427-3.724,16.511-1.143,3.893-.368,8.172.315,11.948.148.822-1.093,1.047-1.242.224Z"/>
      <path d="M78.815,120.037c1.5-6.812,2.264-9.323,1.708-11.831-.494-2.231-2.471-4.917-2.453-10.482.003-.834,1.265-.83,1.262.004-.01,2.928.582,5.261,1.584,7.739,1.735,4.292,1.244,5.245-.87,14.841-.179.815-1.412.545-1.232-.271Z"/>
      <path d="M92.06,85.538c1.264-4.619.31-4.718-.166-7.953-.251-1.699.394-3.493,1.645-4.569.633-.544,1.456.413.823.957-.93.8-1.409,2.145-1.22,3.428.469,3.174,1.493,3.508.135,8.47-.221.805-1.438.472-1.217-.333Z"/>
      <path d="M74.955,92.893c2.23-2.059,5.368-3.111,8.387-2.809.831.082.706,1.339-.125,1.256-2.666-.264-5.436.662-7.406,2.48-.606.561-1.471-.359-.856-.927Z"/>
      <path d="M80.545,85.942c-.824-.135-.619-1.382.205-1.245.734.121,1.444-.447,2.196-1.051,1.157-.93,1.663-1.281,4.05-1.917,1.405-.377,3.132-.858,3.812-2.187.379-.743,1.504-.168,1.123.575-.887,1.734-2.827,2.355-4.61,2.832-2.202.586-2.553.853-3.586,1.681-.979.786-1.937,1.516-3.19,1.312Z"/>
      <path d="M74.988,89.655c1.181-6.242,2.568-7.449,5.625-9.345,2.795-1.736,5.942-4.029,8.763-5.78.709-.44,1.374.631.665,1.072-2.797,1.737-5.937,4.026-8.763,5.78-2.752,1.709-3.936,2.623-5.051,8.508-.155.821-1.395.586-1.24-.234Z"/>
      <path d="M86.147,373.622c-4.227-7.083-5.424-16.054-3.201-23.998.735-2.626,1.817-5.144,2.126-7.771.486-4.13-.973-8.37-1.928-12.432-2.387-10.142-2.027-20.652-1.678-30.817.145-4.249.296-8.644,1.159-12.913,1.157-5.727,3.552-11.078,5.163-16.619,3.516-12.093,3.862-26.465,13.072-35.49.595-.585,1.48.317.883.901-8.868,8.691-9.236,22.879-12.743,34.941-1.609,5.534-4.007,10.918-5.139,16.518-.842,4.166-.99,8.508-1.134,12.706-.346,10.082-.703,20.507,1.645,30.484.984,4.18,2.47,8.482,1.953,12.869-.327,2.779-1.438,5.369-2.164,7.964-2.131,7.616-.983,16.219,3.07,23.01.425.714-.658,1.357-1.084.647Z"/>
      <path d="M82.07,466.087c-9.313-40.062,8.473-68.842,12.026-79.593,4.648-14.062.457-28.783,3.798-45.463,1.244-6.217,1.277-7.861-.124-14.588-1.505-7.221-1.962-10.584,1.822-23.951.739-2.609,1.503-5.306,2.05-7.97,1.612-7.835.822-18.543-6.709-22.935-.721-.421-.087-1.507.636-1.09,8.109,4.729,9.006,16.035,7.31,24.28-.557,2.707-1.327,5.428-2.072,8.059-3.733,13.185-3.264,16.325-1.801,23.35,1.44,6.911,1.402,8.722.126,15.093-1.507,7.529-1.488,12.628-1.397,20.978.175,16.164-.599,21.046-5.169,31.397-4.286,9.73-7.887,19.333-9.981,29.969-2.727,13.847-2.48,28.433.715,42.179.189.813-1.04,1.099-1.229.285Z"/>
      <path d="M72.117,372.569c1.172-11.23,2.385-22.842-.194-34.034-1.277-5.542-3.51-11.022-3.866-16.815-.854-13.913,3.332-33.059,9.332-42.681.442-.708,1.513-.041,1.071.667-5.882,9.433-9.983,28.246-9.143,41.937.344,5.608,2.558,11.063,3.836,16.608,2.626,11.397,1.403,23.116.219,34.448-.086.83-1.342.7-1.255-.13Z"/>
      <path d="M109.235,258.062c.599-1.577.693-3.344.264-4.974-.509-1.936-1.676-3.579-2.911-5.318-2.258-3.178-2.656-4.052-3.634-7.172-.499-1.594-.839-2.664-1.596-3.981-.438-.758-.983-1.701-.674-2.723.241-.799,1.449-.434,1.208.365-.151.499.21,1.122.559,1.726.816,1.418,1.189,2.58,1.708,4.235.941,3.004,1.278,3.748,3.458,6.818,1.247,1.755,2.536,3.57,3.103,5.727.495,1.883.387,3.923-.305,5.743-.296.781-1.476.333-1.179-.448Z"/>
      <path d="M104.326,260.898c-2.588,0-5.844-1.764-7.365-4.77-.589-1.164-.896-2.429-1.536-3.435-.448-.704.617-1.382,1.064-.678.731,1.147,1.036,2.432,1.598,3.543,1.186,2.344,3.647,3.945,6.271,4.079.813.041.782,1.261-.032,1.261Z"/>
      <path d="M73.316,226.321c4.619-.797,8.641-4.504,13.622-4.773,3.803-.203,7.255,1.648,11.06,1.678,1.584-.015,2.775-.308,9.632-1.631.835-.145,1.048,1.084.239,1.24-7.086,1.366-8.191,1.638-9.86,1.652-3.733.066-7.363-1.87-11.003-1.679-4.497.243-8.761,3.943-13.475,4.757-.843.134-1.021-1.104-.214-1.244Z"/>
      <path d="M107.858,237.579c-.973-3.529-.793-7.357.506-10.78.675-1.747.659-1.692.605-3.564-.025-1.225.098-2.451.367-3.643.184-.821,1.413-.534,1.231.277-.245,1.093-.359,2.218-.336,3.341.061,2.007.05,2.143-.686,4.037-1.205,3.174-1.372,6.724-.469,9.996.222.805-.994,1.141-1.216.336Z"/>
      <path d="M68.762,252.514c1.161-3.892,2.455-7.562,5.51-9.699,1.741-1.217,2.251-.948,4.212-3.235,2.483-2.892,2.92-3.462,3.749-4.088,1.516-1.141,3.488-1.523,4.465-2.824,1.12-1.492.945-4.652,3.401-5.564.783-.29,1.222.892.44,1.183-1.723.64-1.558,3.44-2.831,5.138-1.216,1.621-3.316,2.021-4.714,3.075-.695.525-1.079,1.023-3.551,3.903-2.106,2.454-2.834,2.322-4.446,3.446-2.722,1.904-3.93,5.356-5.024,9.025-.238.8-1.448.439-1.209-.361Z"/>
      <path d="M70.673,281.714c-.999-4.601,4.802-10.459,8.976-12.752.734-.398,1.339.704.607,1.106-2.87,1.575-5.31,3.872-7.055,6.64-1.163,1.844-1.587,3.394-1.295,4.737.177.816-1.056,1.084-1.233.268Z"/>
      <path d="M78.307,344.892c-.014-3.458-.031-7.762-2.03-11.047-1.086-1.786-2.784-3.335-3.555-5.462-1.104-3.041-.015-6.245.568-9.298.29-1.516.809-6.197.206-7.193-.231-.382-.736-.67-1.206-.98-1.984-1.335-2.447-4.67-3.019-6.869-.21-.807,1.012-1.124,1.221-.317.498,1.912.966,5.106,2.502,6.139.605.398,1.203.75,1.581,1.374.898,1.482.28,6.383-.046,8.085-.551,2.876-1.586,5.972-.622,8.63.673,1.855,2.344,3.423,3.448,5.236,2.181,3.585,2.199,8.084,2.214,11.699.003.834-1.258.839-1.262.004Z"/>
      <path d="M91.636,366.433c-2.621-6.163-2.045-12.957-1.488-19.529.992-11.704.312-14.232-1.457-20.002-2.188-7.137-2.019-8.941-1.266-13.265.325-1.87.633-3.636.405-5.409-.434-3.389-3.035-6.405-6.323-7.333-.803-.227-.461-1.44.342-1.215,3.762,1.062,6.736,4.511,7.233,8.387.252,1.963-.086,3.906-.414,5.786-.727,4.177-.885,5.78,1.229,12.678,1.809,5.898,2.514,8.601,1.508,20.479-.569,6.713-1.107,13.054,1.392,18.929.327.768-.835,1.262-1.161.494Z"/>
      <path d="M88.462,298.845c-1.962-2.767-2.775-6.273-2.232-9.621.464-2.856,2.342-6.664.449-9.243-.663-.904-.953-1.859-.968-3.194-.009-.835,1.252-.849,1.262-.015.012,1.079.215,1.769.723,2.461,2.288,3.117.248,7.308-.221,10.192-.491,3.023.244,6.19,2.016,8.689.487.688-.557,1.397-1.03.73Z"/>
      <path d="M93.633,323.092c-1.533-4.336-1.487-9.292.126-13.599.5-1.336,1.132-2.591,1.35-3.911.181-1.097.078-2.289.181-3.479.544-6.344,6.469-10.908,7.168-16.854.099-.842,1.349-.674,1.253.148-.738,6.285-6.655,10.885-7.164,16.813-.098,1.15.009,2.353-.192,3.577-.245,1.485-.915,2.818-1.413,4.147-1.511,4.034-1.554,8.676-.118,12.737.278.785-.911,1.21-1.19.42Z"/>
      <path d="M76.617,211.498c-.835-.072-.722-1.332.107-1.257,1.929.164,3.898-.204,5.802-.562,10.695-2.003,12.426-2.24,14.759-3.126,4.714-1.79,5.688-3.549,15.801-1.334.819.179.541,1.415-.27,1.232-9.762-2.139-10.49-.463-15.083,1.282-2.387.906-3.98,1.128-14.974,3.187-2.05.383-4.058.755-6.141.578Z"/>
      <path d="M95.085,201.196c-1.061-.268-1.799-1-2.513-1.707-1.401-1.392-2.098-1.996-5.916-1.663-.859.044-.918-1.188-.109-1.257,4.227-.365,5.255.38,6.914,2.024.62.615,1.206,1.197,1.933,1.38.799.202.513,1.43-.309,1.224Z"/>
      <path d="M103.764,190.209c-.764-1.814-2.775-3.077-6.148-3.863-3.831-.892-7.765-1.276-11.694-1.143-.841.019-.871-1.234-.043-1.261,4.04-.135,8.085.258,12.023,1.175,3.795.884,6.093,2.389,7.025,4.603.324.769-.84,1.259-1.163.489Z"/>
      <path d="M102.551,179.332c-2.353-.432-4.53-1.775-5.971-3.685-.503-.666.505-1.426,1.007-.76,1.253,1.661,3.145,2.829,5.192,3.205.813.15.602,1.396-.228,1.241Z"/>
      <path d="M102.501,183.233c-.758,0-.866-1.102-.122-1.25,2.38-.473,4.679-1.279,6.832-2.397.74-.386,1.322.736.581,1.119-3.204,1.664-6.82,2.528-7.291,2.528Z"/>
      <path d="M91.774,170.197c2.474-1.019,5.168-1.043,7.756-1.24,4.99-.377,6.429-1.501,8.351-3.496,1.212-1.257,2.465-2.557,4.305-2.646.807-.07.918,1.219.061,1.26-1.339.065-2.368,1.132-3.457,2.262-2.068,2.146-3.72,3.467-9.164,3.878-2.482.187-5.108.217-7.37,1.149-.784.318-1.242-.853-.481-1.167Z"/>
      <path d="M107.441,171.702c-.626,0-.87-.818-.345-1.16,1.976-1.288,4.361-1.989,6.72-1.937.812.013.838,1.242-.021,1.261-3.841-.048-5.89,1.835-6.354,1.835Z"/>
      <path d="M96.761,210.747c2.953-.366,3.419-.838,4.554-2.303,1.819-2.347,3.983-3.786,6.449-4.504.807-.229,1.15.979.353,1.212-2.232.65-4.166,1.947-5.804,4.065-1.347,1.742-2.113,2.375-5.396,2.783-.847.093-.969-1.15-.156-1.253Z"/>
      <path d="M88.909,206.58c-.709,0-.875-.998-.204-1.228,7.743-2.655,9.441-5.32,11.819-5.428.837-.037.889,1.223.057,1.261-.781.035-1.548.514-2.289.977-3.842,2.381-8.767,4.417-9.382,4.417Z"/>
      <path d="M108.288,197.95c-.503,0-.497-.574-4.716-.82-3.281-.191-4.085-.409-6.859-1.693-1.569-.726-3.054-1.409-4.628-1.331-.842.035-.892-1.217-.065-1.26,1.893-.104,3.585.686,5.223,1.446,2.64,1.221,3.293,1.397,6.402,1.578,1.633.095,3.323.193,4.892.869.627.27.433,1.211-.25,1.211Z"/>
      <path d="M103.332,223.694c-3.106,0-3.907-4.236-8.118-3.333-.819.172-1.078-1.059-.264-1.234,1.596-.343,3.354.004,4.701.93,1.345.923,2.421,2.424,3.713,2.375.842,0,.873,1.262-.032,1.262Z"/>
      <path d="M100.57,219.911c-.8-.221-.475-1.434.336-1.216.739.204,1.531-.308,2.367-.851,1.03-.67,1.411-.885,3.12-1.418,2.268-.71,4.199-1.7,6.006-3.603.575-.605,1.49.263.915.869-1.954,2.058-4.07,3.164-6.545,3.938-1.587.495-1.863.657-2.809,1.272-1.073.697-2.141,1.354-3.39,1.009Z"/>
      <path d="M74.388,216.971c-.789.002-.857-1.172-.067-1.258,9.301-1.009,9.667-1.315,17.119-.06.83.14.605,1.392-.209,1.244-5.993-1.01-7.361-.951-11.691-.481-1.694.184-5.128.555-5.151.555Z"/>
      <path d="M76.814,196.94c2.071-2.886,5.563-4.307,10.065-6.553.752-.37,1.307.758.563,1.129-4.454,2.222-7.756,3.585-9.603,6.159-.475.663-1.517-.05-1.025-.736Z"/>
      <path d="M100.175,192.962c-.677-.489.064-1.51.741-1.021,2.156,1.563,4.978.593,7.367-.524.758-.351,1.291.79.534,1.144-2.839,1.325-6.069,2.269-8.642.401Z"/>
      <path d="M105.864,186.826c-.341.035-.644-.251-.662-.598-.017-.348.251-.645.599-.662,2.934-.194,4.024,4.127,6.191,3.9.837-.077.953,1.171.128,1.255-2.985.293-4.099-3.952-6.256-3.895Z"/>
      <path d="M102.494,184.651c-6.697,0-9.152-1.902-12.156-2.61-.812-.191-.523-1.419.289-1.228.997.235,1.953.592,2.878.939,6.659,2.495,12.172,1.706,19.609.495.819-.14,1.03,1.111.203,1.245-3.424.557-7.117,1.159-10.823,1.159Z"/>
      <path d="M85.545,143.198c-.691-.468.016-1.512.708-1.044,7.177,4.866,16.827.396,24.974-2.574.408-.391.994-.372,1.145-.47.44-.669,1.497.006,1.019.731-.383.581-1.13.55-1.303.659l-.115.175-.161.034c-8.498,3.098-18.572,7.704-26.267,2.488Z"/>
      <path d="M103.06,145.841c3.671-3.247,7.433-1.09,8.929-2.129.685-.478,1.405.561.719,1.037-2.277,1.581-5.353-1.022-8.812,2.038-.621.547-1.461-.393-.836-.946Z"/>
      <path d="M87.958,151.256c4.305-1.066,6.966-1.838,9.642-4.916,1.09-1.255,2.217-2.552,3.786-3.24.765-.336,1.272.821.507,1.156-1.31.574-2.342,1.762-3.341,2.912-2.878,3.311-5.671,4.168-10.291,5.313-.828.201-1.098-1.028-.303-1.225Z"/>
      <path d="M96.382,141.36c-.72-.423-.082-1.511.639-1.089,1.658.972,6.79.3,11.24.449.803.027.829,1.251-.042,1.261-4.752-.16-9.758.596-11.836-.621Z"/>
      <path d="M96.168,154.995c-.645,0-.874-.857-.315-1.179,5.504-3.158,8.46-3.149,11.325-4.951,1.414-.891,3.017-1.899,5.083-1.349.804.214.485,1.432-.325,1.219-1.531-.409-2.773.371-4.086,1.198-1.548.973-1.627.965-3.861,1.72-6.544,2.209-7.203,3.342-7.822,3.342Z"/>
      <path d="M10.922,285.438c-.559-6.325,3.268-15.614,3.322-21.863.008-.978.635-1.696,1.188-2.329.885-1.014,1.244-1.291.722-4.099-.665-3.564-.277-6.283.312-10.096.636-4.111,1.293-8.361,2.898-12.324,1.532-3.783,3.491-7.574,7.414-9.675.735-.395,1.332.719.596,1.112-3.371,1.806-5.172,4.918-6.84,9.037-1.55,3.827-2.196,8.004-2.821,12.043-.561,3.626-.949,6.288-.319,9.673.592,3.177.139,3.84-1.011,5.16-.468.537-.872,1-.876,1.51-.055,6.394-3.859,15.714-3.327,21.741.074.833-1.184.941-1.257.112Z"/>
      <path d="M21.908,224.369c4.463-10.977,3.956-9.032,2.953-12.205-.961-3.044-.191-11.079,4.168-17.748.456-.7,1.513-.009,1.056.691-4.131,6.32-4.854,14.043-4.021,16.676,1.139,3.615,1.539,1.928-2.987,13.06-.314.773-1.483.298-1.169-.475Z"/>
      <path d="M26.478,244.021c2.017-4.344.916-9.865,2.42-14.679.808-2.586,2.332-4.888,2.74-7.422.154-.954.153-1.954.411-2.968.772-3.032,3.494-4.979,6.215-6.715.704-.448,1.382.615.678,1.064-6.322,4.029-5.549,5.65-6.06,8.82-.444,2.754-1.992,5.069-2.782,7.597-1.467,4.696-.305,10.149-2.48,14.834-.349.753-1.497.228-1.145-.531Z"/>
      <path d="M37.384,224.747c2.821-3.995,4.727-6.797,5.277-11.428.296-2.493.544-3.079,1.282-4.492.979-1.877.999-2.315.446-4.117-.737-2.411-.87-4.713-.248-7.156.207-.812,1.428-.496,1.223.311-.571,2.242-.43,4.322.232,6.475.653,2.131.602,2.895-.534,5.071-.669,1.284-.869,1.715-1.148,4.057-.576,4.868-2.502,7.762-5.499,12.008-.471.665-1.517-.038-1.031-.728Z"/>
      <path d="M47.142,200.505c-.235-2.548.348-5.046.91-7.461,1.514-6.492.903-5.981.222-6.89-1.609-2.152.006-5.172-1.081-6.996-.428-.717.656-1.363,1.084-.646,1.343,2.252-.225,5.238,1.008,6.886.846,1.137,1.645.858-.004,7.933-.565,2.424-1.099,4.714-.883,7.059.076.832-1.18.948-1.257.116Z"/>
      <path d="M39.721,203.909c-.431,0-.742-.43-.594-.844.534-1.488.89-2.456,1.729-3.707.666-.981.393-.09,2.048-9.271.148-.818,1.39-.6,1.242.225-1.653,9.167-1.399,8.51-2.247,9.755-1.636,2.44-1.257,3.843-2.179,3.843Z"/>
      <path d="M30.476,208.498c-1.804-5.241,2.676-11.008.636-15.68-.478-1.096-1.288-2.053-1.667-3.321-.239-.8.97-1.16,1.209-.361.317,1.061,1.113,2.028,1.615,3.176,2.318,5.31-2.287,10.869-.599,15.775.271.789-.922,1.199-1.193.41Z"/>
      <path d="M34.796,197.806c-.354,0-.632-.287-.631-.633.014-3.791.921-7.225,2.621-10.614.988-1.974,1.06-2.423,1.218-3.632.455-3.473,1.189-3.502,7.882-7.28.728-.409,1.347.69.62,1.099l-4.394,2.48c-4.209,2.374-1.567,2.642-4.197,7.897-3.718,7.427-1.556,10.682-3.118,10.682Z"/>
      <path d="M83.949,521.098c.123-12.317.26-13.153-.356-14.888-.637-1.793-.864-1.707-.663-3.929.234-2.546.275-5.13.123-7.687-.764.194-1.392.851-1.737,1.441-1.25,2.135-.86,5.711-4.996,11.572-.966,1.365-1.155,1.761-1.199,3.964-.077,3.754-1.327,5.503-4.154,8.695-.554.624-1.498-.211-.945-.837,1.512-1.707,3.393-3.831,3.744-6.311.071-.504.082-1.023.093-1.573.049-2.455.314-3.089,1.431-4.667,4.067-5.783,3.505-9.034,4.936-11.48.797-1.363,2.146-2.18,3.451-2.117l.552.033c.526,7.37-.312,9.376-.064,10.736.099.548.398,1.126.615,1.738.703,1.981.552,3.003.429,15.324-.009.835-1.27.821-1.262-.013Z"/>
      <path d="M86.264,485.737c-1.376-8.043,5.404-15.847,3.052-23.164-.262-.814-.628-1.585-1.017-2.402-1.593-3.351-1.985-4.728-.976-10.218.573-3.117,1.17-7.332-1.517-9.52-2.157-1.755-4.905-1.267-5.708-9.092-.085-.831,1.17-.96,1.255-.129.733,7.149,2.888,6.323,5.248,8.242,2.791,2.271,2.643,6.435,2.307,8.715-.098.668-.221,1.34-.345,2.011-.96,5.225-.607,6.333.874,9.448.389.818.791,1.664,1.078,2.557,2.52,7.84-4.319,15.684-3.01,23.338.141.823-1.103,1.036-1.244.213Z"/>
      <path d="M93.882,460.679c-.502-29.52-.867-28.029,1.359-34.943,1.108-3.441,2.154-6.692,1.042-9.806-.218-.611-.515-1.193-.83-1.809-1.405-2.752-1.69-3.869-.791-8.06.753-3.517.594-4.251-.13-6.453-.794-2.418-.995-3.397-.098-7.402.465-2.076.905-4.039.08-5.761-.361-.753.779-1.298,1.138-.544,1.013,2.116.505,4.386.013,6.582-.849,3.789-.648,4.56.065,6.732.788,2.396.971,3.356.165,7.112-.841,3.922-.586,4.739.682,7.222.319.625.649,1.271.894,1.959,1.256,3.518.094,7.127-1.029,10.617-2.225,6.914-1.794,5.412-1.298,34.535.014.834-1.247.856-1.262.022Z"/>
      <path d="M78.405,499.35c-3.643-17.456-5.861-35.34-6.591-53.154-.296-7.211.02-9.359,1.516-15.615,2.654-11.1,2.369-18.715,1.756-31.211-.696-14.235-1.312-29.848,6.58-42.465.443-.708,1.513-.039,1.07.669-7.71,12.326-7.065,27.975-6.39,41.734.611,12.464.902,20.312-1.789,31.566-1.473,6.161-1.773,8.174-1.483,15.27.727,17.746,2.936,35.56,6.566,52.949.171.817-1.064,1.075-1.235.258Z"/>
      <path d="M88.91,438.263c-.597-5.089-.409-10.219.56-15.248.54-2.801,1.122-3.652,2.166-4.846.997-1.139,1.248-1.48,1.421-3.875.109-1.497.232-3.192,1.678-4.092.708-.442,1.375.631.666,1.072-.9.56-.986,1.742-1.086,3.111-.415,5.718-2.484,3.042-3.607,8.869-.945,4.902-1.129,9.903-.546,14.862.097.829-1.156.977-1.253.148Z"/>
      <path d="M99.696,411.709c-4.868-11.467,1.625-25.224-3.55-31.427-.535-.64.433-1.448.969-.808,5.742,6.882-1.107,20.314,3.743,31.742.326.767-.837,1.26-1.161.492Z"/>
      <path d="M80.23,409.544c-.407-3.015.931-5.755,2.226-8.406,3.113-6.374,1.978-6.626,2.413-10.57.483-4.383,3.158-8.017,5.746-11.533,2.792-3.799,6.363-10.005,5.92-14.699-.079-.834,1.179-.943,1.256-.119.471,4.994-3.151,11.473-6.16,15.566-2.488,3.381-5.062,6.877-5.508,10.922-.414,3.766.72,4.327-2.533,10.986-1.267,2.596-2.465,5.047-2.109,7.684.112.827-1.139.996-1.25.169Z"/>
      <path d="M70.763,420.681c-1.815,0,1.205-2.784-.245-17.758-.805-8.285-.289-10.209,1.207-14.666.69-2.059,2.493-5.265,3.156-7.241.265-.791,1.462-.39,1.196.401-.692,2.061-2.492,5.264-3.157,7.241-1.436,4.279-1.934,6.048-1.147,14.142.557,5.72.697,10.808-.389,17.352-.051.308-.318.528-.622.528Z"/>
      <path d="M65.385,302.136c-.097-3.581,1.805-7.12,4.845-9.014.681-.419,1.799-1.061,1.72-1.778-.093-.83,1.162-.969,1.254-.139.159,1.43-1.125,2.252-2.306,2.989-2.668,1.662-4.336,4.766-4.251,7.908.023.834-1.239.869-1.261.035Z"/>
      <path d="M19.11,285.189c-2.131,0,1.734-7.064,2.541-10.488.77-3.265.26-6.8-.278-9.857-.156-.888-.307-1.686-.569-2.459-.879-2.597-2.979-4.685-4.83-6.528-.591-.589.297-1.483.89-.895,1.951,1.94,4.161,4.14,5.136,7.019.593,1.75,1.958,8.437.88,13.01-.776,3.29-2.793,6.414-3.143,9.636-.035.324-.309.563-.626.563Z"/>
      <path d="M24.417,263.453c-.712-1.762-.44-3.619-.178-5.415.513-3.509.302-4.215-.827-6.532-.984-2.02-1.324-2.884-1.518-6.555-.077-1.463.324-2.279.255-3.578-.044-.834,1.216-.901,1.26-.067.077,1.463-.324,2.279-.255,3.578.185,3.506.485,4.208,1.392,6.07,1.245,2.554,1.49,3.51.941,7.267-.249,1.704-.485,3.314.099,4.758.312.774-.857,1.248-1.17.474Z"/>
      <path d="M1.545,265.547c2.295-1.775,4.258-3.432,5.046-5.732.173-.504.287-1.035.407-1.599.65-3.033,1.263-3.844,4.072-5.391,2.206-1.218,3.464-2.59,5.288-3.95.67-.498,1.423.513.754,1.012-1.786,1.329-3.081,2.742-5.433,4.043-2.514,1.386-2.882,1.913-3.447,4.551-.123.574-.25,1.168-.448,1.743-.974,2.844-3.571,4.853-5.468,6.32-.653.506-1.434-.486-.772-.998Z"/>
      <path d="M10.966,258.504c1.626-1.403,3.824-3.704,4.881-5.392.444-.707,1.512-.037,1.069.671-1.176,1.876-3.481,4.258-5.126,5.677-.623.537-1.46-.406-.824-.956Z"/>
      <path d="M13.937,287.84c2.551-11.638,2.921-12.855,2.855-15.025-.04-1.308-.322-2.728.108-4.119.595-1.928,2.616-3.227,1.613-10.257-.118-.824,1.13-1.008,1.249-.178,1.058,7.411-1.139,9.13-1.656,10.807-.346,1.119-.092,2.397-.053,3.709.076,2.518-.472,4.332-2.883,15.333-.179.815-1.411.545-1.233-.271Z"/>
      <path d="M28.293,260.856c-1.142,0-.857-2.829-.716-3.96.305-2.464.102-2.904-.756-4.289-2.806-4.508-1.285-6.879-1.266-9.068.012-1.279-.452-2.576-.576-3.976-.25-2.812.965-5.653,3.171-7.415.654-.52,1.439.465.787.986-1.851,1.478-2.911,3.958-2.702,6.317.12,1.357.594,2.631.581,4.099-.021,2.459-1.457,4.293,1.077,8.392,1.016,1.64,1.275,2.361.935,5.109-.132,1.064-.256,2.07.059,2.963.146.412-.163.841-.595.841Z"/>
      <path d="M20.626,256.867c-.845-1.37-1.352-2.942-1.467-4.546-.128-1.792.074-1.282-.497-3.312-.762-2.794-1.045-6.569-1.055-9.17-.003-.835,1.258-.839,1.262-.004.011,2.805.306,6.344,1.114,9.211.772,2.699-.052,4.294,1.716,7.159.438.711-.641,1.364-1.074.663Z"/>
      <path d="M6.437,282.298c-1.801-2.573,2.309-8.267,3.653-13.707.772-3.122.888-4.041,4.549-6.445.698-.458,1.39.596.693,1.054-3.324,2.184-3.301,2.803-4.016,5.693-1.243,5.029-5.053,10.952-3.845,12.682.484.69-.566,1.393-1.034.723Z"/>
      <path d="M24.113,269.212c-.447,0-.378-.063-2.313-2.913-.469-.691.575-1.399,1.044-.708l1.79,2.636c.285.42-.018.985-.521.985Z"/>
      <path d="M8.941,251.991l4.369-.81c.301-.056.472-.114.51-.172.449-.704,1.512-.026,1.065.678-.461.724-1.013.674-5.714,1.546-.832.155-1.042-1.09-.23-1.241Z"/>
      <path d="M10.73,262.633c-.05-.613.229-1.231.829-1.836,1.934-1.952,4.196-1.641,4.735-3.112.287-.783,1.472-.349,1.185.434-.771,2.101-3.377,1.904-5.024,3.565-.226.229-.491.56-.468.846.068.833-1.19.935-1.258.103Z"/>
      <path d="M30.22,215.607c.815-2.71,4.229-3.275,5.484-5.247,1.02-1.6.516-3.394,6.388-5.6.782-.293,1.225.888.444,1.182-5.354,2.01-4.645,3.333-5.767,5.096-1.414,2.223-4.715,2.854-5.34,4.933-.241.8-1.449.436-1.208-.363Z"/>
      <path d="M39.844,173.484c-.918-4.736,4.124-7.049,4.146-14.148.003-.835,1.265-.83,1.262.004-.023,7.359-4.954,9.851-4.169,13.903.159.82-1.08,1.06-1.239.24Z"/>
      <path d="M108.183,87.545c-2.033-.417-3.378-1.958-4.678-3.447-1.697-1.945-2.289-2.476-4.046-3.233-.787-.34-1.602-.692-2.259-1.343-1.544-1.531-1.557-4.336-.038-8.334.296-.78,1.476-.332,1.179.448-.911,2.4-1.695,5.561-.253,6.991.488.484,1.159.773,1.871,1.081,2.101.906,2.816,1.637,4.496,3.562,1.216,1.393,2.365,2.709,3.981,3.04.808.166.576,1.406-.253,1.237Z"/>
      <path d="M96.473,106.333c-2.75-2.532-2.488-4.754-3.497-6.152-.663-.919-1.918-1.485-2.861-2.402-1.468-1.426-2.077-3.707-1.516-5.676.228-.804,1.442-.457,1.213.346-.437,1.534.038,3.312,1.182,4.425.881.856,2.173,1.414,3.005,2.569,1.238,1.713.795,3.631,3.328,5.962.616.566-.246,1.487-.854.928Z"/>
      <path d="M96.367,91.946c-.234-1.512.146-2.968.047-4.338-.083-1.133-.498-2.286-.491-3.549.011-1.834,1.128-4.084.081-5.467-.504-.666.502-1.427,1.006-.762,1.476,1.949.186,4.466.175,6.236-.006,1.082.399,2.241.487,3.45.107,1.461-.258,2.944-.058,4.236.278,1.802,1.76,3.509,3.776,4.348,1.653.688,3.64.896,6.259.654.854-.05.928,1.181.116,1.257-7.305.669-10.86-2.589-11.397-6.066Z"/>
      <path d="M100.059,80.853c-.764-.336-.257-1.492.508-1.156,1.926.846,4.115,1.051,6.166.575.814-.186,1.098,1.04.285,1.23-2.318.538-4.788.305-6.958-.649Z"/>
      <path d="M44.64,118.447c.375-2.741,3.932-3.383,6.721-8.339.409-.728,1.509-.109,1.1.618-2.855,5.074-6.295,5.877-6.571,7.891-.114.828-1.363.657-1.25-.171Z"/>
      <path d="M91.178,145.409c-.327,0-.145.069-4.085-3.224-2.463-2.056-2.28-1.7-9.734-.851-.821.1-.979-1.158-.143-1.254,9.268-1.056,7.345-1.657,14.368,4.215.451.377.183,1.114-.405,1.114Z"/>
      <path d="M77.191,151.249c-1.218,0-2.416-.369-3.223-1.379-.52-.652.463-1.438.986-.788.925,1.159,2.886,1.072,4.416.474,1.763-.692,3.356-1.816,5.34-2.003,3.346-.306,6.332,2.203,9.214,1.598.811-.177,1.082,1.061.261,1.234-3.328.709-6.387-1.863-9.357-1.575-2.586.243-4.525,2.44-7.638,2.44Z"/>
      <path d="M96.76,136.778c-.805.233-1.154-.975-.356-1.211,5.524-1.624,11.201,2.533,16.36,1.23.81-.203,1.118,1.019.308,1.224-5.548,1.402-11.229-2.738-16.313-1.243Z"/>
      <path d="M100.42,27.93c2.21-2.84,5.101-2.401,6.087-2.843.355-.159.681-.555.586-.846-.259-.791.939-1.19,1.199-.392.326.994-.389,1.996-1.269,2.39-1.428.641-3.685-.004-5.608,2.466-.5.644-1.514-.109-.996-.775Z"/>
      <path d="M100.142,16.047c-.523,0-.823-.607-.494-1.022,1.146-1.446,2.477-1.802,4.026-2.105,1.246-.245,1.496-.326,2.64-.87.87-.414,1.746-.844,2.811-.841.834,0,.833,1.261-.001,1.261-1.173,0-2.368.879-3.654,1.312-1.061.357-2.31.433-3.242.822-1.492.625-1.452,1.444-2.087,1.444Z"/>
      <path d="M107.592,19.545c-.01,0-2.14-.102-3.211-.153-1.172-.056-2.244-.155-3.247-.959-.653-.521.138-1.508.788-.985.918.733,1.758.646,5.699.836.814.039.785,1.26-.03,1.26Z"/>
      <path d="M97.181,22.398c.11-1.371-.21-2.78-.901-3.969-.419-.722.671-1.355,1.091-.634.819,1.409,1.198,3.079,1.067,4.704-.067.832-1.324.731-1.258-.101Z"/>
      <path d="M87.925,521.924c-2.199-6.99.282-13.962-2.149-21.821-.722-2.332-1.541-4.974-.111-7.136.592-.899,1.438-1.006,2.385-.492,2.894,1.573,3.227,5.564,3.407,7.708,1.424,17.054,3.154,18.497,1.785,18.734-.343.056-.67-.172-.729-.515-3.171-18.403-1.477-22.868-5.065-24.818-.499-.273-.582-.144-.729.077-1.1,1.665-.407,3.903.264,6.068,2.51,8.115.026,15.075,2.147,21.815.25.797-.952,1.176-1.204.379Z"/>
      <path d="M75.658,520.482c2.382-5.862,3.741-9.393,3.593-15.176-.096-3.713.102-4.695,1.468-7.951,1.285-3.065,1.579-4.057,1.43-8.82-.196-6.298.765-9.002,3.357-15.434,1.521-3.775,3.095-7.679,3.278-11.717.038-.834,1.299-.776,1.26.058-.194,4.252-1.808,8.257-3.368,12.13-2.725,6.76-3.445,9.219-3.266,14.923.155,4.965-.184,6.144-1.528,9.347-1.298,3.093-1.462,3.893-1.371,7.43.152,5.955-1.252,9.695-3.685,15.684-.315.774-1.483.299-1.169-.475Z"/>
      <path d="M77.495,485.945c-.564-5.292-1.148-10.765-.81-16.201.182-2.927.64-5.927.304-8.8-.192-1.643-.657-3.344-.678-5.101-.05-4.274,2.942-8.321,3.104-12.286.014-.348.315-.605.656-.605.348.014.619.308.605.657-.16,3.912-3.146,8.536-3.103,12.219.019,1.623.471,3.275.669,4.969.354,3.024-.113,6.061-.298,9.024-.332,5.33.246,10.748.805,15.989.089.831-1.167.964-1.255.133Z"/>
      <path d="M91.321,493.83c-1.296-1.318-1.961-3.355-1.874-5.736.138-3.721,2.562-8.912-.217-16.729-.28-.787.909-1.21,1.189-.423,2.886,8.115.423,13.585.29,17.198-.043,1.176.095,3.364,1.512,4.805.587.597-.321,1.471-.9.885Z"/>
      <path d="M83.86,470.605c1.888-4.196.151-13.24.565-18.04.196-2.289.835-4.545,1.018-6.764.188-2.271-.199-5.241-1.488-6.757-.225-.265-.193-.663.072-.889,1.223-1.036,3.034,3.39,2.674,7.751-.192,2.324-.825,4.529-1.018,6.768-.41,4.778,1.392,13.866-.671,18.45-.342.759-1.493.244-1.151-.518Z"/>
      <path d="M91.185,453.48c-1.476-1.582-1.473-3.797-1.339-4.976.433-3.825,1.941-4.302,1.73-12.617-.134-5.013.316-6.497,3.755-10.481.546-.632,1.501.192.955.824-3.203,3.712-3.576,4.889-3.449,9.623.068,2.746.03,5.457-.636,8.23-.609,2.535-2.219,6.257-.094,8.537.571.612-.362,1.462-.922.86Z"/>
      <path d="M96.45,450.775c.798-5.251.841-7.225-3.015-14.506-.391-.738.724-1.329,1.115-.591,3.963,7.485,3.994,9.715,3.147,15.287-.125.826-1.373.636-1.248-.19Z"/>
      <path d="M77.497,427.614c-.539-2.629-.101-5.282.322-7.847.721-4.364.735-5.419.122-9.754-2.046-14.445,4.768-8.249,1.025-22.04-1.298-4.78-1.29-5.975-1.12-8.845.169-2.855.1-5.264-1.524-8.178-.407-.729.695-1.343,1.102-.614,1.754,3.146,1.862,5.802,1.681,8.867-.162,2.737-.179,3.807,1.078,8.44.922,3.401,1.872,7.051.552,10.516-1.109,2.908-2.705,3.487-1.545,11.678.628,4.443.619,5.622-.126,10.136-.423,2.564-.823,4.987-.331,7.388.168.818-1.068,1.071-1.236.253Z"/>
      <path d="M82.758,390.222c-.194-1.857.477-3.62,1.069-5.175,3.11-8.168,3.982-7.982,6.022-9.048,1.827-.946,3.359-2.418,4.842-3.843.601-.58,1.477.331.875.909-1.547,1.486-3.147,3.024-5.136,4.054-1.826.947-2.481.644-5.423,8.376-.542,1.424-1.157,3.037-.994,4.596.087.831-1.168.961-1.255.13Z"/>
      <circle cx="48.023" cy="166.656" r="2.122"/>
      <circle cx="39.921" cy="174.405" r="2.122"/>
      <path d="M53.655,173.996c0,1.172-.95,2.122-2.122,2.122s-2.122-.95-2.122-2.122.95-2.122,2.122-2.122,2.122.95,2.122,2.122Z"/>
      <path d="M56.133,161.843c0,1.172-.95,2.122-2.122,2.122s-2.122-.95-2.122-2.122.95-2.122,2.122-2.122,2.122.95,2.122,2.122Z"/>
      <path d="M108.622,167.335c0,1.172-.95,2.122-2.122,2.122s-2.122-.95-2.122-2.122.95-2.122,2.122-2.122,2.122.95,2.122,2.122Z"/>
      <path d="M111.451,174.759c0,1.172-.95,2.122-2.122,2.122s-2.122-.95-2.122-2.122.95-2.122,2.122-2.122,2.122.95,2.122,2.122Z"/>
      <path d="M107.916,180.415c0,1.172-.95,2.122-2.122,2.122s-2.122-.95-2.122-2.122.95-2.122,2.122-2.122,2.122.95,2.122,2.122Z"/>
      <path d="M107.733,150.426c0,1.172-.95,2.122-2.122,2.122s-2.122-.95-2.122-2.122.95-2.122,2.122-2.122,2.122.95,2.122,2.122Z"/>
      <path d="M98.017,265.967c0,1.172-.95,2.122-2.122,2.122s-2.122-.95-2.122-2.122.95-2.122,2.122-2.122,2.122.95,2.122,2.122Z"/>
      <circle cx="106.684" cy="141.907" r="2.122"/>
      <path d="M100.138,107.589c0,1.172-.95,2.122-2.122,2.122s-2.122-.95-2.122-2.122.95-2.122,2.122-2.122,2.122.95,2.122,2.122Z"/>
      <path d="M97.644,79.074c0,1.172-.95,2.122-2.122,2.122s-2.122-.95-2.122-2.122.95-2.122,2.122-2.122,2.122.95,2.122,2.122Z"/>
      <circle cx="104.345" cy="189.964" r="2.122"/>
      <path d="M89.887,210.111c0,1.172-.95,2.122-2.122,2.122s-2.122-.95-2.122-2.122.95-2.122,2.122-2.122,2.122.95,2.122,2.122Z"/>
      <circle cx="100.738" cy="219.302" r="2.122"/>
      <path d="M94.836,236.272c0,1.172-.95,2.122-2.122,2.122s-2.122-.95-2.122-2.122.95-2.122,2.122-2.122,2.122.95,2.122,2.122Z"/>
      <path d="M103.269,96.684c0,1.172-.95,2.122-2.122,2.122s-2.122-.95-2.122-2.122.95-2.122,2.122-2.122,2.122.95,2.122,2.122Z"/>
      <path d="M87.412,101.933c0,1.172-.95,2.122-2.122,2.122s-2.122-.95-2.122-2.122.95-2.122,2.122-2.122,2.122.95,2.122,2.122Z"/>
      <path d="M98.371,94.155c0,1.172-.95,2.122-2.122,2.122s-2.122-.95-2.122-2.122.95-2.122,2.122-2.122,2.122.95,2.122,2.122Z"/>
      <path d="M109.382,204.401c0,1.172-.95,2.122-2.122,2.122s-2.122-.95-2.122-2.122.95-2.122,2.122-2.122,2.122.95,2.122,2.122Z"/>
      <path d="M92.715,199.858c0,1.172-.95,2.122-2.122,2.122s-2.122-.95-2.122-2.122.95-2.122,2.122-2.122,2.122.95,2.122,2.122Z"/>
      <path d="M99.206,175.267c0,1.172-.95,2.122-2.122,2.122s-2.122-.95-2.122-2.122.95-2.122,2.122-2.122,2.122.95,2.122,2.122Z"/>
      <path d="M114.766,158.895c0,1.172-.95,2.122-2.122,2.122s-2.122-.95-2.122-2.122.95-2.122,2.122-2.122,2.122.95,2.122,2.122Z"/>
      <path d="M76.276,83.284c0,1.172-.95,2.122-2.122,2.122s-2.122-.95-2.122-2.122.95-2.122,2.122-2.122,2.122.95,2.122,2.122Z"/>
      <path d="M78.927,104.053c0,1.172-.95,2.122-2.122,2.122s-2.122-.95-2.122-2.122.95-2.122,2.122-2.122,2.122.95,2.122,2.122Z"/>
      <path d="M83.464,71.647c0,1.172-.95,2.122-2.122,2.122s-2.122-.95-2.122-2.122.95-2.122,2.122-2.122,2.122.95,2.122,2.122Z"/>
      <path d="M74.506,110.464c0,1.172-.95,2.122-2.122,2.122s-2.122-.95-2.122-2.122.95-2.122,2.122-2.122,2.122.95,2.122,2.122Z"/>
      <path d="M60.363,98.746c0,1.172-.95,2.122-2.122,2.122s-2.122-.95-2.122-2.122.95-2.122,2.122-2.122,2.122.95,2.122,2.122Z"/>
      <path d="M71.15,93.095c0,1.172-.95,2.122-2.122,2.122s-2.122-.95-2.122-2.122.95-2.122,2.122-2.122,2.122.95,2.122,2.122Z"/>
      <path d="M105.442,84.61c0,1.172-.95,2.122-2.122,2.122s-2.122-.95-2.122-2.122.95-2.122,2.122-2.122,2.122.95,2.122,2.122Z"/>
      <path d="M64.433,90.973c0,1.172-.95,2.122-2.122,2.122s-2.122-.95-2.122-2.122.95-2.122,2.122-2.122,2.122.95,2.122,2.122Z"/>
      <path d="M91.301,222.484c0,1.172-.95,2.122-2.122,2.122s-2.122-.95-2.122-2.122.95-2.122,2.122-2.122,2.122.95,2.122,2.122Z"/>
      <path d="M78.927,228.141c0,1.172-.95,2.122-2.122,2.122s-2.122-.95-2.122-2.122.95-2.122,2.122-2.122,2.122.95,2.122,2.122Z"/>
      <circle cx="72.563" cy="233.326" r="2.122"/>
      <path d="M109.33,234.858c0,1.172-.95,2.122-2.122,2.122s-2.122-.95-2.122-2.122.95-2.122,2.122-2.122,2.122.95,2.122,2.122Z"/>
      <circle cx="96.839" cy="211.373" r="2.122"/>
      <path d="M91.068,242.846c0,1.172-.95,2.122-2.122,2.122s-2.122-.95-2.122-2.122.95-2.122,2.122-2.122,2.122.95,2.122,2.122Z"/>
      <path d="M96.958,220.01c0,1.172-.95,2.122-2.122,2.122s-2.122-.95-2.122-2.122.95-2.122,2.122-2.122,2.122.95,2.122,2.122Z"/>
      <path d="M83.087,237.66c0,1.172-.95,2.122-2.122,2.122s-2.122-.95-2.122-2.122.95-2.122,2.122-2.122,2.122.95,2.122,2.122Z"/>
      <circle cx="78.544" cy="376.617" r="2.122"/>
      <path d="M95.13,385.753c0,1.172-.95,2.122-2.122,2.122s-2.122-.95-2.122-2.122.95-2.122,2.122-2.122,2.122.95,2.122,2.122Z"/>
      <circle cx="91.122" cy="367.842" r="2.122"/>
      <path d="M98.43,381.04c0,1.172-.95,2.122-2.122,2.122s-2.122-.95-2.122-2.122.95-2.122,2.122-2.122,2.122.95,2.122,2.122Z"/>
      <path d="M89.764,389.064c0,1.172-.95,2.122-2.122,2.122s-2.122-.95-2.122-2.122.95-2.122,2.122-2.122,2.122.95,2.122,2.122Z"/>
      <path d="M88.81,373.298c0,1.172-.95,2.122-2.122,2.122s-2.122-.95-2.122-2.122.95-2.122,2.122-2.122,2.122.95,2.122,2.122Z"/>
      <path d="M77.454,383.16c0,1.172-.95,2.122-2.122,2.122s-2.122-.95-2.122-2.122.95-2.122,2.122-2.122,2.122.95,2.122,2.122Z"/>
      <path d="M92.262,376.559c0,1.172-.95,2.122-2.122,2.122s-2.122-.95-2.122-2.122.95-2.122,2.122-2.122,2.122.95,2.122,2.122Z"/>
      <path d="M85.241,387.113c0,1.172-.95,2.122-2.122,2.122s-2.122-.95-2.122-2.122.95-2.122,2.122-2.122,2.122.95,2.122,2.122Z"/>
      <path d="M109.33,223.899c0,1.172-.95,2.122-2.122,2.122s-2.122-.95-2.122-2.122.95-2.122,2.122-2.122,2.122.95,2.122,2.122Z"/>
      <path d="M106.819,243.554c0,1.172-.95,2.122-2.122,2.122s-2.122-.95-2.122-2.122.95-2.122,2.122-2.122,2.122.95,2.122,2.122Z"/>
      <circle cx="100.447" cy="236.935" r="2.122"/>
      <path d="M81.673,508.221l1.19-3.532c.266-.791,1.462-.388,1.196.403l-1.189,3.532c-.266.791-1.462.389-1.196-.403Z"/>
      <path d="M76.112,510.185c-.229-1.33-.304-2.688-.222-4.036.052-.84,1.31-.753,1.26.077-.076,1.25-.007,2.51.206,3.745.141.823-1.101,1.037-1.244.214Z"/>
      <path d="M89.914,512.707c-.123-2.038.256-4.098,1.099-5.958.345-.76,1.494-.239,1.15.521-.758,1.673-1.1,3.527-.989,5.36.05.836-1.21.908-1.26.077Z"/>
      <path d="M93.169,505.155c-1.313-1.88-2.38-3.924-3.17-6.077-.288-.783.897-1.218,1.185-.434,1.935,5.272,3.88,5.959,2.864,6.667-.286.199-.679.13-.879-.156Z"/>
      <path d="M86.498,493.154c-2.047-2.567-.736-5.572-3-13.556-.227-.804.986-1.148,1.214-.345,2.241,7.905,1.07,10.979,2.773,13.114.525.657-.476,1.426-.987.786Z"/>
      <path d="M80.375,471.97c1.134-3.944-.875-8.451.521-12.644.264-.792,1.462-.393,1.198.398-1.274,3.826.702,8.397-.505,12.595-.231.802-1.443.453-1.213-.349Z"/>
      <path d="M75.343,501.01c1.376-2.709,1.494-5.981,1.598-8.868.029-.83,1.291-.792,1.261.045-.109,3.017-.232,6.438-1.734,9.395-.376.74-1.502.172-1.125-.572Z"/>
      <path d="M70.48,238.7c-.512,0-.816-.587-.507-1.006,1.294-1.752,1.625-4.105,2.865-6.13,2.265-3.698,7.305-5.878,13.642-4.278.809.205.5,1.428-.309,1.224-5.873-1.484-10.321.554-12.257,3.713-1.218,1.99-2.228,6.477-3.434,6.477Z"/>
    </g>
    <g>
      <path d="M118.597,72.508c-1.028-2.166-.132-4.392.735-6.545,1.745-4.333,1.346-5.216-.28-7.583-2.081-3.028-2.063-4.34-.204-7.574,1.271-2.209,1.503-2.857,1.197-6.177-.282-3.055-.213-4.072,1.263-7.755,4.063-10.14,4.672-11.3,4.729-13.235.066-2.206-.738-3.813-4.404-13.502-.295-.78.886-1.227,1.18-.446,3.806,10.059,4.558,11.558,4.485,13.986-.066,2.22-.723,3.444-4.819,13.666-1.411,3.521-1.439,4.348-1.178,7.169.33,3.587.041,4.488-1.359,6.923-1.68,2.921-1.573,3.723.15,6.23,1.857,2.701,2.324,4.017.411,8.769-.8,1.988-1.556,3.866-.766,5.532.357.752-.783,1.294-1.14.542Z"/>
      <path d="M123.947,31.907c-.637-.449-1.038-.719-.998-2.184.158-5.621-1.802-7.084-.552-7.488.332-.109.688.075.794.406,1.413,4.369.879,7.14,1.063,7.824.119-.006.223,0,.34.012l3.278-4.496c1.111-1.524,2.48-3.744,1.545-5.418-.407-.729.695-1.344,1.102-.615,1.288,2.307-.312,4.972-1.628,6.776l-3.327,4.564c-.368.505-.862.465-1.099.445-.189-.018-.114-.031-.519.175Z"/>
      <path d="M121.869,38.104c-.737-1.004-1.065-1.283-.97-3.488.039-.893.073-1.663-.372-2.147-.566-.614.363-1.469.928-.854,1.166,1.265.528,3.115.726,4.41.247-.221.557-.408.971-.419.856-.456,1.683-.983,2.461-1.568.667-.501,1.426.506.759,1.008-1.041.783-1.967,1.332-2.957,1.846-.462-.055-.099-.105-1.547,1.212Z"/>
      <path d="M125.485,19.787c-.409,0-3.044-1.186-5.135-3.16-.607-.574.259-1.492.866-.918,1.292,1.219,2.848,2.208,4.5,2.859.645.255.462,1.219-.231,1.219Z"/>
      <path d="M119.325,40.864c.176-.623-.259-1.395-.564-2.162-.677-1.705-.724-3.584-.765-5.242-.021-.837,1.241-.862,1.261-.032.04,1.629.082,3.313.676,4.808.38.96.91,1.888.606,2.97-.227.804-1.441.462-1.215-.342Z"/>
      <path d="M120.612,62.257c-1.246-2.353-.585-.62-4.605-4.724-.587-.6.314-1.483.895-.89,2.783,2.842,2.776,2.447,3.692,3.306-1.232-3.664,2.129-6.782,2.487-9.931.174-1.525-.333-3.253-.406-4.909-.174-3.941,2.768-5.714,3.26-4.529.134.322-.018.691-.34.825-1.32.55-1.719,2.309-1.66,3.648.073,1.645.602,3.333.399,5.109-.377,3.313-3.672,6.574-2.483,9.556.334.838-.506,1.621-1.24,2.54Z"/>
      <path d="M147.28,231.81c-1.088-2.53-4.207-3.587-6.764-3.733-2.935-.171-5.796.455-8.858.14-10.07-1.043-16.352-12.425-15.304-22.351.269-2.551.906-5.089,1.141-7.588.381-4.069-.281-8.255-.605-12.378-.903-11.536-3.978-16.665-3.537-28.356.791-20.956-.546-39.778-.825-52.992-.334-15.658.362-32.548-5.455-44.282-.37-.747.76-1.308,1.131-.56,5.857,11.815,5.225,27.795,5.586,44.816.277,13.012,1.612,32.206.825,53.065-.433,11.459,2.628,16.635,3.534,28.21.32,4.107.999,8.366.603,12.593-.242,2.588-.875,5.072-1.143,7.603-.978,9.266,4.857,19.999,14.179,20.964,2.853.297,5.829-.318,8.799-.145,2.934.167,6.537,1.436,7.852,4.495.329.766-.83,1.265-1.159.498Z"/>
      <path d="M128.999,67.295c.73-1.407,2.551-1.149,3.671-1.379,1.004-.208,1.849-1.055,2.055-2.06.069-.341.403-.561.744-.492,1.282.264-.126,3.287-2.544,3.787-1.118.23-2.46.058-2.806.724-.382.737-1.504.159-1.12-.581Z"/>
      <path d="M180.019,173.336c-2.379-4.755-1.725-10.117-1.093-15.303,1.173-9.628.859-12.031-3.36-21.126-4.167-8.983-4.42-11.385-3.801-19.391.735-9.491-.017-12.082-6.013-18.334-7.526-7.846-16.188-15.844-25.05-23.13-.645-.53.155-1.503.801-.975,8.9,7.316,17.599,15.349,25.159,23.231,6.103,6.362,7.136,9.272,6.36,19.305-.605,7.798-.382,9.986,3.688,18.762,4.308,9.286,4.673,11.914,3.467,21.808-.637,5.231-1.239,10.172.97,14.587.374.747-.756,1.307-1.129.565Z"/>
      <path d="M116.104,163.909c-.827-.109-.663-1.361.164-1.251,7.224.951,17.875,5.128,24.035,1.758.734-.397,1.338.707.605,1.108-6.699,3.663-17.613-.67-24.805-1.615Z"/>
      <path d="M142.637,203.378c-4.465-2.499-10.057-3.116-14.96-1.651-2.32.691-4.861-2.119-7.104-4.599-2.158-2.386-2.28-2.377-3.348-3.151,14.524-10.317,23.582-2.29,33.244-3.31.83-.088.962,1.167.132,1.256-9.345.974-18.637-6.286-31.247,2.105,2.278,2.076,5.834,7.125,7.962,6.489,5.302-1.583,11.111-.941,15.937,1.76,2.222,1.243,4.87,3.06,6.997,1.946.738-.391,1.327.729.587,1.117-2.706,1.423-5.573-.484-8.2-1.962Z"/>
      <path d="M116.539,181.092c3.323-3.39,8.653-2.682,13.284-2.429,10.392.562,11.532-3.458,12.403-1.994.178.3.08.687-.22.865-9.155,5.448-19.417-.811-24.566,4.441-.576.587-1.488-.284-.901-.883Z"/>
      <path d="M125.967,175.529c-1.624,0-5.869-.506-9.686-1.526-.807-.217-.482-1.431.326-1.219,7.968,2.131,10.059.807,9.989,2.148-.017.337-.296.598-.63.598Z"/>
      <path d="M151.06,220.764c-.671,0-3.423-2.788-9.387-3.546-3.967-.504-15.004.806-25.17-8.547-.614-.566.24-1.494.854-.928,4.917,4.523,11.293,7.305,17.954,7.833,3.897.311,9.682-.366,16.107,4.037.51.35.263,1.151-.357,1.151Z"/>
      <path d="M146.437,285.906c-.315-8.452-2.531-16.891-6.408-24.407-1.65-3.199-3.68-6.408-4.446-10.05-.677-3.215,5.25-6.116,4.971-8.531-.64-5.53-3.794-11.365-8.035-14.865-.644-.53.16-1.505.803-.973,4.479,3.697,7.81,9.857,8.486,15.694.367,3.173-5.471,6.128-4.99,8.416.722,3.428,2.7,6.568,4.333,9.73,3.962,7.68,6.226,16.303,6.548,24.94.031.834-1.23.88-1.261.046Z"/>
      <path d="M130.964,295.731c1.333-5.768-1.585-11.626-2.604-17.698-1.073-6.392.035-12.843.018-19.221-.019-8.033,3.811-15.937.498-22.941-1.562-3.309-3.524-6.637-3.745-10.41-.049-.841,1.212-.896,1.26-.074.204,3.487,2.118,6.756,3.626,9.943,3.527,7.459-.396,15.537-.377,23.479.016,6.355-1.075,12.828-.036,19.016,1.004,5.985,4.004,12.062,2.589,18.19-.188.814-1.418.53-1.229-.284Z"/>
      <path d="M152.539,257.909c-1.412-1.685-3.177-3.133-5.106-4.186-1.547-.843-3.82-1.84-3.622-2.925.206-1.121,2.88-1.701,3.805-2.462-1.627-2.636-4.108-4.687-7.008-5.786-.777-.295-.339-1.473.448-1.18,3.23,1.224,5.984,3.532,7.753,6.498.893,1.496-2.319,2.333-3.563,3.091,1.663,1.42,4.749,1.948,8.261,6.138.539.644-.439,1.439-.967.811ZM147.725,248.515h.007-.007Z"/>
      <path d="M121.43,253.842c1.559-5.964,1.088-5.558,4.391-9.88,1.853-2.425,3.954-5.173,3.277-6.783-.323-.77.839-1.259,1.164-.489.961,2.285-1.275,5.21-3.437,8.039-3.164,4.139-2.649,3.602-4.173,9.432-.211.807-1.432.488-1.221-.319Z"/>
      <path d="M170.892,149.098c.856-2.632-.268-5.897-.039-8.878.295-3.846,2.723-7.513,1.61-10.864-.263-.794.935-1.188,1.198-.398,1.275,3.836-1.265,7.664-1.549,11.359-.228,2.964.972,6.119-.019,9.17-.258.794-1.458.404-1.2-.39Z"/>
      <path d="M201.05,241.208c1.198-5.617-3.108-10.916-4.91-16.684-1.76-5.631-1.033-11.68-1.057-17.444-.02-4.991-.58-9.859-1.661-21.094-1.029-10.698-2.014-12.781-7.529-20.63-2.752-3.917-5.597-7.968-6.477-12.315-.165-.818,1.072-1.068,1.237-.251.827,4.089,3.595,8.03,6.272,11.84,5.653,8.045,6.704,10.333,7.753,21.236,1.018,10.574,1.646,16.144,1.667,21.209.023,5.711-.687,11.68.999,17.074,1.77,5.662,6.243,11.214,4.94,17.324-.175.816-1.408.553-1.234-.264Z"/>
      <path d="M191.658,236.585c-2.423-10.272-4.929-20.894-9.581-30.552-1.457-3.002-3.057-6.009-2.876-9.313.111-2.022.832-3.694.995-5.567.518-5.97-4.952-11.157-5.441-17.4-.237-3.025.727-9.203,4.115-10.472.781-.294,1.224.889.442,1.182-2.384.893-3.547,6.04-3.3,9.192.464,5.923,5.999,11.168,5.44,17.607-.165,1.906-.894,3.743-.992,5.528-.164,2.994,1.408,5.924,2.753,8.696,4.712,9.782,7.234,20.472,9.672,30.81.192.813-1.037,1.102-1.228.29Z"/>
      <path d="M151.686,108.847c-2.852-2.144-4.131-5.504-5.369-8.754-2.358-6.19-3.319-7.238-7.376-10.342-5.154-3.946-5.726-5.479-6.381-10.101-.331-2.338-.644-4.547-2.392-5.617-.712-.435-.054-1.511.659-1.076,2.256,1.38,2.625,3.992,2.983,6.516.607,4.292,1.018,5.54,5.898,9.276,4.224,3.232,5.338,4.462,7.788,10.894,1.228,3.225,2.388,6.271,4.948,8.195.672.507-.1,1.504-.758,1.009Z"/>
      <path d="M188.568,152.002c.591-6.076-.788-12.318-3.882-17.58-.409-.697-.851-1.386-1.294-2.076-3.861-6.025-4.002-7.925-2.9-13.283,1.055-5.132.94-6.706-2.893-12.266-2.227-3.229-2.604-4.044-3.63-6.705-1.885-4.884-2.841-5.696-6.983-7.107l-11.222-3.824c-.791-.269-.383-1.465.407-1.195l11.222,3.824c4.505,1.535,5.737,2.619,7.753,7.848.99,2.567,1.318,3.29,3.492,6.443,4.027,5.841,4.214,7.763,3.09,13.236-1.031,5.015-.969,6.581,2.727,12.348.451.704.901,1.407,1.318,2.116,3.228,5.49,4.667,12.004,4.05,18.342-.081.831-1.337.709-1.256-.122Z"/>
      <path d="M162.933,144.432c-.318-1.63-.131-3.277.05-4.87.445-3.922.188-4.724-.912-7.121-1.938-4.226-1.76-7.231-1.311-12.333,1.303-14.896-4.379-13.41-7.073-17.141-2.231-3.088-.605-7.276-1.82-10.453-1.091-2.85-3.721-6.497-2.13-9.523.389-.738,1.506-.151,1.117.588-1.245,2.366,1.113,5.671,2.192,8.484,1.311,3.427-.242,7.527,1.665,10.166,2.37,3.283,8.673,2.443,7.307,17.99-.425,4.838-.611,7.747,1.201,11.697,1.196,2.605,1.488,3.641,1.018,7.789-.178,1.567-.346,3.048-.065,4.486.16.818-1.077,1.063-1.238.242Z"/>
      <path d="M189.728,210.027c.186-3.876.191-7.302-1.651-9.972-1.984-2.877-3.316-2.807-2.919-8.288.059-.818.121-1.664.068-2.457-.455-6.879-9.844-12.084-10.402-19.483-.062-.823,1.195-.943,1.258-.094.518,6.88,9.912,12.085,10.402,19.494.059.881-.006,1.772-.068,2.633-.359,4.956.706,4.594,2.699,7.479,2.234,3.24,2.025,7.58,1.872,10.75-.04.834-1.3.773-1.261-.061Z"/>
      <path d="M190.05,186.547c.755-2.859-1.369-5.722-2.5-8.765-1.885-5.074-.865-9.985-3.146-14.617-.369-.749.764-1.307,1.132-.557,2.427,4.927,1.371,9.818,3.198,14.736,1.122,3.02,3.431,6.141,2.537,9.526-.213.807-1.433.484-1.22-.323Z"/>
      <path d="M172.324,177.679c1.37-4.987-1.378-10.244-1.836-15.652-.101-1.197-.087-2.366-.399-3.436-.432-1.485-1.474-2.774-1.909-4.433-.489-1.867-.083-3.769.052-5.561.357-4.722-1.67-10.054-5.288-13.914-.571-.609.35-1.472.92-.863,3.853,4.11,6.009,9.808,5.627,14.873-.136,1.801-.51,3.539-.09,5.146.37,1.417,1.439,2.82,1.899,4.399.358,1.227.344,2.484.446,3.682.447,5.281,3.271,10.72,1.795,16.094-.221.805-1.438.47-1.217-.335Z"/>
      <path d="M167.247,128.524c-.812-3.482-1.196-7.061-1.142-10.637.096-6.328.312-5.943-5.496-13.976-2.892-4.001-5.744-7.211-8.665-11.253-.489-.677.535-1.416,1.022-.739,4.096,5.666,12.853,15.615,14.05,19.984,1.041,3.806-.571,7.619,1.46,16.333.19.813-1.04,1.1-1.229.287Z"/>
      <path d="M191.791,166.27c-.119-2.173-1.593-3.905-3.154-5.739-3.234-3.8-3.51-5.015-3.754-8.174-.188-2.426-.313-3.398-2.496-7.332-1.636-2.949-2.158-4.082-2.604-6.789-.42-2.554-.624-3.122-2.839-5.401-1.403-1.444-2.579-2.699-2.743-4.698.22-1.72-1.38-4.095-2.498-5.411-.54-.636.422-1.453.961-.817.727.856,3.059,3.815,2.805,6.249.149,1.502,1.233,2.617,2.38,3.798,2.418,2.487,2.72,3.29,3.179,6.074.428,2.598.926,3.613,2.463,6.382,2.282,4.112,2.451,5.269,2.651,7.846.224,2.883.399,3.86,3.457,7.454,1.628,1.912,3.311,3.89,3.453,6.487.046.833-1.214.903-1.26.069Z"/>
      <path d="M165.156,82.032c-3.128,0-4.379-2.916-7.329-2.14-1.781.467-1.867.258-4.013-1.236-.882-.614-2.216-1.542-2.559-1.642-2.73-.788-5.7-.808-8.574-.828-7.844-.054-9.505-.826-13.309-2.849-2.585-1.374-5.027-2.671-7.442-1.806-1.687.605-2.878,2.189-4.03,3.72-2.629,3.493-2.981,4.355-5.459,5.956-.703.451-1.386-.607-.685-1.06,2.098-1.356,2.214-1.769,5.135-5.654,1.263-1.68,2.57-3.417,4.613-4.15,2.941-1.056,5.747.437,8.461,1.88,3.651,1.943,5.126,2.65,12.725,2.701,8.89.061,9.319.937,11.845,2.696.684.476,1.621,1.128,1.843,1.213.299.055.702-.051,1.129-.163,2.352-.619,3.337.26,5.461,1.445,1.078.601,2.62,1.014,3.417.194.581-.6,1.487.28.905.879-.587.604-1.341.843-2.134.843Z"/>
      <path d="M144.953,75.257c1.866-1.784,5.21-3.98,8.494-4.297.826-.087.956,1.175.121,1.255-2.963.286-6.023,2.308-7.743,3.953-.599.571-1.476-.334-.872-.912Z"/>
      <path d="M162.308,84.183c-2.104-.668-3.076-2.828-3.812-5.062-.262-.797.939-1.182,1.198-.395.631,1.917,1.431,3.758,2.995,4.254.781.248.433,1.454-.382,1.203Z"/>
      <path d="M128.107,67.367c-2.525-1.729-3.56-2.113-7.68-.408-.771.32-1.254-.847-.482-1.166,4.56-1.886,6.034-1.413,8.875.534,3.903,2.678,8.054,3.439,12.009,2.677.831-.147,1.051,1.083.239,1.24-4.241.817-8.742.024-12.961-2.876Z"/>
      <path d="M118.081,53.749c.083-.407-1.146-.855-1.77-1.6-.737-.878-.596-2.037-.811-2.871-.282-1.093-1.265-1.959-2.008-3.038-1.919-2.789-.066-5.283.812-4.349.239.253.227.653-.026.892-.643.607-.35,1.865.253,2.741.719,1.046,1.823,2.015,2.191,3.438.232.9.125,1.862.555,2.376.564.673,2.341,1.187,2.04,2.663-.167.818-1.404.566-1.237-.252Z"/>
      <path d="M137.371,111.82c2.12-11.713.028-12.113-2.294-18.15-1.26-3.276-1.645-6.84-1.115-10.31.127-.825,1.373-.634,1.247.191-.497,3.252-.136,6.595,1.045,9.665,2.25,5.854,4.575,6.583,2.358,18.827-.149.822-1.39.597-1.242-.224Z"/>
      <path d="M144.401,120.309c-2.135-9.692-2.586-10.596-.87-14.842,2.58-6.381.802-8.368,2.213-8.371.338.024.632.28.633.628.01,3.091-.612,5.588-1.676,8.217-1.55,3.834-1.213,4.362.932,14.096.18.815-1.052,1.088-1.232.272Z"/>
      <path d="M131.171,85.871c-1.35-4.929-.344-5.231.135-8.47.189-1.282-.289-2.628-1.22-3.428-.633-.545.189-1.501.823-.957,1.251,1.076,1.896,2.869,1.645,4.569-.516,3.502-1.422,3.363-.166,7.953.22.805-.997,1.138-1.217.333Z"/>
      <path d="M148.637,93.82c-1.97-1.818-4.739-2.743-7.406-2.48-.827.085-.959-1.172-.125-1.256,3.023-.301,6.157.749,8.387,2.809.616.568-.25,1.487-.856.927Z"/>
      <path d="M139.854,83.982c-2.106-1.38-5.872-1.003-7.337-3.865-.381-.743.743-1.318,1.123-.575,1.119,2.187,4.674,1.921,6.905,3.384,1.152.757,2.127,1.95,3.153,1.77.823-.136,1.029,1.11.205,1.245-1.708.277-2.891-1.201-4.05-1.96Z"/>
      <path d="M148.221,89.889c-1.425-7.517-2.716-6.845-9.454-11.412-1.457-.988-2.965-2.01-4.361-2.877-.71-.439-.044-1.512.665-1.072,1.417.88,2.935,1.909,4.403,2.904,6.902,4.679,8.471,4.225,9.985,12.222.156.82-1.084,1.055-1.24.234Z"/>
      <path d="M137.218,372.974c4.053-6.792,5.201-15.394,3.07-23.01-2.096-7.488-3.48-8.036-.808-18.441,2.916-11.345,2.67-20.411,2.243-32.876-.374-10.925-.901-13.496-4.17-22.845-2.894-8.278-3.467-10.137-3.585-20.946-.085-7.747-.165-15.065-5.582-20.374-.597-.583.289-1.486.883-.901,5.79,5.674,5.873,13.245,5.961,21.261.117,10.635.663,12.382,3.515,20.543,3.3,9.439,3.86,12.122,4.24,23.218.43,12.556.676,21.704-2.282,33.234-2.643,10.29-1.15,10.811.801,17.786,2.222,7.944,1.025,16.914-3.201,23.998-.425.709-1.51.068-1.084-.647Z"/>
      <path d="M141.149,465.802c9.147-39.351-8.213-67.463-11.995-78.912-4.571-13.828-.896-28.93-3.352-43.075-.543-3.129-1.407-6.312-1.439-9.577-.047-4.779,1.661-9.279,2.058-13.896.736-8.574-3.093-17.017-4.851-25.564-1.696-8.245-.799-19.551,7.31-24.28.725-.419,1.354.671.636,1.09-7.531,4.392-8.321,15.1-6.709,22.935,1.753,8.523,5.634,17.06,4.873,25.927-.398,4.634-2.098,9.225-2.053,13.775.03,3.119.88,6.264,1.42,9.373,2.47,14.223-1.161,29.378,3.307,42.896,3.601,10.897,21.317,39.626,12.026,79.593-.19.813-1.419.528-1.229-.285Z"/>
      <path d="M151.076,372.699c-1.184-11.333-2.407-23.052.219-34.448,1.274-5.53,3.492-11,3.836-16.608.84-13.691-3.261-32.504-9.143-41.937-.442-.708.629-1.376,1.071-.667,5.999,9.622,10.186,28.769,9.332,42.681-.356,5.805-2.582,11.244-3.866,16.815-2.579,11.19-1.367,22.803-.194,34.034.087.83-1.169.961-1.255.13Z"/>
      <path d="M114.034,258.51c-.691-1.82-.8-3.86-.305-5.743,1.024-3.894,9.679-6.383,11.129-9.479,1.068-2.284,1.392-4.795,2.7-7.095.341-.593.848-1.367.678-1.933-.241-.797.966-1.167,1.208-.365.321,1.062-.264,2.008-.789,2.922-1.167,2.052-1.599,4.752-2.654,7.005-1.635,3.495-10.226,6.126-11.051,9.266-.429,1.631-.335,3.397.264,4.974.297.78-.884,1.229-1.179.448Z"/>
      <path d="M120.122,260.898c-.814,0-.845-1.22-.032-1.261,2.624-.134,5.085-1.735,6.271-4.079.567-1.121.866-2.395,1.598-3.543.448-.704,1.513-.026,1.064.678-.641,1.006-.943,2.261-1.536,3.435-1.526,3.018-4.804,4.77-7.365,4.77Z"/>
      <path d="M156.704,227.574c-1.547,0-5.587-1.959-6.476-2.389-5.785-2.803-7.296-2.884-12.657-1.564-5.642,1.392-5.596,1.087-15.313-.786-.809-.156-.595-1.386.239-1.24,9.505,1.833,9.331,2.142,14.772.801,5.651-1.391,7.473-1.271,13.509,1.653,1.94.941,3.947,1.912,6.032,2.272.759.131.658,1.253-.106,1.253Z"/>
      <path d="M121.053,237.243c.903-3.277.772-6.801-.597-10.325-1.108-2.826-.116-3.579-.895-7.05-.181-.811,1.047-1.097,1.232-.277.34,1.515.392,2.723.354,4.061-.044,1.301,0,1.572.484,2.804,1.475,3.809,1.61,7.601.639,11.122-.222.805-1.438.469-1.216-.336Z"/>
      <path d="M154.477,252.874c-.523-1.753.144-3.498.733-5.038,1.997-5.22-.634-2.905-4.526-7.434-1.989-2.318-2.787-3.326-3.551-3.903-1.404-1.06-3.494-1.448-4.714-3.075-1.244-1.658-1.132-4.507-2.831-5.138-.783-.292-.344-1.473.439-1.183,2.46.914,2.294,4.087,3.402,5.564.974,1.299,2.952,1.685,4.464,2.824.872.658,1.4,1.352,3.749,4.088,1.17,1.365,1.483,1.612,2.945,2.454,2.508,1.442,3.341,2.231,1.802,6.253-.542,1.418-1.103,2.884-.703,4.226.238.8-.971,1.161-1.209.361Z"/>
      <path d="M152.542,281.446c.292-1.344-.132-2.893-1.295-4.737-1.746-2.768-4.185-5.064-7.055-6.64-.732-.402-.123-1.511.607-1.106,4.159,2.284,9.976,8.148,8.976,12.752-.177.816-1.41.548-1.233-.268Z"/>
      <path d="M144.879,344.888c.015-3.615.032-8.114,2.214-11.699.436-.716.95-1.382,1.446-2.027,2.424-3.141,3.005-4.361,1.731-10.166-.536-2.435-.941-4.678-.834-7.862.058-1.717.494-2.277,1.784-3.116,1.82-1.195,2.092-3.821,2.735-6.293.21-.807,1.432-.49,1.221.317-.681,2.618-.985,5.529-3.268,7.033-.981.639-1.169.843-1.211,2.1-.099,2.93.256,5.045.805,7.55,1.345,6.124.725,7.72-1.964,11.208-.476.617-.968,1.255-1.367,1.912-1.999,3.285-2.016,7.589-2.03,11.047-.003.834-1.266.83-1.262-.004Z"/>
      <path d="M131.651,365.939c4.462-10.492-.805-22.95,1.546-34.431.974-4.759,3.238-9.264,3.061-13.949-.116-3.102-1.308-6.242-.892-9.492.497-3.877,3.471-7.325,7.233-8.387.804-.223,1.146.988.342,1.215-3.289.928-5.889,3.944-6.323,7.333-.383,2.987.781,6.115.901,9.284.187,4.956-2.127,9.561-3.087,14.25-2.295,11.213,2.99,23.83-1.62,34.671-.326.768-1.488.274-1.162-.494Z"/>
      <path d="M134.956,298.115c1.772-2.499,2.506-5.665,2.016-8.689-.475-2.924-2.519-7.062-.221-10.192.509-.692.711-1.382.723-2.461.01-.834,1.271-.82,1.262.015-.015,1.334-.304,2.289-.968,3.194-1.894,2.579-.014,6.391.449,9.243.543,3.348-.27,6.855-2.232,9.621-.47.663-1.518-.039-1.03-.73Z"/>
      <path d="M129.626,322.672c1.495-4.229,1.459-8.908-.532-13.779-1.003-2.46-1.111-3.138-1.14-5.279-.109-7.734-6.388-11.166-7.216-18.217-.096-.821,1.155-.991,1.253-.148.768,6.54,7.117,10.324,7.225,18.347.027,1.978.101,2.503,1.046,4.819,2.11,5.171,2.147,10.169.553,14.676-.279.79-1.468.364-1.19-.42Z"/>
      <path d="M138.508,209.261c-8.01-1.499-7.042-2.321-10.675-3.369-3.444-.993-7.204-.168-10.522.56-.808.185-1.09-1.053-.27-1.232,3.464-.76,7.39-1.621,11.141-.539,3.841,1.105,2.768,1.885,10.558,3.34,10.186,1.908,12.216,2.427,14.662,2.221.825-.077.945,1.185.107,1.257-2.769.236-5.203-.402-15.002-2.237Z"/>
      <path d="M134.887,201.216c-.739,0-.871-1.062-.154-1.243,1.232-.31,2.101-1.824,3.433-2.659,1.698-1.066,3.846-.88,5.415-.744.838.072.715,1.338-.109,1.257-1.803-.154-3.395-.221-4.635.556-1.111.699-2.602,2.834-3.95,2.834Z"/>
      <path d="M125.781,190.595c-.448,0-.757-.459-.581-.876.932-2.213,3.23-3.719,7.025-4.603,3.938-.917,7.984-1.31,12.023-1.175.835.028.792,1.29-.043,1.261-3.928-.134-7.864.251-11.694,1.143-6.578,1.532-5.581,4.249-6.73,4.249Z"/>
      <path d="M127.348,178.091c2.047-.376,3.939-1.544,5.191-3.205.501-.664,1.511.091,1.007.76-1.441,1.91-3.617,3.253-5.97,3.685-.831.155-1.04-1.092-.228-1.241Z"/>
      <path d="M127.625,183.233c-.454,0-3.928-.783-7.291-2.528-.742-.384-.159-1.506.581-1.119,5.445,2.826,7.582,1.864,7.328,3.139-.059.3-.323.508-.618.508Z"/>
      <path d="M138.112,171.412c-.552,0-.771-.747-6.426-1.115-3.085-.203-6.309-.476-8.769-2.453-1.789-1.436-3.075-3.673-5.037-3.769-.856-.041-.743-1.333.061-1.26,2.579.125,4.008,2.63,5.767,4.045,3.831,3.079,9.952,1.403,14.645,3.336.638.264.446,1.215-.241,1.215Z"/>
      <path d="M122.685,171.702c-.463,0-2.529-1.895-6.354-1.835-.849.002-.845-1.248-.021-1.261,2.353-.058,4.744.649,6.72,1.937.524.342.281,1.16-.345,1.16Z"/>
      <path d="M133.21,212c-1.24-.154-2.784-.346-3.981-1.259-1.583-1.208-2.61-4.247-7.219-5.589-.796-.233-.455-1.442.353-1.212,4.947,1.441,6.395,4.854,7.632,5.797.925.707,2.224.868,3.371,1.01.814.102.691,1.346-.156,1.253Z"/>
      <path d="M141.218,206.58c-.518,0-5.244-1.834-9.281-4.354-.723-.449-1.556-1.003-2.391-1.04-.799-.037-.82-1.251.057-1.261,1.123.051,2.067.647,3.002,1.232,7.009,4.374,9.65,3.71,9.21,4.998-.09.261-.335.426-.597.426Z"/>
      <path d="M121.588,196.74c2.753-1.185,5.768-.594,8.443-1.313,2.638-.708,5.1-2.74,8.075-2.579.825.043.782,1.294-.065,1.26-2.534-.129-5.007,1.819-7.681,2.538-2.804.755-5.817.198-8.272,1.253-.771.336-1.259-.832-.499-1.159Z"/>
      <path d="M126.795,223.694c-.93,0-.841-1.292-.032-1.262,1.304.05,2.341-1.434,3.714-2.375,1.346-.925,3.104-1.273,4.7-.93.814.174.556,1.405-.264,1.234-4.19-.901-5.034,3.333-8.118,3.333Z"/>
      <path d="M125.353,218.4c-1.817-1.006-5.055-1.037-8.541-4.708-.575-.605.34-1.474.915-.869,3.331,3.508,6.079,3.281,8.236,4.472,1.183.656,2.265,1.68,3.257,1.4.81-.218,1.137.995.336,1.216-1.639.454-2.996-.843-4.204-1.511Z"/>
      <path d="M155.738,216.971c-.023,0-3.427-.368-5.14-.554-4.106-.444-5.56-.554-11.703.48-.815.147-1.039-1.104-.209-1.244,7.278-1.225,7.568-.977,17.119.06.787.086.724,1.258-.067,1.258Z"/>
      <path d="M152.801,197.939c-1.045,0,.273-1.24-6.827-4.781l-3.289-1.641c-.747-.373-.185-1.5.563-1.129,4.586,2.288,8.028,3.713,10.065,6.553.3.419-.003.998-.512.998Z"/>
      <path d="M121.31,192.561c-.752-.352-.228-1.495.534-1.144,2.4,1.122,5.214,2.084,7.366.524.679-.49,1.415.533.741,1.021-2.566,1.862-5.808.921-8.641-.401Z"/>
      <path d="M118.006,190.721c-.824-.084-.711-1.333.128-1.255,2.143.225,3.26-4.085,6.191-3.9.857.043.746,1.338-.063,1.26-2.204-.031-3.244,4.191-6.256,3.895Z"/>
      <path d="M127.633,184.651c-3.706,0-7.398-.601-10.823-1.159-.828-.134-.617-1.386.203-1.245,16.476,2.682,17.414-.24,22.487-1.434.813-.19,1.102,1.037.289,1.228-3.121.736-5.333,2.61-12.156,2.61Z"/>
      <path d="M115.594,140.638l-.115-.174c-.007.011-.15-.022-.245-.043-2.205-.495-.63-2.276.031-1.274.005-.01.15.02.246.043.246.055.597.134.864.39,8.133,2.965,17.809,7.432,24.974,2.574.69-.471,1.399.576.708,1.044-7.782,5.275-18.086.495-26.463-2.56Z"/>
      <path d="M123.708,146.786c-3.609-3.19-6.42-.379-8.812-2.038-.686-.475.033-1.513.719-1.037.867.6,2.2.253,3.502.198,1.97-.067,3.949.624,5.427,1.931.625.552-.214,1.494-.836.946Z"/>
      <path d="M139.341,152.481c-3.172-.786-7.12-1.765-9.67-4.606-1.196-1.332-2.382-2.926-3.962-3.619-.764-.335-.258-1.49.507-1.156,1.855.813,3.081,2.467,4.394,3.932,2.291,2.552,6.03,3.48,9.035,4.224.797.198.524,1.426-.303,1.225Z"/>
      <path d="M119.384,141.981c-.87-.017-.845-1.235-.042-1.261,4.381-.146,9.618.502,11.24-.449.721-.421,1.358.666.639,1.089-2.055,1.204-7.23.466-11.836.621Z"/>
      <path d="M131.435,154.995c-.493,0-1.581-1.057-5.52-2.536-1.346-.506-2.747-.939-4.136-1.439-2.081-.751-3.779-2.906-6.111-2.284-.807.213-1.132-1.004-.325-1.219,2.962-.79,4.988,1.64,6.865,2.315,2.627.95,5.528,1.68,9.543,3.984.559.322.33,1.179-.315,1.179Z"/>
      <path d="M212.269,285.327c.532-6.024-3.272-15.346-3.327-21.742-.009-1.032-1.728-1.934-2.049-3.454-.288-1.364.088-2.685.293-3.953.475-2.955.005-5.994-.45-8.935-.625-4.039-1.27-8.214-2.821-12.043-1.668-4.118-3.47-7.231-6.84-9.037-.736-.394-.14-1.507.596-1.112,3.923,2.101,5.881,5.892,7.413,9.675,1.606,3.964,2.263,8.214,2.898,12.324.47,3.037.956,6.176.45,9.327-.198,1.227-.534,2.406-.304,3.493.245,1.159,2.062,2.006,2.077,3.704.053,6.24,3.88,15.544,3.322,21.863-.073.832-1.331.72-1.257-.112Z"/>
      <path d="M201.371,224.844l-2.848-7.005c-2.087-5.129.277-4.09.15-8.915-.126-4.85-1.657-9.757-4.311-13.816-.456-.699.599-1.39,1.056-.691,2.82,4.315,4.382,9.32,4.516,14.474.136,5.166-2.119,3.859-.243,8.474l2.848,7.005c.315.774-.855,1.249-1.169.475Z"/>
      <path d="M196.825,244.553c-1.216-2.619-1.392-5.513-1.562-8.311-.324-5.314-.731-6.405-2.092-9.456-2.235-5.018-1.471-5.463-1.995-7.522-.658-2.586-3.058-4.296-5.671-5.962-.704-.449-.026-1.511.678-1.064,2.722,1.736,5.444,3.684,6.216,6.715.604,2.374-.268,2.396,1.925,7.319,1.426,3.2,1.866,4.419,2.199,9.893.171,2.805.332,5.454,1.448,7.857.35.756-.794,1.287-1.145.531Z"/>
      <path d="M186.033,225.475c-2.153-3.051-4.594-6.509-5.296-10.536-.264-1.515-.27-3.03-.787-4.352-.479-1.223-1.438-2.412-1.513-3.928-.105-2.13,1.814-4.214.648-8.795-.206-.81,1.017-1.121,1.223-.311,1.228,4.824-.693,7.395-.611,9.044.057,1.154.939,2.28,1.428,3.531.593,1.515.593,3.09.855,4.593.654,3.748,3.007,7.083,5.084,10.025.486.69-.56,1.394-1.031.728Z"/>
      <path d="M176.05,200.389c.373-4.064-1.614-8.352-1.835-12.614-.054-1.029.132-1.427.724-2.108,1.621-1.869-.182-4.785,1.232-7.156.427-.717,1.512-.071,1.084.646-1.189,1.995.752,4.914-1.364,7.337-.396.456-.452.546-.417,1.215.224,4.296,2.242,8.343,1.832,12.795-.076.832-1.333.716-1.256-.116Z"/>
      <path d="M184.727,203.909c-.903,0-.599-1.421-2.013-3.594-1.098-1.642-.731-.675-2.413-10.003-.149-.824,1.094-1.042,1.242-.225,1.688,9.361,1.314,8.176,2.229,9.54.703,1.08,1.133,2.279,1.549,3.438.149.415-.164.844-.594.844Z"/>
      <path d="M192.779,208.088c1.665-4.839-2.882-10.545-.599-15.775.493-1.128,1.298-2.117,1.615-3.177.24-.8,1.447-.438,1.209.362-.381,1.274-1.194,2.237-1.667,3.321-2.055,4.708,2.454,10.398.636,15.68-.271.789-1.465.379-1.193-.41Z"/>
      <path d="M189.022,197.178c-.026-7.135-3.015-10.123-3.642-12.937-.232-1.04-.209-2.188-.641-3.016-.596-1.141-1.686-1.594-6.795-4.477-.727-.409-.108-1.508.62-1.099,5.111,2.884,6.484,3.441,7.294,4.993.573,1.097.521,2.284.754,3.325.553,2.478,3.645,5.87,3.673,13.207.003.835-1.258.839-1.262.004Z"/>
      <path d="M139.237,521.111c-.128-12.852-.332-13.491.669-15.937,1.062-2.598-.352-2.567.312-11.861l.552-.033c1.297-.064,2.655.754,3.451,2.117,1.374,2.349,1.006,5.858,4.783,11.262.434.617.867,1.198,1.148,1.894.614,1.52.324,3.123.529,4.564.351,2.48,2.233,4.604,3.744,6.311.553.626-.39,1.461-.945.837-1.623-1.834-3.644-4.115-4.049-6.971-.209-1.478.049-3.034-.449-4.269-.227-.562-.626-1.095-1.013-1.642-4.98-7.126-3.307-11.96-6.575-12.79-.159,2.683-.103,5.173.132,7.78.145,1.559.066,2.009-.453,3.277-.876,2.146-.704,2.433-.575,15.447.008.835-1.253.848-1.262.013Z"/>
      <path d="M136.94,485.524c1.31-7.654-5.526-15.509-3.01-23.338.624-1.94,1.814-3.69,2.261-5.551.65-2.705-.221-5.532-.653-8.466-.336-2.28-.484-6.444,2.307-8.715,2.354-1.916,4.515-1.091,5.249-8.242.085-.831,1.341-.702,1.256.129-.804,7.837-3.571,7.353-5.708,9.092-2.306,1.878-2.152,5.538-1.855,7.553.428,2.906,1.353,5.943.632,8.944-.492,2.051-1.684,3.769-2.287,5.643-2.339,7.274,4.421,15.168,3.052,23.164-.14.823-1.385.611-1.244-.213Z"/>
      <path d="M129.304,460.658c.438-25.736.614-26.865-.077-30.228-1.008-4.898-4.019-9.969-2.251-14.924.561-1.573,1.577-2.95,1.918-4.427.684-2.961-1.26-6.196-.79-9.535.214-1.524.981-3.058,1.175-4.447.494-3.536-2.216-7.581-.484-11.197.359-.753,1.499-.208,1.138.544-1.479,3.092,1.13,7.01.596,10.828-.223,1.591-.971,3.002-1.175,4.448-.43,3.057,1.54,6.31.77,9.643-.394,1.707-1.419,3.057-1.96,4.567-1.598,4.479,1.279,9.293,2.299,14.246.723,3.516.544,4.578.103,30.504-.015.834-1.276.813-1.262-.022Z"/>
      <path d="M144.808,499.092c5.181-24.824,7.377-53.317,6.435-61.39-.411-3.517-1.477-7.015-2.193-10.529-2.379-11.685-.968-23.879-.618-35.597.883-29.54-8.542-33.608-6.52-34.871.296-.185.685-.094.87.201,13.103,20.944,2.837,47.086,7.505,70.016.715,3.517,1.787,7.014,2.209,10.635.902,7.718-.981,35.579-6.453,61.794-.171.817-1.406.56-1.235-.258Z"/>
      <path d="M134.285,438.115c.583-4.959.399-9.96-.546-14.862-.822-4.262-1.979-3.76-2.975-5.761-1.087-2.186-.116-5.221-1.718-6.219-.709-.441-.042-1.514.666-1.072,2.319,1.442,1.222,4.798,2.182,6.728.864,1.741,2.202,1.508,3.084,6.084.969,5.029,1.158,10.16.56,15.248-.097.829-1.351.681-1.253-.148Z"/>
      <path d="M123.591,411.217c4.793-11.295-1.938-24.935,3.742-31.742.535-.641,1.504.167.969.808-5.212,6.249,1.357,19.866-3.55,31.427-.325.768-1.487.275-1.161-.492Z"/>
      <path d="M142.968,409.375c.629-4.662-3.628-8.814-4.376-13.838-.251-1.682-.09-3.228-.266-4.832-.476-4.325-3.402-8.059-6.025-11.626-2.318-3.166-6.116-9.858-5.643-14.862.077-.824,1.336-.716,1.256.119-.383,4.049,2.439,9.948,5.405,13.997,2.764,3.761,5.749,7.585,6.261,12.234.175,1.592.036,3.276.261,4.784.715,4.799,5.075,9.029,4.378,14.192-.112.827-1.362.658-1.25-.169Z"/>
      <path d="M153.063,420.153c-.784-4.722-1.006-9.536-.66-14.312.674-9.321,1.765-11.925-2.427-20.736-.613-1.287-1.247-2.617-1.606-3.688-.266-.792.93-1.194,1.196-.403.336.999.952,2.294,1.549,3.548,4.324,9.081,3.23,11.972,2.546,21.37-.339,4.676-.122,9.39.646,14.013.137.824-1.108,1.031-1.245.207Z"/>
      <path d="M157.802,302.102c.081-2.987-1.42-6.141-4.347-7.968-1.001-.623-2.372-1.475-2.21-2.929.093-.83,1.347-.691,1.254.139-.069.615.661,1.121,1.622,1.718,3.294,2.048,5.036,5.645,4.943,9.075-.022.834-1.284.799-1.261-.035Z"/>
      <path d="M204.712,284.626c-.201-1.846-.906-3.564-1.653-5.382-1.811-4.408-2.595-6.848-1.226-14.62.763-4.337,2.068-5.998,5.752-9.663.593-.587,1.481.306.89.895-3.631,3.613-4.719,5.134-5.4,8.987-1.333,7.567-.545,9.793,1.15,13.922.748,1.82,1.521,3.701,1.741,5.725.09.83-1.164.966-1.255.136Z"/>
      <path d="M198.861,262.98c1.093-2.705-.727-6.149-.006-9.363.363-1.619,1.31-2.959,1.806-4.392.491-1.416.795-4.143.51-6-.086-.561-.175-1.141-.134-1.918.044-.83,1.304-.769,1.26.067-.034.647.041,1.14.121,1.66.319,2.086-.011,5.007-.565,6.605-.51,1.471-1.454,2.856-1.767,4.255-.666,2.966,1.224,6.394-.055,9.56-.313.774-1.483.301-1.17-.474Z"/>
      <path d="M222.131,266.545c-1.896-1.467-4.493-3.476-5.468-6.319-.529-1.547-.552-3.248-1.396-4.425-.692-.966-1.887-1.518-3.026-2.163-1.579-.897-3.527-2.723-4.906-3.75-.669-.5.084-1.509.755-1.012,1.377,1.028,3.351,2.857,4.775,3.664,1.23.7,2.557,1.31,3.428,2.525,1.038,1.447,1.053,3.257,1.565,4.752.788,2.299,2.751,3.956,5.046,5.731.664.512-.121,1.503-.772.998Z"/>
      <path d="M212.658,259.46c-1.645-1.419-3.95-3.801-5.126-5.677-.442-.706.624-1.38,1.07-.671,1.057,1.688,3.256,3.99,4.881,5.392.637.551-.202,1.492-.824.956Z"/>
      <path d="M209.278,288.111c-2.626-11.983-3.067-13.082-2.821-16.379.165-2.216-.003-2.619-.664-3.871-1.603-3.038-1.617-6.036-1.107-9.599.118-.826,1.367-.648,1.249.178-.466,3.266-.486,6.069.974,8.832.772,1.461.99,2.097.807,4.554-.218,2.938.005,3.286,2.795,16.015.178.816-1.054,1.087-1.232.271Z"/>
      <path d="M195.56,260.014c.655-1.854-.584-4.196.153-6.429.688-2.084,2.949-3.369,2.139-8.113-.557-3.262.166-3.844.36-6.022.209-2.36-.851-4.839-2.702-6.317-.652-.522.134-1.506.788-.986,2.205,1.762,3.421,4.603,3.171,7.415-.21,2.354-.889,2.677-.373,5.698.892,5.219-1.606,6.966-2.185,8.72-.616,1.868.623,4.234-.162,6.453-.279.79-1.467.364-1.19-.42Z"/>
      <path d="M202.749,256.204c.935-1.515,1.251-2.956,1.313-4.609.099-2.762,1.489-4.518,1.518-11.761.004-.834,1.265-.83,1.262.004-.026,6.513-1.285,9.736-1.432,10.651-.198,1.238.174,3.523-1.587,6.377-.432.701-1.512.048-1.074-.663Z"/>
      <path d="M216.978,281.576c1.243-1.778-2.663-7.549-3.986-13.277-.54-2.341-.846-3.109-3.876-5.098-.698-.458-.005-1.512.693-1.054,3.294,2.162,3.794,3.194,4.413,5.868,1.384,6.01,5.624,11.661,3.79,14.284-.469.672-1.517-.033-1.034-.723Z"/>
      <path d="M200.335,269.212c-.502,0-.806-.565-.521-.985l1.79-2.636c.468-.691,1.513.018,1.044.708-1.935,2.849-1.866,2.913-2.313,2.913Z"/>
      <path d="M215.393,253.243c-.089,0-.003.01-4.485-.821-1.509-.281-1.74-1.232-1.151-1.607.295-.19.684-.101.871.194.086.133.432.157,4.879.982.75.139.648,1.252-.114,1.252Z"/>
      <path d="M213.09,263.212c-.376,0-.659-.32-.629-.682.052-.635-1.276-1.565-1.884-1.86-1.002-.488-2.999-.892-3.608-2.551-.287-.783.898-1.218,1.185-.434.378,1.034,1.91,1.331,2.975,1.851,2.958,1.436,3.036,3.677,1.961,3.677Z"/>
      <path d="M193.019,215.97c-.335-1.113-1.416-1.801-2.561-2.53-5.68-3.613-1.036-4.679-8.546-7.499-.782-.293-.337-1.477.444-1.182,2.93,1.101,4.762,1.995,5.916,4.648.608,1.395.958,1.755,2.863,2.968,1.289.82,2.623,1.668,3.092,3.231.24.8-.968,1.163-1.208.363Z"/>
      <path d="M183.365,173.244c.783-4.04-4.145-6.53-4.169-13.903-.003-.834,1.259-.839,1.262-.004.023,7.125,5.068,9.389,4.146,14.148-.159.82-1.398.58-1.239-.24Z"/>
      <path d="M116.012,86.309c2.889-.593,4.289-4.334,7.207-5.997,2.275-1.297,5.763-1.1,2.888-8.677-.297-.78.883-1.228,1.18-.448,1.519,3.999,1.506,6.803-.038,8.334-.999.989-2.35,1.285-3.404,1.886-2.688,1.533-4.141,5.432-7.579,6.137-.83.169-1.061-1.07-.253-1.237Z"/>
      <path d="M127.121,105.405c1.277-1.175,1.887-2.398,2.374-3.864.65-1.951,1.029-2.495,2.794-3.75.423-.301.823-.586,1.164-.917,1.145-1.112,1.62-2.89,1.182-4.425-.229-.803.985-1.149,1.213-.346.561,1.969-.048,4.249-1.516,5.676-.41.399-.869.725-1.312,1.04-1.529,1.087-1.758,1.408-2.328,3.121-.539,1.619-1.247,3.04-2.717,4.394-.61.56-1.469-.363-.854-.928Z"/>
      <path d="M118.763,98.114c-.653,0-1.344-.035-2.079-.102-.822-.077-.726-1.319.116-1.257,2.618.243,4.606.034,6.258-.654,2.015-.839,3.498-2.546,3.776-4.348.11-.71.053-1.444-.007-2.222-.326-4.258.927-3.633.182-7.268-.306-1.496-.558-3.132.428-4.433.504-.665,1.509.096,1.006.762-.706.933-.415,2.357-.197,3.418.369,1.804.368,2.333.015,4.141-.605,3.085.162,3.582-.18,5.795-.481,3.116-3.518,6.168-9.318,6.168Z"/>
      <path d="M117.431,81.502c-.813-.189-.529-1.414.285-1.23,2.05.476,4.24.272,6.166-.575.765-.336,1.272.819.508,1.156-2.149.944-4.617,1.192-6.959.649Z"/>
      <path d="M178.558,118.618c-.257-1.88-3.877-3.104-6.571-7.891-.409-.727.692-1.346,1.1-.618,2.803,4.98,6.344,5.583,6.721,8.339.113.828-1.137.998-1.25.171Z"/>
      <path d="M136.019,144.295c7.06-5.902,5.043-5.277,14.368-4.215.833.096.682,1.353-.143,1.254-5.969-.68-6.558-.823-7.502-.557-1.007.283-1.496.793-5.913,4.485-.63.529-1.454-.43-.809-.967Z"/>
      <path d="M150.412,151.249c-1.673,0-2.909-.595-4.315-1.276-3.061-1.481-3.902-1.555-7.468-.353-1.674.564-3.405,1.149-5.212.764-.817-.172-.555-1.406.261-1.234,1.472.31,2.966-.193,4.548-.726,3.908-1.317,5.088-1.2,8.422.413.519.251,1.056.511,1.585.718,1.531.599,3.491.686,4.416-.474.523-.65,1.507.135.986.788-.806,1.009-2.005,1.379-3.223,1.379Z"/>
      <path d="M114.53,138.022c-.809-.204-.501-1.426.308-1.224,4.995,1.26,5.128-2.863,10.682-1.23.8.236.445,1.443-.356,1.211-4.986-1.467-4.981,2.669-10.634,1.243Z"/>
      <path d="M123.032,28.704c-.84-1.08-2.096-1.822-3.447-2.035-.657-.106-1.431-.104-2.16-.431-1.862-.834-1.575-3.167-.474-2.793.331.108.512.464.404.796-.096.291.231.687.586.846.989.443,3.841-.044,6.087,2.843.517.665-.494,1.42-.996.775Z"/>
      <path d="M124.306,16.047c-.626,0-.62-.831-2.087-1.444-.94-.393-2.151-.455-3.241-.822-1.316-.443-2.465-1.312-3.654-1.312-.834,0-.838-1.261.005-1.261,1.559,0,2.771.946,4.051,1.377,1.616.543,3.749.331,5.42,2.44.329.415.029,1.022-.494,1.022Z"/>
      <path d="M116.856,19.545c-.815,0-.845-1.222-.03-1.26,3.354-.161,4.686-.027,5.699-.836.272-.219.669-.174.887.098.623.78-.854,1.466-1.781,1.675-.836.189-4.701.324-4.775.324Z"/>
      <path d="M126.009,22.499c-.131-1.625.248-3.295,1.067-4.704.42-.721,1.51-.087,1.091.634-.691,1.189-1.011,2.598-.901,3.969.067.834-1.191.932-1.258.101Z"/>
      <path d="M135.32,521.544c2.03-6.451-.131-13.856,1.785-20.613.698-2.457,1.938-5.285.626-7.269-.156-.236-.231-.35-.73-.079-3.598,1.956-1.918,6.565-5.064,24.818-.142.822-1.386.608-1.244-.214,1.024-5.942,1.798-12,2.299-18.005.179-2.144.513-6.135,3.406-7.708.942-.51,1.787-.414,2.385.492,1.653,2.5.304,5.594-.465,8.309-1.852,6.53.316,13.935-1.796,20.648-.252.796-1.454.417-1.204-.379Z"/>
      <path d="M147.621,520.957c-1.678-4.129-3.58-8.809-3.702-13.646-.052-2.056.212-4.102-.168-6.02-.426-2.155-1.755-4.342-2.327-6.608-.809-3.205-.19-6.502-.384-9.654-.495-8.078-6.257-15.229-6.637-23.586-.038-.838,1.223-.883,1.261-.058.361,7.932,6.132,15.338,6.637,23.567.195,3.175-.405,6.443.347,9.422.577,2.286,1.859,4.232,2.342,6.672.413,2.087.14,4.194.191,6.233.117,4.606,1.893,8.977,3.61,13.203.314.774-.855,1.248-1.169.475Z"/>
      <path d="M145.699,485.812c2.122-19.896-.621-18.818.806-26.929.582-3.313.668-4.258-1.149-9.188-.738-2.002-1.501-4.072-1.583-6.086-.015-.348.256-.642.605-.657.342.003.642.257.656.605.074,1.816.77,3.703,1.507,5.701,1.891,5.13,1.832,6.295,1.208,9.843-1.402,7.984,1.364,6.626-.794,26.843-.088.83-1.343.697-1.255-.133Z"/>
      <path d="M132.227,492.945c4.263-4.335-2.223-10.685,1.802-22.003.28-.786,1.469-.364,1.189.423-1.657,4.659-1.556,8.668-.742,12.937.599,3.145,1.201,6.934-1.349,9.528-.581.59-1.486-.289-.9-.885Z"/>
      <path d="M139.438,471.124c-1.337-2.97-1.05-7.852-.798-12.158.54-9.194-.484-8.127-.892-13.06-.194-2.346.157-5.765,1.784-7.679.541-.636,1.503.181.961.817-1.288,1.516-1.675,4.486-1.488,6.757.399,4.845,1.447,3.798.894,13.239-.244,4.162-.521,8.878.689,11.566.342.76-.808,1.278-1.151.518Z"/>
      <path d="M132.341,452.619c1.724-1.849.95-4.781.328-6.969-2.127-7.48-.247-11.263-1.515-14.936-.586-1.696-1.809-3.114-2.991-4.485-.546-.632.411-1.457.955-.824,1.202,1.392,2.564,2.971,3.229,4.897,1.367,3.955-.523,7.756,1.537,15.004.292,1.029.594,2.093.719,3.197.134,1.179.137,3.394-1.339,4.976-.56.601-1.495-.247-.923-.86Z"/>
      <path d="M126.75,450.964c-.846-5.573-.815-7.802,3.148-15.287.392-.737,1.506-.147,1.115.591-3.856,7.282-3.812,9.252-3.015,14.506.126.826-1.122,1.016-1.248.19Z"/>
      <path d="M145.715,427.36c.821-4.003-.858-8.186-.909-12.483-.067-5.635,2.335-9.642-.437-15.274-3.367-6.829.835-11.783,1.044-17.952.101-2.943-.99-6.648,1.612-11.316.407-.729,1.509-.115,1.102.614-2.407,4.319-1.345,7.582-1.452,10.745-.213,6.298-4.25,11.1-1.173,17.352,2.965,6.021.502,10.37.567,15.816.049,4.161,1.762,8.465.883,12.75-.168.818-1.404.565-1.236-.253Z"/>
      <path d="M140.436,390.092c.163-1.559-.452-3.173-.994-4.596-.762-2.003-1.55-4.074-2.623-5.944-1.767-3.077-1.837-.626-7.936-6.487-.603-.578.273-1.489.875-.909,7.305,7.019,6.563,1.593,10.864,12.891.592,1.555,1.263,3.318,1.069,5.175-.086.83-1.342.7-1.255-.13Z"/>
      <circle cx="176.425" cy="166.656" r="2.122"/>
      <path d="M182.405,174.405c0,1.172.95,2.122,2.122,2.122s2.122-.95,2.122-2.122-.95-2.122-2.122-2.122-2.122.95-2.122,2.122Z"/>
      <path d="M170.793,173.996c0,1.172.95,2.122,2.122,2.122s2.122-.95,2.122-2.122-.95-2.122-2.122-2.122-2.122.95-2.122,2.122Z"/>
      <path d="M168.315,161.843c0,1.172.95,2.122,2.122,2.122s2.122-.95,2.122-2.122-.95-2.122-2.122-2.122-2.122.95-2.122,2.122Z"/>
      <path d="M121.504,167.335c0,1.172.95,2.122,2.122,2.122s2.122-.95,2.122-2.122-.95-2.122-2.122-2.122-2.122.95-2.122,2.122Z"/>
      <path d="M118.675,174.759c0,1.172.95,2.122,2.122,2.122s2.122-.95,2.122-2.122-.95-2.122-2.122-2.122-2.122.95-2.122,2.122Z"/>
      <path d="M122.21,180.415c0,1.172.95,2.122,2.122,2.122s2.122-.95,2.122-2.122-.95-2.122-2.122-2.122-2.122.95-2.122,2.122Z"/>
      <path d="M119.87,150.426c0,1.172.95,2.122,2.122,2.122s2.122-.95,2.122-2.122-.95-2.122-2.122-2.122-2.122.95-2.122,2.122Z"/>
      <path d="M126.431,265.967c0,1.172.95,2.122,2.122,2.122s2.122-.95,2.122-2.122-.95-2.122-2.122-2.122-2.122.95-2.122,2.122Z"/>
      <path d="M118.796,141.907c0,1.172.95,2.122,2.122,2.122s2.122-.95,2.122-2.122-.95-2.122-2.122-2.122-2.122.95-2.122,2.122Z"/>
      <path d="M124.31,107.589c0,1.172.95,2.122,2.122,2.122s2.122-.95,2.122-2.122-.95-2.122-2.122-2.122-2.122.95-2.122,2.122Z"/>
      <path d="M126.804,79.074c0,1.172.95,2.122,2.122,2.122s2.122-.95,2.122-2.122-.95-2.122-2.122-2.122-2.122.95-2.122,2.122Z"/>
      <path d="M123.659,189.964c0,1.172.95,2.122,2.122,2.122s2.122-.95,2.122-2.122-.95-2.122-2.122-2.122-2.122.95-2.122,2.122Z"/>
      <path d="M140.239,210.111c0,1.172.95,2.122,2.122,2.122s2.122-.95,2.122-2.122-.95-2.122-2.122-2.122-2.122.95-2.122,2.122Z"/>
      <path d="M127.267,219.302c0,1.172.95,2.122,2.122,2.122s2.122-.95,2.122-2.122-.95-2.122-2.122-2.122-2.122.95-2.122,2.122Z"/>
      <path d="M135.291,236.272c0,1.172.95,2.122,2.122,2.122s2.122-.95,2.122-2.122-.95-2.122-2.122-2.122-2.122.95-2.122,2.122Z"/>
      <path d="M121.179,96.684c0,1.172.95,2.122,2.122,2.122s2.122-.95,2.122-2.122-.95-2.122-2.122-2.122-2.122.95-2.122,2.122Z"/>
      <path d="M137.036,101.933c0,1.172.95,2.122,2.122,2.122s2.122-.95,2.122-2.122-.95-2.122-2.122-2.122-2.122.95-2.122,2.122Z"/>
      <path d="M126.077,94.155c0,1.172.95,2.122,2.122,2.122s2.122-.95,2.122-2.122-.95-2.122-2.122-2.122-2.122.95-2.122,2.122Z"/>
      <path d="M120.744,204.401c0,1.172.95,2.122,2.122,2.122s2.122-.95,2.122-2.122-.95-2.122-2.122-2.122-2.122.95-2.122,2.122Z"/>
      <path d="M137.412,199.858c0,1.172.95,2.122,2.122,2.122s2.122-.95,2.122-2.122-.95-2.122-2.122-2.122-2.122.95-2.122,2.122Z"/>
      <path d="M130.921,175.267c0,1.172.95,2.122,2.122,2.122s2.122-.95,2.122-2.122-.95-2.122-2.122-2.122-2.122.95-2.122,2.122Z"/>
      <path d="M114.065,163.284c0,1.172.95,2.122,2.122,2.122s2.122-.95,2.122-2.122-.95-2.122-2.122-2.122-2.122.95-2.122,2.122Z"/>
      <path d="M148.172,83.284c0,1.172.95,2.122,2.122,2.122s2.122-.95,2.122-2.122-.95-2.122-2.122-2.122-2.122.95-2.122,2.122Z"/>
      <path d="M145.521,104.053c0,1.172.95,2.122,2.122,2.122s2.122-.95,2.122-2.122-.95-2.122-2.122-2.122-2.122.95-2.122,2.122Z"/>
      <path d="M140.984,71.647c0,1.172.95,2.122,2.122,2.122s2.122-.95,2.122-2.122-.95-2.122-2.122-2.122-2.122.95-2.122,2.122Z"/>
      <circle cx="152.065" cy="110.464" r="2.122"/>
      <circle cx="166.208" cy="98.746" r="2.122"/>
      <path d="M153.299,93.095c0,1.172.95,2.122,2.122,2.122s2.122-.95,2.122-2.122-.95-2.122-2.122-2.122-2.122.95-2.122,2.122Z"/>
      <path d="M119.007,84.61c0,1.172.95,2.122,2.122,2.122s2.122-.95,2.122-2.122-.95-2.122-2.122-2.122-2.122.95-2.122,2.122Z"/>
      <path d="M160.015,90.973c0,1.172.95,2.122,2.122,2.122s2.122-.95,2.122-2.122-.95-2.122-2.122-2.122-2.122.95-2.122,2.122Z"/>
      <path d="M138.826,222.484c0,1.172.95,2.122,2.122,2.122s2.122-.95,2.122-2.122-.95-2.122-2.122-2.122-2.122.95-2.122,2.122Z"/>
      <circle cx="153.322" cy="228.141" r="2.122"/>
      <path d="M155.442,233.326c0,1.172.95,2.122,2.122,2.122s2.122-.95,2.122-2.122-.95-2.122-2.122-2.122-2.122.95-2.122,2.122Z"/>
      <path d="M120.796,234.858c0,1.172.95,2.122,2.122,2.122s2.122-.95,2.122-2.122-.95-2.122-2.122-2.122-2.122.95-2.122,2.122Z"/>
      <circle cx="133.288" cy="211.373" r="2.122"/>
      <path d="M139.058,242.846c0,1.172.95,2.122,2.122,2.122s2.122-.95,2.122-2.122-.95-2.122-2.122-2.122-2.122.95-2.122,2.122Z"/>
      <path d="M133.169,220.01c0,1.172.95,2.122,2.122,2.122s2.122-.95,2.122-2.122-.95-2.122-2.122-2.122-2.122.95-2.122,2.122Z"/>
      <path d="M147.04,237.66c0,1.172.95,2.122,2.122,2.122s2.122-.95,2.122-2.122-.95-2.122-2.122-2.122-2.122.95-2.122,2.122Z"/>
      <path d="M143.782,376.617c0,1.172.95,2.122,2.122,2.122s2.122-.95,2.122-2.122-.95-2.122-2.122-2.122-2.122.95-2.122,2.122Z"/>
      <path d="M129.318,385.753c0,1.172.95,2.122,2.122,2.122s2.122-.95,2.122-2.122-.95-2.122-2.122-2.122-2.122.95-2.122,2.122Z"/>
      <path d="M131.204,367.842c0,1.172.95,2.122,2.122,2.122s2.122-.95,2.122-2.122-.95-2.122-2.122-2.122-2.122.95-2.122,2.122Z"/>
      <path d="M126.018,381.04c0,1.172.95,2.122,2.122,2.122s2.122-.95,2.122-2.122-.95-2.122-2.122-2.122-2.122.95-2.122,2.122Z"/>
      <path d="M134.684,389.064c0,1.172.95,2.122,2.122,2.122s2.122-.95,2.122-2.122-.95-2.122-2.122-2.122-2.122.95-2.122,2.122Z"/>
      <path d="M135.638,373.298c0,1.172.95,2.122,2.122,2.122s2.122-.95,2.122-2.122-.95-2.122-2.122-2.122-2.122.95-2.122,2.122Z"/>
      <circle cx="149.116" cy="383.16" r="2.122"/>
      <circle cx="134.308" cy="376.559" r="2.122"/>
      <circle cx="141.329" cy="387.113" r="2.122"/>
      <path d="M120.796,223.899c0,1.172.95,2.122,2.122,2.122s2.122-.95,2.122-2.122-.95-2.122-2.122-2.122-2.122.95-2.122,2.122Z"/>
      <path d="M123.307,243.554c0,1.172.95,2.122,2.122,2.122s2.122-.95,2.122-2.122-.95-2.122-2.122-2.122-2.122.95-2.122,2.122Z"/>
      <path d="M127.558,236.935c0,1.172.95,2.122,2.122,2.122s2.122-.95,2.122-2.122-.95-2.122-2.122-2.122-2.122.95-2.122,2.122Z"/>
      <path d="M141.579,508.624l-1.19-3.532c-.266-.791.93-1.194,1.196-.403l1.19,3.532c.266.791-.93,1.194-1.196.403Z"/>
      <path d="M147.093,509.971c.213-1.235.282-2.494.206-3.745-.05-.83,1.208-.917,1.26-.077.082,1.347.007,2.706-.222,4.036-.142.823-1.386.609-1.243-.214Z"/>
      <path d="M133.274,512.63c.112-1.833-.23-3.687-.988-5.36-.344-.761.805-1.282,1.15-.521.842,1.86,1.222,3.921,1.098,5.958-.051.833-1.31.756-1.26-.077Z"/>
      <path d="M130.244,504.432c3.218-4.604,2.663-6.586,3.83-6.164.327.12.495.482.375.81-.79,2.153-1.857,4.197-3.17,6.077-.467.67-1.517-.032-1.035-.723Z"/>
      <path d="M136.963,492.368c1.703-2.136.514-5.149,2.773-13.114.096-.335.446-.531.779-.434,1.218.345-.432,1.605-1.101,9.09-.163,1.85-.293,3.777-1.464,5.245-.511.64-1.512-.129-.987-.786Z"/>
      <path d="M142.861,472.319c-1.162-4.038.734-8.874-.506-12.595-.265-.794.935-1.188,1.198-.398,1.397,4.196-.61,8.711.521,12.644.23.802-.982,1.151-1.213.349Z"/>
      <path d="M147.98,501.582c-1.502-2.958-1.625-6.378-1.734-9.395-.03-.839,1.231-.87,1.261-.045.104,2.887.222,6.159,1.598,8.868.378.746-.749,1.311-1.125.572Z"/>
      <path d="M159.138,238.444c-1.437-1.947-1.766-4.326-2.926-6.221-1.934-3.157-6.381-5.197-12.257-3.713-.809.206-1.118-1.019-.309-1.224,6.401-1.616,11.41.633,13.642,4.278,1.217,1.986,1.592,4.405,2.865,6.13.5.679-.529,1.407-1.015.75Z"/>
    </g>
    <path d="M3.128,261.785c1.125-1.441,3.03-2.363,3.832-3.761.415-.724,1.51-.097,1.095.627-.986,1.721-2.869,2.548-3.931,3.911-.504.645-1.512-.112-.995-.776Z"/>
  </g>
</svg>