<?xml version="1.0" encoding="UTF-8"?>
<svg id="Laag_1" data-name="Laag 1" xmlns="http://www.w3.org/2000/svg" viewBox="0 0 64 64" fill="currentColor">
  <defs>
    <style>
      .cls-1 {
        fill: none;
      }
    </style>
  </defs>
  <rect class="cls-1" x="0" width="64" height="64"/>
  <path d="M47.941,50.912c-1.18.787-2.703.785-3.883,0-.304-.203-.555-.46-.777-.737,3.719-3.279,6.764-8.404,9.09-15.384,2.474-7.422,1.65-13.51-2.202-16.287-2.15-1.549-4.823-1.779-7.67-.738v-2.555c0-2.848-1.415-5.492-3.785-7.072-2.863-1.909-6.566-1.909-9.43,0-.471.314-.893.681-1.285,1.072-.392-.392-.814-.758-1.285-1.072-2.863-1.909-6.566-1.909-9.43,0-.471.314-.893.681-1.285,1.072-.392-.392-.814-.758-1.285-1.072-1.401-.934-3.031-1.428-4.715-1.428v5c.693,0,1.364.203,1.941.588.976.651,1.559,1.739,1.559,2.912v30.789h5V15.211c0-1.173.583-2.261,1.559-2.912,1.18-.786,2.703-.786,3.883,0,.976.651,1.559,1.739,1.559,2.912v30.789h5V15.211c0-1.173.583-2.261,1.559-2.912,1.18-.786,2.703-.786,3.883,0,.976.651,1.559,1.739,1.559,2.912v32.789c0,.049.008.096.009.145-1.697.896-3.528,1.355-5.509,1.355v5c2.545,0,4.906-.531,7.091-1.552.589.822,1.326,1.546,2.194,2.124,1.433.955,3.073,1.433,4.715,1.433s3.283-.478,4.715-1.433c2.37-1.579,3.785-4.224,3.785-7.072h-5c0,1.173-.583,2.262-1.559,2.912ZM47.246,22.56c1.527,1.101,2.298,4.902.382,10.649-1.466,4.4-3.172,7.877-5.128,10.482v-20.37c1.968-1.22,3.697-1.517,4.746-.76Z"/>
</svg>