<?xml version="1.0" encoding="UTF-8"?>
<svg xmlns="http://www.w3.org/2000/svg" width="300" height="200" viewBox="0 0 300 200" fill="none">
  <g clip-path="url(#clip0_2433_409)">
    <path d="M61.368 103.225H57.8652V113.059H61.368C64.0841 113.059 66.2851 110.858 66.2851 108.142C66.2851 105.426 64.0841 103.225 61.368 103.225Z" fill="currentColor"></path>
    <path d="M61.368 86.3652H57.8652V96.1993H61.368C64.0841 96.1993 66.2851 93.9984 66.2851 91.2823C66.2851 88.5662 64.0841 86.3652 61.368 86.3652Z" fill="currentColor"></path>
    <path d="M54.4653 55.459C30.0206 55.459 10.2119 75.2677 10.2119 99.7124C10.2119 124.157 30.0206 143.966 54.4653 143.966C78.9101 143.966 98.7187 124.157 98.7187 99.7124C98.7187 75.2677 78.9101 55.459 54.4653 55.459ZM73.2906 108.142C73.2906 114.735 67.9521 120.074 61.3679 120.083H50.8033V103.225H50.4849C48.7709 112.946 40.3323 120.055 30.4608 120.083V113.059C36.4736 113.059 41.7466 109.022 43.3388 103.225H36.7827V96.2002H43.3388C41.7466 90.3841 36.4549 86.3568 30.4233 86.3661V79.3418C40.3136 79.3511 48.7709 86.4598 50.4849 96.2002H50.8408V79.3418H61.3679C64.5336 79.3418 67.5681 80.5968 69.7971 82.8352C74.4519 87.4994 74.4519 95.0482 69.7971 99.7124C72.0356 101.951 73.2906 104.985 73.2906 108.142ZM78.704 120.083C76.7653 120.083 75.1918 118.51 75.1918 116.571C75.1918 114.632 76.7653 113.059 78.704 113.059C80.6427 113.059 82.2162 114.632 82.2162 116.571C82.2162 118.51 80.6427 120.083 78.704 120.083Z" fill="currentColor"></path>
    <path d="M128.475 78.4326V88.3135C128.475 90.6082 128.007 91.8913 126.724 92.9964C125.281 94.1203 123.492 94.6916 121.666 94.6167C119.774 94.7104 117.91 94.0922 116.44 92.8934C115.25 91.6946 114.642 90.0275 114.782 88.3416V78.4326H119.062V88.0513C119.062 89.8027 120.111 90.9828 121.666 90.9828C122.987 91.0671 124.129 90.0556 124.204 88.735C124.204 88.5945 124.204 88.454 124.195 88.3135V78.4326H128.475Z" fill="currentColor"></path>
    <path d="M155.017 78.4326L149.922 94.0548H145.473L142.738 84.4923L139.928 94.0735H135.377L130.347 78.4513H134.702L137.84 87.967L140.575 78.4513H144.686L147.496 87.967L150.699 78.4326H155.017Z" fill="currentColor"></path>
    <path d="M157.33 71.5596H163.708C167.351 71.5596 169.815 72.2995 171.8 74.0509C174.17 76.2237 175.472 79.3332 175.341 82.555C175.462 85.8892 174.17 89.1298 171.772 91.4525C169.59 93.2601 166.808 94.1873 163.98 94.0562H157.33V71.5596ZM161.957 90.2912H162.875C165.338 90.2912 166.855 89.851 168.176 88.7364C169.862 87.2098 170.789 85.0089 170.704 82.733C170.704 78.2468 167.97 75.3434 163.689 75.3434H161.938L161.957 90.2912Z" fill="currentColor"></path>
    <path d="M183.227 74.0098C183.199 75.321 182.113 76.37 180.801 76.3419C179.49 76.3138 178.441 75.2273 178.469 73.9161C178.497 72.6143 179.565 71.5747 180.867 71.584C182.131 71.5466 183.19 72.5393 183.227 73.8037C183.227 73.8693 183.227 73.9349 183.227 74.0098ZM182.993 94.0526H178.713V78.4304H182.993V94.0526Z" fill="currentColor"></path>
    <path d="M198.811 78.4331H203.025V92.922C203.025 96.1251 202.417 97.9796 200.927 99.4781C199.167 101.089 196.844 101.941 194.456 101.838C191.59 101.904 188.817 100.78 186.804 98.7382L189.464 96.0408C190.672 97.4457 192.442 98.2324 194.287 98.195C197.153 98.195 198.811 96.5091 198.811 93.5776V91.9292C197.518 93.6526 195.467 94.6453 193.313 94.5891C189.023 94.5891 185.923 91.1144 185.923 86.3566C185.923 81.2991 189.061 77.9274 193.744 77.9274C195.739 77.8337 197.649 78.7609 198.811 80.3906V78.4331ZM190.475 86.1599C190.475 88.8573 192.227 90.7773 194.69 90.7773C195.926 90.7773 197.115 90.2528 197.93 89.3256C198.502 88.5201 198.792 87.5461 198.736 86.5626C198.858 85.2421 198.445 83.9309 197.593 82.9193C196.806 82.1514 195.757 81.7112 194.662 81.6831C192.367 81.655 190.494 83.4907 190.466 85.7853C190.466 85.907 190.466 86.0382 190.475 86.1599Z" fill="currentColor"></path>
    <path d="M211.783 74.0115C211.783 75.3227 210.716 76.3904 209.404 76.3904C208.093 76.3904 207.025 75.3227 207.025 74.0115C206.988 72.7284 207.999 71.6513 209.292 71.6139C209.339 71.6139 209.376 71.6139 209.423 71.6139C210.697 71.5858 211.755 72.5879 211.783 73.8617C211.783 73.9085 211.783 73.9647 211.783 74.0115ZM211.577 94.0543H207.269V78.4322H211.577V94.0543Z" fill="currentColor"></path>
    <path d="M220.278 89.4661C220.278 90.206 220.55 90.4026 221.496 90.4776H222.236V94.0553H218.836C216.738 93.98 215.97 93.1187 216.026 91.0863V81.9734H214.237V78.3676H216.026V74.1904H220.306V78.3676H222.264V81.9734H220.306L220.278 89.4661Z" fill="currentColor"></path>
    <path d="M237.278 78.432H241.549V94.0542H237.269V91.8907C236.023 93.6421 233.981 94.6536 231.836 94.588C227.453 94.588 224.344 91.1882 224.344 86.4304C224.344 81.6726 227.65 77.8981 232.202 77.8981C234.215 77.8513 236.117 78.7973 237.297 80.4269L237.278 78.432ZM228.914 86.3648C228.914 89.0996 230.703 91.1601 233.026 91.1601C235.349 91.1601 237.343 88.9311 237.343 86.2337C237.343 83.5364 235.592 81.5508 233.063 81.5508C230.535 81.5508 228.914 83.4895 228.914 86.3648Z" fill="currentColor"></path>
    <path d="M245.772 94.0551V71.5771H250.052V94.0551H245.772Z" fill="currentColor"></path>
    <path d="M257.742 87.3035C258.107 89.5794 260.252 91.1247 262.518 90.7595C263.736 90.5628 264.794 89.8416 265.431 88.7833L269.374 89.8604C267.997 92.7918 265.028 94.6556 261.788 94.6182C257.301 94.8242 253.499 91.3495 253.302 86.8633C253.302 86.6572 253.293 86.4512 253.302 86.2545C253.087 81.8807 256.459 78.1531 260.832 77.9377C261.067 77.9283 261.291 77.9283 261.525 77.9377C266.012 77.7691 269.786 81.2625 269.955 85.7488C269.955 85.9923 269.955 86.2264 269.955 86.4699V87.3129H257.751L257.742 87.3035ZM265.562 84.8403C265.309 82.8641 263.567 81.4218 261.582 81.5342C259.624 81.4405 257.948 82.8922 257.742 84.8403H265.562Z" fill="currentColor"></path>
    <path d="M122.602 105.276C125.412 105.276 127.154 105.679 128.334 106.559C129.767 107.711 130.572 109.472 130.498 111.308C130.544 112.732 130.039 114.108 129.074 115.157C128.428 115.813 127.613 116.281 126.714 116.506C127.707 116.637 128.634 117.059 129.383 117.714C130.479 118.772 131.069 120.243 131.003 121.77C131.088 123.69 130.217 125.535 128.671 126.687C127.491 127.464 126.105 127.773 123.651 127.773H115.353V105.295L122.602 105.276ZM119.97 114.82H121.844C124.578 114.82 125.861 113.837 125.861 111.748C125.899 110.718 125.365 109.744 124.475 109.219C123.548 108.873 122.555 108.723 121.572 108.779H119.952L119.97 114.82ZM119.97 124.364H122.228C123.82 124.364 124.56 124.223 125.234 123.755C125.993 123.203 126.423 122.294 126.348 121.357C126.433 120.337 125.936 119.344 125.065 118.801C124.101 118.332 123.033 118.136 121.965 118.257H119.97V124.364Z" fill="currentColor"></path>
    <path d="M150.363 120.083C150.316 124.653 146.579 128.325 141.999 128.278C141.943 128.278 141.887 128.278 141.831 128.278C137.363 128.465 133.589 125 133.401 120.532C133.401 120.336 133.401 120.148 133.401 119.952C133.401 114.988 136.876 111.588 141.934 111.588C146.448 111.448 150.232 114.997 150.363 119.521C150.363 119.708 150.363 119.895 150.363 120.083ZM137.682 119.952C137.682 122.649 139.367 124.466 141.859 124.466C144.153 124.466 146.017 122.621 146.026 120.336C146.026 120.251 146.026 120.167 146.026 120.083C146.026 117.273 144.434 115.494 141.877 115.494C139.321 115.494 137.691 117.273 137.691 119.98V119.952H137.682Z" fill="currentColor"></path>
    <path d="M156.966 121.018C157.331 123.294 159.476 124.84 161.743 124.474C162.96 124.278 164.018 123.556 164.655 122.498L168.598 123.575C167.222 126.507 164.253 128.37 161.012 128.333C156.526 128.539 152.723 125.074 152.517 120.588C152.508 120.381 152.508 120.175 152.517 119.969C152.311 115.586 155.692 111.868 160.066 111.653C160.291 111.643 160.516 111.643 160.75 111.653C165.236 111.484 169.01 114.977 169.179 119.464C169.179 119.707 169.179 119.941 169.179 120.185V121.028H156.975L156.966 121.018ZM164.749 118.527C164.496 116.551 162.754 115.109 160.769 115.221C158.811 115.127 157.135 116.579 156.929 118.527H164.749Z" fill="currentColor"></path>
    <path d="M176.418 127.77H172.138V105.292H176.418V118.151L180.773 112.148H185.728L180.436 119.64L185.728 127.77H180.773L176.418 121.289V127.77Z" fill="currentColor"></path>
    <path d="M192.265 113.834C193.267 112.447 194.878 111.642 196.592 111.651C197.978 111.661 199.308 112.176 200.338 113.094C201.35 114.03 201.725 115.257 201.725 117.514V127.817H197.444V118.086C197.444 116.334 196.508 115.22 195.112 115.22C194.391 115.21 193.698 115.491 193.192 115.997C192.518 116.634 192.19 117.542 192.312 118.46V127.77H188.032V105.292H192.312L192.265 113.834Z" fill="currentColor"></path>
    <path d="M221.805 120.083C221.758 124.653 218.021 128.325 213.441 128.278C213.385 128.278 213.329 128.278 213.272 128.278C208.805 128.465 205.031 125 204.843 120.532C204.843 120.336 204.843 120.148 204.843 119.952C204.843 114.988 208.318 111.588 213.376 111.588C217.89 111.448 221.674 114.997 221.805 119.521C221.805 119.708 221.805 119.895 221.805 120.083ZM209.123 119.952C209.123 122.649 210.809 124.466 213.31 124.466C215.605 124.485 217.478 122.64 217.496 120.354C217.496 120.261 217.496 120.176 217.496 120.083C217.496 117.273 215.914 115.494 213.347 115.494C210.781 115.494 209.133 117.273 209.133 119.98V119.952H209.123Z" fill="currentColor"></path>
    <path d="M238.355 112.149V122.03C238.355 124.325 237.887 125.608 236.603 126.713C233.513 128.924 229.345 128.877 226.301 126.61C225.121 125.393 224.531 123.716 224.69 122.03V112.149H228.98V121.768C228.98 123.52 230.019 124.7 231.574 124.7C232.895 124.784 234.037 123.772 234.112 122.452C234.112 122.311 234.112 122.171 234.103 122.03V112.149H238.355Z" fill="currentColor"></path>
    <path d="M254.277 105.276H258.557V127.754H254.277V125.703C253.134 127.455 251.13 128.457 249.041 128.307C244.424 128.307 241.324 125.001 241.324 120.112C241.221 117.742 242.129 115.438 243.815 113.771C245.248 112.404 247.14 111.636 249.116 111.617C251.092 111.551 252.984 112.385 254.277 113.874V105.276ZM245.848 120.149C245.848 122.847 247.636 124.832 250.062 124.832C252.488 124.832 254.249 122.772 254.249 120.074C254.249 117.377 252.488 115.185 250.1 115.185C247.711 115.185 245.876 117.274 245.876 120.149H245.848Z" fill="currentColor"></path>
    <path d="M266.209 121.018C266.574 123.294 268.719 124.84 270.986 124.474C272.203 124.278 273.262 123.556 273.899 122.498L277.841 123.575C276.465 126.507 273.496 128.37 270.255 128.333C265.769 128.539 261.966 125.074 261.76 120.588C261.751 120.381 261.751 120.175 261.76 119.969C261.554 115.586 264.935 111.868 269.309 111.653C269.534 111.643 269.759 111.643 269.993 111.653C274.479 111.484 278.254 114.977 278.422 119.464C278.422 119.707 278.422 119.941 278.422 120.185V121.028H266.219L266.209 121.018ZM274.03 118.555C273.777 116.579 272.035 115.137 270.049 115.249C268.092 115.155 266.406 116.607 266.209 118.555H274.03Z" fill="currentColor"></path>
    <path d="M285.792 112.148V114.461C286.017 113.637 286.504 112.897 287.178 112.373C287.928 111.877 288.808 111.614 289.707 111.633C289.876 111.624 290.044 111.624 290.213 111.633V116.016C289.876 116.016 289.538 115.951 289.276 115.951C288.152 115.932 287.085 116.456 286.41 117.365C285.867 118.217 285.642 119.238 285.764 120.24V127.733H281.484V112.148H285.792Z" fill="currentColor"></path>
  </g>
  <defs>
    <clipPath id="clip0_2433_409">
      <rect width="280" height="88.5068" fill="white" transform="translate(10.2119 55.459)"></rect>
    </clipPath>
  </defs>
</svg>
