<?xml version="1.0" encoding="UTF-8"?>
<svg id="Laag_1" data-name="Laag 1" xmlns="http://www.w3.org/2000/svg" viewBox="0 0 64 64" fill="currentColor">
  <defs>
    <style>
      .cls-1 {
        fill: none;
      }
    </style>
  </defs>
  <rect class="cls-1" width="64" height="64"/>
  <path d="M49.304,10.133l-1.304-2.133-1.286-2.144c-.437.262-10.262,6.372-11.144,23.644h-7.14c-.881-17.272-10.706-23.381-11.144-23.644l-2.59,4.277c.34.212,7.919,5.108,8.729,19.367h-9.426v5h9.426c-.81,14.258-8.388,19.154-8.712,19.356l2.572,4.287c.437-.262,10.262-6.372,11.144-23.644h7.14c.881,17.272,10.706,23.381,11.144,23.644l2.59-4.276c-.34-.213-7.919-5.109-8.729-19.367h9.426v-5h-9.426c.81-14.259,8.389-19.155,8.729-19.367Z"/>
</svg>