<?xml version="1.0" encoding="UTF-8"?>
<svg id="Laag_1" data-name="Laag 1" xmlns="http://www.w3.org/2000/svg" viewBox="0 0 64 64" fill="currentColor">
  <defs>
    <style>
      .cls-1 {
        fill: none;
      }
    </style>
  </defs>
  <rect class="cls-1" x="0" width="64" height="64"/>
  <g>
    <path d="M47.5,25c0-4.14-1.612-8.033-4.54-10.96-2.927-2.928-6.819-4.54-10.96-4.54s-8.033,1.612-10.96,4.54c-2.928,2.928-4.54,6.82-4.54,10.96,0,3.066.885,5.997,2.532,8.5H6v5h19.068c1.113,0,2.092-.735,2.401-1.805s-.125-2.214-1.066-2.809c-.657-.415-1.272-.907-1.828-1.462-1.983-1.983-3.075-4.62-3.075-7.424s1.092-5.441,3.075-7.425c1.983-1.983,4.62-3.075,7.425-3.075s5.441,1.092,7.425,3.076c1.983,1.983,3.075,4.62,3.075,7.424s-1.092,5.441-3.075,7.425c-.556.556-1.17,1.047-1.826,1.46-.942.594-1.378,1.739-1.068,2.809.309,1.07,1.288,1.807,2.401,1.807h19.068v-5h-13.033c1.648-2.502,2.533-5.434,2.533-8.5Z"/>
    <rect x="6" y="47.5" width="52" height="5"/>
  </g>
</svg>